<svg width="30" height="30" viewBox="0 0 30 30" fill="none" xmlns="http://www.w3.org/2000/svg">
<path fill-rule="evenodd" clip-rule="evenodd" d="M15 27.5C21.9036 27.5 27.5 21.9036 27.5 15C27.5 8.09644 21.9036 2.5 15 2.5C8.09644 2.5 2.5 8.09644 2.5 15C2.5 21.9036 8.09644 27.5 15 27.5ZM15.9375 8.75C15.9375 8.23223 15.5178 7.8125 15 7.8125C14.4822 7.8125 14.0625 8.23223 14.0625 8.75V15C14.0625 15.4035 14.3207 15.7618 14.7035 15.8894L18.4535 17.1394C18.9447 17.3031 19.4757 17.0377 19.6394 16.5465C19.8031 16.0553 19.5377 15.5243 19.0465 15.3606L15.9375 14.3243V8.75Z" fill="black"/>
</svg>
