<svg width="85" height="69" viewBox="0 0 85 69" fill="none" xmlns="http://www.w3.org/2000/svg">
<g clip-path="url(#clip0_302_752)">
<path fill-rule="evenodd" clip-rule="evenodd" d="M20.7166 54.6098H8.78385C6.63726 54.6098 4.8916 53.1923 4.8916 51.4502V3.49309C4.8916 1.75097 6.63726 0.333496 8.78385 0.333496H20.7166C24.1975 0.333496 25.5845 3.90507 23.9106 4.27096V50.6844C25.6558 51.0762 24.1133 54.6094 20.7166 54.6094V54.6098ZM21.114 37.121H8.38591C7.07455 37.121 7.07455 35.5038 8.38591 35.5038H21.115C22.4259 35.5038 22.4269 37.121 21.114 37.121ZM21.114 33.0259H8.38591C7.07455 33.0259 7.07455 31.4087 8.38591 31.4087H21.115C22.4264 31.4087 22.4269 33.0259 21.114 33.0259ZM21.114 28.9315H8.38591C7.07455 28.9315 7.07455 27.3144 8.38591 27.3144H21.115C22.4264 27.3144 22.4269 28.9315 21.114 28.9315ZM20.2056 20.7267L9.256 20.7259C8.65137 20.7134 8.29776 20.3151 8.29776 19.9181V6.85928C8.29776 6.41293 8.74401 6.05068 9.29386 6.05068H20.2066C20.7564 6.05068 21.2027 6.41293 21.2027 6.85928V19.9181C21.2022 20.3232 20.8471 20.7158 20.2056 20.7267ZM10.29 19.1095H19.2105V17.3666C18.8868 17.4576 10.6137 17.4576 10.29 17.3666V19.1095ZM19.2105 15.8424V14.1508C18.8868 14.2418 10.6137 14.2418 10.29 14.1508V15.8424C10.6127 15.7514 18.8868 15.7514 19.2105 15.8424ZM19.2105 12.6266V10.935C18.8868 11.026 10.6137 11.026 10.29 10.935V12.6266C10.6127 12.5356 18.8868 12.5356 19.2105 12.6266ZM19.2105 9.41081V7.66788H10.29V9.41081C10.6127 9.31984 18.8868 9.31984 19.2105 9.41081ZM14.7495 49.9797C11.7054 49.9797 9.22811 47.9688 9.22811 45.4973C9.22811 43.0258 11.7054 41.0148 14.7495 41.0148C17.7946 41.0148 20.2714 43.0262 20.2714 45.4973C20.2714 47.9688 17.7941 49.9797 14.7495 49.9797ZM14.7495 42.6316C10.1047 42.6316 10.1047 48.3625 14.7495 48.3625C19.3953 48.3625 19.3953 42.6316 14.7495 42.6316Z" fill="url(#paint0_linear_302_752)"/>
<path fill-rule="evenodd" clip-rule="evenodd" d="M38.4432 54.6098H26.5094C24.3633 54.6098 22.6172 53.1923 22.6172 51.4502V3.49309C22.6172 1.75097 24.3633 0.333496 26.5094 0.333496H38.4432C40.5893 0.333496 42.3354 1.75097 42.3354 3.49309V51.4502C42.3354 53.1923 40.5888 54.6098 38.4432 54.6098ZM32.4761 49.9797C29.432 49.9797 26.9547 47.9688 26.9547 45.4973C26.9547 43.0258 29.432 41.0148 32.4761 41.0148C35.5206 41.0148 37.9974 43.0262 37.9974 45.4973C37.9974 47.9688 35.5201 49.9797 32.4761 49.9797ZM32.4761 42.6316C27.8308 42.6316 27.8298 48.3625 32.4761 48.3625C37.1224 48.3625 37.1219 42.6316 32.4761 42.6316ZM36.578 10.9811C35.553 10.9811 28.403 11.0438 28.016 10.9346V12.6262C28.3393 12.5352 36.6104 12.5348 36.9366 12.6266V10.9346C36.8305 10.9645 36.7115 10.9811 36.5785 10.9811H36.578ZM28.016 9.4104C28.3393 9.31943 36.6104 9.31903 36.9366 9.41081V7.66747H28.016V9.4104ZM36.578 14.1969C35.553 14.1969 28.403 14.2596 28.016 14.1504V15.842C28.3393 15.751 36.6104 15.7506 36.9366 15.8424V14.1504C36.8305 14.1803 36.7115 14.1969 36.5785 14.1969H36.578ZM36.578 17.4127C35.553 17.4127 28.403 17.4753 28.016 17.3662V19.1091H36.9366V17.3662C36.8305 17.3961 36.7115 17.4127 36.5785 17.4127H36.578ZM37.9317 20.7263L26.9821 20.7255C26.3775 20.713 26.0238 20.3147 26.0238 19.9177V6.85887C26.0238 6.41253 26.4701 6.05028 27.0199 6.05028H37.9327C38.4825 6.05028 38.9288 6.41253 38.9288 6.85887V19.9177C38.9283 20.3261 38.5767 20.7154 37.9322 20.7263H37.9317ZM38.8401 28.9311H26.1115C24.8001 28.9311 24.8001 27.314 26.1115 27.314H38.8401C40.151 27.314 40.152 28.9311 38.8401 28.9311ZM38.8401 33.0255H26.1115C24.8001 33.0255 24.8001 31.4083 26.1115 31.4083H38.8401C40.151 31.4083 40.152 33.0255 38.8401 33.0255ZM38.8401 37.1206H26.1115C24.8006 37.1206 24.8006 35.5034 26.1115 35.5034H38.8401C40.151 35.5034 40.1515 37.1206 38.8401 37.1206Z" fill="url(#paint1_linear_302_752)"/>
<path fill-rule="evenodd" clip-rule="evenodd" d="M65.0444 54.6141C63.4277 54.6141 61.9605 53.7914 61.3932 52.568L40.5827 7.68479C39.8267 6.05425 40.8457 4.22803 42.8543 3.61431L54.023 0.201626C56.0277 -0.410482 58.2844 0.422777 59.0369 2.04604L79.8474 46.9296C80.6034 48.5598 79.5839 50.3852 77.5758 50.9997L66.407 54.412C65.9697 54.5458 65.5115 54.6137 65.0444 54.6137V54.6141ZM58.0951 38.2093C56.9979 38.2093 56.71 36.9596 57.7445 36.6439L69.6573 33.0044C70.883 32.6288 71.5862 34.1429 70.3581 34.5177C69.0073 34.9301 58.5513 38.2093 58.0951 38.2093ZM56.3181 34.377C55.2209 34.377 54.9325 33.1273 55.9669 32.8115L67.8803 29.172C69.1055 28.7964 69.8092 30.3105 68.581 30.6853C67.2318 31.0973 56.7723 34.3766 56.3181 34.3766V34.377ZM54.541 30.545C53.4438 30.545 53.1559 29.2953 54.1904 28.9796L66.1037 25.3401C67.3299 24.9637 68.0322 26.4786 66.8045 26.8534C65.4548 27.2654 54.9957 30.545 54.541 30.545ZM51.0133 22.2606L45.2315 9.86072C45.0377 9.44227 45.2977 8.97652 45.8132 8.81925L56.0267 5.69806C56.5402 5.54079 57.1159 5.75184 57.3097 6.16988L62.9765 18.3918C63.1672 18.803 62.9834 19.2028 62.3938 19.4341C61.193 19.8008 52.2779 22.6066 51.8301 22.6066C51.4581 22.6066 51.1792 22.4627 51.0133 22.261V22.2606ZM47.4463 10.0479L48.2038 11.6817C48.4628 11.5006 56.1881 9.13581 56.5506 9.12732L55.7946 7.49719L47.4458 10.0475L47.4463 10.0479ZM48.8608 13.0983L49.5994 14.6917C49.8599 14.5102 57.5836 12.1462 57.9462 12.1381L57.2116 10.5541C56.8181 10.8197 49.0869 13.1032 48.8603 13.0983H48.8608ZM50.2563 16.1079L50.9949 17.7005C51.2559 17.5185 58.9806 15.1546 59.3422 15.1469L58.6081 13.5641C58.2116 13.8309 50.4829 16.1128 50.2563 16.1079ZM51.6518 19.1171L52.4114 20.7554L60.7601 18.205L60.0031 16.5729C59.6082 16.8393 51.8819 19.122 51.6513 19.1171H51.6518ZM68.0376 48.6604C61.9221 48.6604 60.3836 41.7267 66.0913 39.9814C68.9451 39.1089 72.1356 40.2915 73.2049 42.598C74.5666 45.5348 71.8258 48.66 68.0376 48.66V48.6604ZM68.0366 41.3103C65.5853 41.3103 63.862 43.3047 64.7336 45.1851C66.3717 48.7191 72.9863 46.7162 71.3402 43.1676C70.8247 42.057 69.4974 41.3103 68.0366 41.3103Z" fill="url(#paint2_linear_302_752)"/>
<path fill-rule="evenodd" clip-rule="evenodd" d="M76.2158 68.9991H8.92643C6.77984 68.9991 5.03418 67.582 5.03418 65.8395V56.1521C5.03418 54.4096 6.78034 52.9917 8.92643 52.9917L76.2158 52.9921C78.3624 52.9921 80.1091 54.41 80.1091 56.1525V65.8399C80.1091 67.582 78.3624 68.9995 76.2158 68.9995V68.9991Z" fill="url(#paint3_linear_302_752)"/>
</g>
<defs>
<linearGradient id="paint0_linear_302_752" x1="4.8916" y1="2160.04" x2="1569.01" y2="2160.04" gradientUnits="userSpaceOnUse">
<stop stop-color="#2F2E41"/>
<stop offset="0.0001" stop-color="#26ACC9"/>
</linearGradient>
<linearGradient id="paint1_linear_302_752" x1="22.6172" y1="2160.04" x2="1584.76" y2="2160.04" gradientUnits="userSpaceOnUse">
<stop stop-color="#2F2E41"/>
<stop offset="0.0001" stop-color="#26ACC9"/>
</linearGradient>
<linearGradient id="paint2_linear_302_752" x1="40.333" y1="2173.13" x2="3190.56" y2="2173.13" gradientUnits="userSpaceOnUse">
<stop stop-color="#2F2E41"/>
<stop offset="0.0001" stop-color="#26ACC9"/>
</linearGradient>
<linearGradient id="paint3_linear_302_752" x1="5.03518" y1="60.9956" x2="80.1096" y2="60.9956" gradientUnits="userSpaceOnUse">
<stop stop-color="#3F3D56"/>
<stop offset="1" stop-color="#26ACC9"/>
</linearGradient>
<clipPath id="clip0_302_752">
<rect width="85" height="69" fill="white"/>
</clipPath>
</defs>
</svg>
