<svg width="79" height="73" viewBox="0 0 79 73" fill="none" xmlns="http://www.w3.org/2000/svg">
<g clip-path="url(#clip0_302_778)">
<path d="M25.3694 64.587C25.2863 64.587 25.2188 64.5246 25.2188 64.4479V60.972C25.2188 60.8953 25.2863 60.8328 25.3694 60.8328C25.4524 60.8328 25.52 60.8953 25.52 60.972V64.4479C25.52 64.5246 25.4524 64.587 25.3694 64.587ZM26.7184 65.0433C26.6353 65.0433 26.5677 64.9808 26.5677 64.9041V57.4958C26.5677 57.4191 26.6353 57.3566 26.7184 57.3566C26.8014 57.3566 26.869 57.4191 26.869 57.4958V64.9041C26.869 64.9808 26.8014 65.0433 26.7184 65.0433ZM28.1372 65.6299C28.0541 65.6299 27.9865 65.5674 27.9865 65.4907V59.4946C27.9865 59.4179 28.0541 59.3554 28.1372 59.3554C28.2202 59.3554 28.2878 59.4179 28.2878 59.4946V65.4907C28.2878 65.5674 28.2202 65.6299 28.1372 65.6299ZM29.6537 66.1228C29.5707 66.1228 29.5031 66.0604 29.5031 65.9836V62.7101C29.5031 62.6334 29.5707 62.5709 29.6537 62.5709C29.7367 62.5709 29.8043 62.6334 29.8043 62.7101V65.9836C29.8043 66.0604 29.7367 66.1228 29.6537 66.1228ZM63.3646 16.7161C63.2816 16.7161 63.214 16.6536 63.214 16.5769V13.1007C63.214 13.024 63.2816 12.9615 63.3646 12.9615C63.4476 12.9615 63.5152 13.024 63.5152 13.1007V16.5769C63.5152 16.6536 63.4476 16.7161 63.3646 16.7161ZM64.7136 17.1723C64.6306 17.1723 64.563 17.1099 64.563 17.0332V9.62453C64.563 9.54781 64.6306 9.48535 64.7136 9.48535C64.7966 9.48535 64.8642 9.54781 64.8642 9.62453V17.0332C64.8642 17.1099 64.7966 17.1723 64.7136 17.1723ZM66.1324 17.759C66.0494 17.759 65.9818 17.6965 65.9818 17.6198V11.6233C65.9818 11.5466 66.0494 11.4842 66.1324 11.4842C66.2154 11.4842 66.283 11.5466 66.283 11.6233V17.6198C66.283 17.6965 66.2154 17.759 66.1324 17.759ZM67.6489 18.2515C67.5659 18.2515 67.4983 18.1891 67.4983 18.1123V14.8388C67.4983 14.7621 67.5659 14.6996 67.6489 14.6996C67.732 14.6996 67.7995 14.7621 67.7995 14.8388V18.1123C67.7995 18.1891 67.732 18.2515 67.6489 18.2515Z" fill="#26ACC9"/>
<path d="M12.2588 12.1779C11.5402 12.1779 10.9561 11.6381 10.9561 10.9744C10.9561 10.3108 11.5402 9.771 12.2588 9.771C12.9766 9.771 13.5607 10.3108 13.5607 10.9744C13.5607 11.6381 12.9766 12.1779 12.2588 12.1779ZM12.2588 10.0494C11.7062 10.0494 11.2573 10.4642 11.2573 10.9744C11.2573 11.4846 11.7062 11.8995 12.2588 11.8995C12.8106 11.8995 13.2595 11.4846 13.2595 10.9744C13.2595 10.4642 12.8106 10.0494 12.2588 10.0494Z" fill="#26ACC9"/>
<path d="M65.9931 38.7305C65.9277 38.7305 65.863 38.7251 65.7991 38.7146C64.8006 38.5496 64.2811 37.1557 64.2598 37.0966C64.0034 36.6451 63.7014 36.3994 63.3707 36.3861C63.3619 36.3858 63.3524 36.3854 63.3428 36.3854C62.794 36.3854 62.237 37.0192 62.0658 37.2677C62.021 37.3333 61.9277 37.3512 61.8579 37.3105C61.7881 37.2691 61.7668 37.1832 61.8116 37.1184C61.8403 37.0766 62.517 36.1074 63.3421 36.1074C63.356 36.1074 63.37 36.1078 63.384 36.1084C63.8292 36.1261 64.2172 36.4221 64.536 36.988C64.5493 37.0206 65.0291 38.3055 65.852 38.441C66.2767 38.5116 66.7219 38.2661 67.1995 37.7199C67.2509 37.6602 67.3465 37.651 67.4111 37.6989C67.4758 37.7471 67.4853 37.8347 67.4332 37.8944C66.9482 38.4501 66.464 38.7305 65.9931 38.7305Z" fill="#26ACC9"/>
<path d="M10.7271 37.3607C10.644 37.3607 10.5764 37.2982 10.5764 37.2215V35.1263C10.0731 35.1334 8.50812 35.1507 8.19512 35.1239C8.11283 35.1168 8.05185 35.0492 8.05919 34.9728C8.06728 34.8964 8.13046 34.8421 8.22304 34.8469C8.56984 34.8767 10.7028 34.8462 10.7249 34.8462H10.7271C10.7667 34.8462 10.8042 34.8608 10.8329 34.8862C10.8615 34.9124 10.8777 34.948 10.8777 34.9854V37.2215C10.8777 37.2982 10.8101 37.3607 10.7271 37.3607Z" fill="#26ACC9"/>
<path d="M70.7919 60.7567C70.7471 60.7567 70.703 60.7384 70.6736 60.7034L69.274 59.0553C68.8823 59.3472 67.6612 60.2546 67.3989 60.4114C67.3291 60.4525 67.2358 60.4342 67.1909 60.3704C67.1461 60.3059 67.166 60.2196 67.2358 60.1779C67.5289 60.0024 69.1865 58.7626 69.2034 58.7504C69.2357 58.7267 69.2791 58.7158 69.3151 58.7202C69.3555 58.7243 69.3915 58.7433 69.4165 58.7725L70.9102 60.5316C70.9617 60.592 70.9499 60.6796 70.8845 60.7268C70.8573 60.7468 70.8243 60.7567 70.7919 60.7567Z" fill="#26ACC9"/>
<path d="M40.7959 28.7692C46.585 41.5738 51.4501 57.7345 60.7004 57.9694L61.9389 53.041L44.0692 26.8262L40.7959 28.7692Z" fill="#26ACC9"/>
<path d="M30.2705 35.0169L48.0622 61.1177L53.5451 62.134C55.5636 53.7258 43.4801 43.1867 33.6806 32.9927L30.2705 35.0169Z" fill="#26ACC9"/>
<path d="M33.6816 32.9924L53.546 62.134L60.7004 57.9695L40.7962 28.7695L33.6816 32.9924Z" fill="#2F2E41"/>
<path d="M61.9385 53.041L63.8163 69.8711C61.4321 65.4556 59.3678 61.1467 60.7003 57.9693L61.9385 53.041Z" fill="#029BC5"/>
<path d="M60.7006 57.9697L53.5457 62.1343C53.4061 63.6895 58.6406 66.7889 63.8167 69.8715L60.7006 57.9697Z" fill="#029BC5"/>
<path d="M53.5461 62.1341L48.0635 61.1177L63.8168 69.8714L53.5461 62.1341Z" fill="#029BC5"/>
<path d="M63.0594 63.084L62.5906 65.1886C61.28 66.7748 62.5869 68.3224 63.8167 69.8712L63.0594 63.084Z" fill="#353266"/>
<path d="M62.5905 65.1885L59.7754 66.827C59.7833 67.4566 61.6819 68.6299 63.8165 69.8711L62.5905 65.1885Z" fill="#26ACC9"/>
<path d="M59.775 66.8268L57.4629 66.3408L63.816 69.8712L59.775 66.8268Z" fill="#353266"/>
<path d="M56.8719 43.5665L58.0459 45.2553C58.7889 46.3311 58.7726 47.8577 57.818 49.5843C55.8919 53.0569 50.8927 56.0198 46.6559 56.2054C44.5227 56.3023 42.9877 55.6731 42.2355 54.584L41.0569 52.8885C40.3081 51.8114 40.3244 50.2849 41.2825 48.5562C43.2121 45.0815 48.2092 42.1152 52.4435 41.9264C54.585 41.8339 56.1223 42.4664 56.8719 43.5665Z" fill="#C6CEF4"/>
<path d="M46.4852 44.6106L50.5821 42.1787C46.8362 42.9838 42.9349 45.5804 41.2825 48.5559C40.3244 50.2846 40.3081 51.8111 41.0568 52.8882L42.2355 54.5837C42.9876 55.6729 44.5226 56.3021 46.6558 56.2051C48.7736 56.1123 51.0819 55.3256 53.1017 54.1281L46.4852 44.6106Z" fill="#8F9BD8"/>
<path d="M52.442 41.9271C56.682 41.7412 58.5585 44.4075 56.6328 47.8815C54.7072 51.3558 49.711 54.3178 45.471 54.5038C41.2374 54.6892 39.358 52.0286 41.2836 48.5544C43.2093 45.0803 48.2086 42.1128 52.442 41.9271Z" fill="#DBE1FE"/>
<path d="M51.3072 51.5347C49.3647 52.6877 47.2721 53.3682 45.417 53.4493C43.8082 53.5199 42.5708 53.1076 42.0207 52.3183C41.4681 51.5255 41.5673 50.3602 42.3008 49.0368C43.1423 47.5188 44.6751 46.0477 46.6176 44.8946C48.5591 43.7422 50.6469 43.0633 52.4961 42.9822C54.1296 42.9109 55.3371 43.3125 55.8961 44.1145C56.4495 44.9081 56.3501 46.0756 55.616 47.4002C54.7761 48.9159 53.2455 50.3841 51.3072 51.5347Z" fill="#767FAD"/>
<path d="M52.3471 44.6405C52.3064 44.7039 52.2656 44.7673 52.2248 44.8308C52.0796 45.0084 51.8951 45.1702 51.6848 45.295C51.5311 45.3994 51.358 45.4759 51.1822 45.5281C51.0127 45.5895 50.8403 45.6264 50.6752 45.633C50.041 45.6566 49.7545 45.2647 50.0413 44.7416C50.0821 44.6781 50.1229 44.6147 50.1636 44.5513C50.2716 44.4218 50.4126 44.299 50.5599 44.1854C50.7472 44.048 50.9703 43.9418 51.1899 43.8506C51.3658 43.7985 51.5481 43.7556 51.7133 43.7491C52.3475 43.7255 52.6341 44.1174 52.3471 44.6405ZM48.6125 51.3531C48.5138 51.5163 48.3722 51.6788 48.2013 51.8195C48.0604 51.9423 47.8966 52.0526 47.7136 52.1351C47.4905 52.2414 47.268 52.308 47.0464 52.3351C47.0099 52.3437 46.9771 52.337 46.9406 52.3456C46.3128 52.3784 46.0298 51.9714 46.3232 51.4575C46.3711 51.3637 46.4455 51.2672 46.5264 51.1801C46.678 51.0116 46.8589 50.865 47.0756 50.7495C47.2522 50.6577 47.4353 50.5751 47.6176 50.5323C47.737 50.5006 47.8628 50.4781 47.9852 50.4709C48.6229 50.4321 48.9059 50.8392 48.6125 51.3531Z" fill="#4E4C75"/>
<path d="M51.6846 45.2952C51.5309 45.3995 51.3577 45.4761 51.1819 45.5282C50.8438 45.2454 50.5 44.9136 50.1633 44.5514C49.1685 43.5476 48.1587 42.2781 47.1711 40.8779C46.1706 39.4591 44.7107 37.176 43.7498 35.4071C43.6219 35.1824 43.5004 34.967 43.4018 34.7641L44.1318 34.7359C45.0821 36.5504 46.7949 39.2584 47.9111 40.8437C48.7794 42.0926 49.6826 43.2293 50.5596 44.1856C50.9384 44.588 51.3243 44.9601 51.6846 45.2952ZM43.5309 32.4741C43.4703 32.4801 43.4244 32.5074 43.3779 32.565C43.3676 32.5811 43.3522 32.5902 43.3495 32.6018C43.2686 32.7497 43.2696 32.9688 43.3422 33.1354C43.4175 33.2904 43.4929 33.4455 43.5682 33.6005C43.6086 33.7363 43.6441 33.8651 43.6544 33.9888C43.68 34.2432 43.6564 34.4269 43.5936 34.5542C43.5313 34.6511 43.4416 34.7243 43.3154 34.7293L42.5707 34.7618C42.6969 34.7568 42.7915 34.6907 42.8489 34.5868C42.9118 34.4595 42.9429 34.2713 42.9174 34.0168C42.8994 33.8976 42.8716 33.7644 42.8235 33.633C42.7482 33.478 42.6729 33.323 42.6052 33.1635C42.5249 33.0014 42.5315 32.7778 42.6048 32.6344C42.6201 32.6253 42.6305 32.6091 42.6333 32.5975C42.6797 32.54 42.7332 32.5082 42.7863 32.5067L43.5309 32.4741ZM43.3556 35.5643L42.6109 35.5969C42.5704 35.6009 42.525 35.5979 42.4874 35.5903C42.4546 35.5898 42.4295 35.5847 42.3994 35.5726L43.1365 35.5446C43.1665 35.5567 43.1993 35.5572 43.2244 35.5622C43.2698 35.5653 43.3151 35.5683 43.3556 35.5643Z" fill="#C9CDE2"/>
<path d="M42.297 36.5444L41.5565 36.5749C41.6817 36.5698 41.7758 36.5036 41.8336 36.4C41.9043 36.2734 41.9315 36.0846 41.9019 35.8344C41.8722 35.5842 41.7765 35.289 41.6156 35.0292C41.5167 34.868 41.5071 34.6169 41.5963 34.4572C41.6535 34.3545 41.7276 34.3026 41.8011 34.2996L42.5416 34.269C42.4681 34.2721 42.3941 34.324 42.3368 34.4266C42.2476 34.5863 42.2572 34.8375 42.3561 34.9987C42.517 35.2585 42.6128 35.5537 42.6424 35.8039C42.672 36.0541 42.6448 36.2429 42.5741 36.3695C42.5163 36.4731 42.4222 36.5393 42.297 36.5444ZM42.3409 37.3848L41.5962 37.4174C41.5557 37.4214 41.518 37.4138 41.4727 37.4108L41.3848 37.3931L42.1294 37.3605C42.1546 37.3656 42.1846 37.3777 42.2174 37.3782C42.2551 37.3858 42.2955 37.3818 42.3409 37.3848Z" fill="#C9CDE2"/>
<path d="M41.283 38.3613L40.5425 38.3918C40.6677 38.3867 40.7618 38.3205 40.8196 38.2169C40.8903 38.0903 40.9175 37.9016 40.8879 37.6513C40.8582 37.4011 40.7625 37.1059 40.6016 36.8461C40.5027 36.6849 40.4931 36.4337 40.5822 36.2741C40.6395 36.1714 40.7136 36.1195 40.7871 36.1165L41.5276 36.0859C41.4541 36.089 41.3801 36.1409 41.3227 36.2436C41.2336 36.4032 41.2432 36.6544 41.3421 36.8156C41.5031 37.0754 41.5987 37.3706 41.6284 37.6208C41.658 37.871 41.6308 38.0598 41.5601 38.1864C41.5023 38.29 41.4082 38.3561 41.283 38.3613ZM41.3213 39.1985L40.5843 39.2266C40.5439 39.2306 40.4986 39.2276 40.4532 39.2245C40.4281 39.2194 40.4029 39.2144 40.3701 39.2139L41.1099 39.1743C41.14 39.1864 41.1651 39.1914 41.1979 39.192C41.2355 39.1995 41.2809 39.2026 41.3213 39.1985Z" fill="#C9CDE2"/>
<path d="M40.2753 40.1729L39.5348 40.2034C39.6576 40.1983 39.7482 40.1364 39.8054 40.0338C39.8761 39.9072 39.9033 39.7184 39.8737 39.4683C39.8441 39.218 39.7484 38.9228 39.5874 38.663C39.4885 38.5018 39.479 38.2507 39.5681 38.091C39.6249 37.9892 39.6981 37.9373 39.7705 37.9343L40.511 37.9038C40.4386 37.9068 40.3654 37.9587 40.3086 38.0604C40.2195 38.2201 40.229 38.4713 40.3279 38.6325C40.4889 38.8923 40.5846 39.1875 40.6142 39.4377C40.6438 39.6879 40.6166 39.8767 40.5459 40.0033C40.4887 40.1059 40.3981 40.1678 40.2753 40.1729Z" fill="#C9CDE2"/>
<path d="M51.1896 43.8507C51.5427 44.2162 51.8865 44.548 52.2246 44.8309C52.0794 45.0085 51.8949 45.1703 51.6846 45.2951C51.3244 44.9601 50.9384 44.588 50.5596 44.1855C49.6827 43.2293 48.7794 42.0926 47.9112 40.8437C46.7949 39.2584 45.0821 36.5504 44.1318 34.7359C44.1061 34.8819 44.0573 35.0153 43.9958 35.1303C43.9243 35.2511 43.8434 35.3384 43.7498 35.407C43.6089 35.5298 43.443 35.5761 43.2814 35.5674C43.265 35.5641 43.2385 35.5668 43.2221 35.5635C43.1992 35.5509 43.1728 35.5535 43.1399 35.5469C43.1463 35.5561 43.1363 35.5621 43.1427 35.5713C43.152 35.6051 43.1612 35.6387 43.1606 35.6784C43.2183 36.1277 43.1666 36.6026 42.9756 36.9382C42.7946 37.2679 42.5414 37.392 42.2776 37.3787C42.2676 37.3846 42.2512 37.3814 42.2512 37.3814C42.2348 37.378 42.2248 37.384 42.2083 37.3807C42.1854 37.3681 42.1589 37.3707 42.1261 37.3641C42.1325 37.3734 42.1225 37.3793 42.1289 37.3885C42.1382 37.4223 42.1475 37.4559 42.1468 37.4956C42.2045 37.9449 42.1529 38.4199 41.9619 38.7554C41.7844 39.0699 41.5377 39.2032 41.2803 39.1992C41.2539 39.2019 41.2274 39.2045 41.1945 39.1978C41.1716 39.1853 41.1452 39.1879 41.1123 39.1813C41.1188 39.1906 41.1088 39.1965 41.1152 39.2057C41.1245 39.2394 41.1337 39.2732 41.133 39.3128C41.1907 39.7621 41.1391 40.2371 40.9481 40.5727C40.9002 40.6664 40.8494 40.7358 40.7821 40.8018C41.9758 41.9491 43.788 44.2713 44.8621 45.8163C45.9012 47.2906 46.8486 48.8976 47.6174 50.5324C47.8274 50.9566 48.0174 51.3927 48.2011 51.8196C48.0601 51.9424 47.8964 52.0527 47.7133 52.1352C47.5204 51.6746 47.3111 51.2108 47.0753 50.7496C46.3566 49.2681 45.4828 47.7873 44.5273 46.4332C44.135 45.8689 43.6583 45.224 43.1552 44.5816C42.8715 44.2142 42.5713 43.8435 42.2676 43.488C41.4314 42.4682 40.5709 41.5153 39.8791 40.9066C39.7876 40.8564 39.6996 40.7909 39.6118 40.7255C39.5467 40.6726 39.4916 40.6138 39.4402 40.5398C39.4109 40.518 39.3816 40.4962 39.3558 40.4592C39.3494 40.4499 39.3365 40.4314 39.3402 40.4163C39.3144 40.3792 39.3051 40.3455 39.2894 40.3026C39.2422 40.1737 39.2416 40.0304 39.2903 39.8969C39.2939 39.8817 39.3075 39.8606 39.311 39.8454C39.3482 39.7972 39.3754 39.7549 39.4155 39.7311C39.4455 39.7133 39.4719 39.7107 39.4984 39.708C39.5413 39.7087 39.5806 39.7246 39.6328 39.7589C39.7043 39.8211 39.7758 39.8832 39.8473 39.9453C39.9187 40.0074 39.9902 40.0696 40.0617 40.1317C40.1174 40.1509 40.1568 40.1668 40.1997 40.1674C40.2261 40.1648 40.249 40.1774 40.259 40.1714C40.2855 40.1688 40.3119 40.1662 40.3219 40.1602C40.4277 40.1496 40.495 40.0836 40.5493 39.9991C40.6209 39.8782 40.641 39.6833 40.6124 39.4388C40.6039 39.3655 40.5853 39.2981 40.5768 39.2247C40.5703 39.2155 40.5703 39.2155 40.5639 39.2062C40.5489 39.1237 40.5175 39.0378 40.4861 38.9519C40.4518 38.8415 40.3911 38.7338 40.3303 38.6261C40.2274 38.4781 40.2189 38.2217 40.3076 38.0645C40.3556 37.9707 40.4192 37.9199 40.4822 37.9086C40.4921 37.9027 40.4986 37.912 40.5086 37.906C40.5715 37.8948 40.6237 37.9292 40.6852 37.9972C40.7302 38.062 40.7852 38.1208 40.8439 38.1644C40.9704 38.2854 41.1112 38.3456 41.2199 38.3595C41.2627 38.3602 41.3056 38.3608 41.3421 38.3522C41.4351 38.3232 41.5087 38.2664 41.5631 38.1818C41.6347 38.061 41.6612 37.8753 41.6262 37.6216C41.6241 37.5575 41.6056 37.4901 41.587 37.4228L41.5805 37.4135C41.5841 37.3983 41.5841 37.3983 41.5777 37.389C41.5591 37.3216 41.5406 37.2542 41.5155 37.1776C41.4934 37.1254 41.4813 37.0673 41.4491 37.021C41.4241 36.9444 41.3891 36.8737 41.3441 36.8089C41.2412 36.6609 41.2327 36.4045 41.3214 36.2473C41.3694 36.1535 41.433 36.1026 41.4959 36.0915C41.506 36.0855 41.5124 36.0948 41.5224 36.0888C41.5853 36.0776 41.6375 36.112 41.6989 36.18C41.7439 36.2448 41.799 36.3036 41.8576 36.3472C41.9841 36.4682 42.1249 36.5284 42.2336 36.5423C42.3032 36.549 42.355 36.53 42.407 36.5114C42.4141 36.5084 42.4224 36.508 42.4292 36.5046L42.4324 36.5027C42.4925 36.467 42.5461 36.4221 42.5769 36.3647C42.6484 36.2438 42.6749 36.0582 42.64 35.8044C42.6379 35.7403 42.6193 35.6729 42.6008 35.6055L42.6107 35.5996L42.585 35.5626C42.5701 35.48 42.5451 35.4034 42.5136 35.3175C42.4794 35.2071 42.4186 35.0994 42.3578 34.9917C42.255 34.8437 42.2465 34.5873 42.3352 34.4301C42.3932 34.3304 42.4568 34.2795 42.5197 34.2683L42.5362 34.2716C42.5955 34.2756 42.6577 34.304 42.7127 34.3628C42.7578 34.4276 42.8128 34.4864 42.8714 34.53C42.9979 34.651 43.1387 34.7112 43.2474 34.7251C43.3725 34.7423 43.4655 34.7132 43.5363 34.632C43.5599 34.6049 43.577 34.5686 43.5907 34.5475C43.6043 34.5263 43.6214 34.49 43.6322 34.4444C43.6529 34.3929 43.6608 34.3229 43.6623 34.2436C43.6702 34.1736 43.6652 34.085 43.6538 33.9872C43.6395 33.865 43.6088 33.7394 43.5652 33.5954C43.4888 33.4447 43.4224 33.2881 43.346 33.1375C43.3145 33.0516 43.2866 32.9505 43.2917 32.856C43.2924 32.8164 43.3031 32.7708 43.3139 32.7252C43.3246 32.6796 43.3254 32.64 43.3426 32.6036C43.3625 32.5918 43.3661 32.5766 43.3761 32.5706C43.4134 32.5224 43.4634 32.4927 43.5099 32.4781C43.5199 32.4722 43.5363 32.4755 43.5363 32.4755C43.6057 32.4736 43.6808 32.5205 43.7386 32.6038C43.838 32.767 43.9237 32.9514 43.993 33.1324C45.036 35.2839 46.9304 38.3546 48.2524 40.236C49.2336 41.627 50.234 42.8627 51.1896 43.8507Z" fill="#E3E5F0"/>
<path d="M44.5273 46.4332C45.4828 47.7873 46.3567 49.2681 47.0754 50.7496C47.3112 51.2107 47.5205 51.6746 47.7134 52.1352C47.4903 52.2415 47.2679 52.3081 47.0463 52.3352C46.8784 51.9513 46.7105 51.5673 46.5262 51.1802C45.7703 49.5639 44.8264 47.9417 43.7874 46.4673C42.5397 44.6726 40.5065 42.1548 39.1327 40.9315C38.9561 40.8402 38.7774 40.6849 38.6095 40.484C38.513 40.3452 38.4845 40.1008 38.5503 39.931C38.5639 39.9099 38.5611 39.8855 38.5747 39.8643C38.6254 39.795 38.6891 39.7441 38.7585 39.7421L39.4985 39.708C39.472 39.7106 39.4456 39.7132 39.4155 39.7311C39.3755 39.7548 39.3483 39.7972 39.3111 39.8454C39.3075 39.8606 39.2939 39.8817 39.2904 39.8969C39.2417 40.0304 39.2423 40.1737 39.2895 40.3025C39.3016 40.3607 39.3238 40.4129 39.3659 40.4532C39.3852 40.481 39.411 40.518 39.4402 40.5398C39.4917 40.6138 39.5468 40.6726 39.6118 40.7255C39.6997 40.7909 39.7877 40.8563 39.8791 40.9066C40.571 41.5153 41.4315 42.4682 42.2676 43.488C42.5714 43.8434 42.8715 44.2142 43.1553 44.5816C43.6583 45.2239 44.135 45.8689 44.5273 46.4332Z" fill="#C9CDE2"/>
<path d="M54.0182 31.1068C53.4477 35.2892 54.0834 39.5188 55.8735 43.3446C56.5589 44.3306 56.5599 45.7495 55.6748 47.333C54.2263 49.9608 50.8588 52.2676 47.5489 53.094C46.8353 53.2766 46.1298 53.3875 45.4425 53.4204C43.4385 53.4982 42.0019 52.8913 41.3377 51.8526C38.2792 48.7663 34.3257 46.5195 29.9491 45.2067C26.0437 44.0294 22.5357 41.652 20.1433 38.2107C14.238 29.7161 17.5144 18.2089 27.6109 13.6352C29.9915 12.5567 32.5322 11.9996 35.0634 11.93C41.0502 11.7646 47.0045 14.2837 50.6561 18.9733C53.5416 22.6442 54.5846 26.9804 54.0182 31.1068Z" fill="#029BC5"/>
<path d="M54.0183 31.109C53.4484 35.2901 54.0835 39.5205 55.8729 43.3448C56.5593 44.3321 56.5611 45.7498 55.6742 47.3343C54.2255 49.9593 50.8583 52.2659 47.5512 53.094C46.836 53.2781 46.1319 53.3882 45.4426 53.4222C43.4381 53.4963 42.0027 52.8911 41.3378 51.8525C38.2813 48.766 34.3262 46.5208 29.9519 45.2072C26.1116 44.048 22.6521 41.7297 20.2686 38.3833C20.6383 38.2264 20.9963 38.0523 21.34 37.8579C24.7853 35.9186 26.4681 32.058 26.8148 28.3413C26.9632 26.743 26.9488 25.0154 27.9677 23.718C29.2139 22.127 31.54 21.7369 33.5813 21.1842C35.6247 20.6349 37.8811 19.4109 37.9573 17.4467C38.0003 16.3631 37.3395 15.375 36.7997 14.4113C36.3587 13.6198 35.9854 12.7834 35.7473 11.9243C41.4971 11.9596 47.1445 14.4605 50.6569 18.9741C53.5412 22.6437 54.5826 26.9793 54.0183 31.109Z" fill="#029BC5"/>
<path d="M25.5272 18.9161C25.1277 19.1533 24.5943 19.0467 24.3362 18.6772L21.2046 14.2013C20.9456 13.8323 21.0604 13.3386 21.4605 13.0988L21.4623 13.0977C21.8619 12.8605 22.3953 12.9672 22.6534 13.3366L25.785 17.8126C26.044 18.1815 25.9292 18.6752 25.529 18.9151L25.5272 18.9161ZM34.1977 10.8482C34.1109 10.8998 34.0121 10.9376 33.9045 10.9575C33.4385 11.0468 32.9816 10.7676 32.8858 10.3364L31.4984 4.08505C31.4038 3.65552 31.7062 3.23547 32.1702 3.14505C32.6363 3.05575 33.0932 3.33498 33.1889 3.76615L34.5763 10.0175C34.65 10.3485 34.4883 10.6758 34.1977 10.8482ZM20.7846 33.0157C20.5569 33.1508 20.2645 33.1856 19.995 33.0842L15.9567 31.5796C15.5141 31.4145 15.3009 30.9513 15.4787 30.5427C15.6603 30.1343 16.1608 29.9343 16.6008 30.101L20.639 31.6057C21.0817 31.7708 21.2949 32.234 21.1171 32.6425C21.0476 32.8017 20.929 32.93 20.7846 33.0157ZM22.1023 47.6857C22.081 47.6983 22.0586 47.7093 22.0362 47.7203L18.1644 49.6C17.7421 49.8044 17.2208 49.6558 16.9991 49.2648C16.7775 48.8759 16.9566 48.3972 17.3614 48.1893L21.2333 46.3096C21.6556 46.1052 22.1768 46.2537 22.3986 46.6448C22.6082 47.013 22.4743 47.4648 22.1023 47.6857ZM44.4608 10.9776C44.3022 11.0717 44.1077 11.1178 43.9048 11.0995C43.4313 11.0521 43.0872 10.6597 43.1376 10.2227L43.8626 3.86688C43.913 3.42991 44.3344 3.11266 44.8103 3.1563C45.2838 3.20368 45.6279 3.59611 45.5775 4.03308L44.8525 10.3889C44.8239 10.6395 44.6734 10.8514 44.4608 10.9776Z" fill="#353266"/>
<path d="M56.4782 34.866C56.4011 34.866 56.3357 34.8117 56.3283 34.7394C56.1593 33.0254 56.1924 31.2867 56.426 29.5716C56.7633 27.1162 56.5105 24.5868 55.695 22.257C55.6692 22.1841 55.7126 22.1056 55.792 22.0819C55.872 22.0602 55.9565 22.0985 55.9815 22.1715C56.8103 24.54 57.0675 27.1112 56.7243 29.6066C56.4936 31.3013 56.4613 33.02 56.6281 34.7143C56.6354 34.7907 56.5745 34.8582 56.4922 34.8654C56.487 34.8657 56.4826 34.866 56.4782 34.866ZM55.2571 20.9185C55.199 20.9185 55.1432 20.8866 55.1189 20.834C54.584 19.6774 53.9022 18.5683 53.091 17.5374C53.0425 17.4752 53.0572 17.3883 53.1248 17.3432C53.1902 17.2977 53.2857 17.3116 53.335 17.3737C54.1586 18.4217 54.8522 19.5491 55.3952 20.7247C55.4283 20.7953 55.3922 20.8771 55.3158 20.9073C55.2967 20.9148 55.2769 20.9185 55.2571 20.9185Z" fill="#26ACC9"/>
<path d="M32.6658 49.762C32.6379 49.762 32.6092 49.7548 32.5842 49.7396C30.618 48.568 28.4542 47.624 26.1522 46.9335C26.0729 46.9097 26.0295 46.8313 26.0553 46.7583C26.081 46.685 26.1647 46.6456 26.2448 46.6687C28.5718 47.367 30.7591 48.3216 32.7473 49.506C32.8171 49.5474 32.837 49.6336 32.7922 49.6981C32.7635 49.7392 32.715 49.762 32.6658 49.762Z" fill="#26ACC9"/>
<path d="M37.5867 53.5864C37.5463 53.5864 37.5052 53.5711 37.4758 53.5413C36.5838 52.641 35.597 51.7964 34.5427 51.0305C34.4773 50.983 34.4663 50.8957 34.5177 50.8353C34.5677 50.7746 34.6625 50.7637 34.7293 50.8119C35.7954 51.5869 36.7947 52.442 37.6977 53.3532C37.7535 53.4099 37.7499 53.4978 37.6881 53.5497C37.6595 53.5742 37.6227 53.5864 37.5867 53.5864Z" fill="#26ACC9"/>
</g>
<defs>
<clipPath id="clip0_302_778">
<rect width="79" height="73" fill="white"/>
</clipPath>
</defs>
</svg>
