<svg width="69" height="69" viewBox="0 0 69 69" fill="none" xmlns="http://www.w3.org/2000/svg">
<g clip-path="url(#clip0_302_771)">
<path d="M51.1955 15.7183V1.9922C38.1293 1.9922 25.0631 1.9922 11.9969 1.9922C10.1651 0.625887 8.25529 0.547852 7.64059 0.547852C5.35154 0.547852 3.77713 1.62666 3.28564 1.9922V64.1182C3.77713 64.4851 5.35154 65.5626 7.64059 65.5626C8.25529 65.5626 10.1651 65.4859 11.9969 64.1182C22.3893 64.1182 33.5498 64.1182 43.8122 64.1182L43.8231 64.1264C47.0008 66.381 49.3478 65.8239 51.1955 63.5774V46.6108V46.6095V41.7425V24.3871C54.1359 21.3707 54.4211 18.4687 51.1955 15.7183Z" fill="#26ACC9"/>
<path d="M61.3591 15.7183C60.3912 17.1626 59.4233 18.607 58.4554 20.0527C59.4233 21.497 60.3912 22.9414 61.3591 24.3871C57.9707 24.3871 54.5837 24.3871 51.1953 24.3871V15.7183H61.3591Z" fill="#26ACC9"/>
<path d="M43.2115 11.3838H18.5303V21.4969H43.2115V11.3838Z" fill="#E7E9F2"/>
<path d="M65.7141 54.6772C65.2842 58.2559 64.853 61.8359 64.4231 65.4146C63.5127 64.5069 62.6023 63.5979 61.6918 62.6888C59.2618 66.1758 55.219 68.4525 50.697 68.4525C47.7467 68.4525 44.947 67.5106 42.6018 65.7309L43.823 64.1263L45.548 61.8619C47.0389 62.9941 48.8201 63.5924 50.697 63.5924C50.864 63.5924 51.0311 63.5869 51.1954 63.5774C54.1826 63.4035 56.7865 61.6716 58.1665 59.169C57.0959 58.1012 56.0267 57.0333 54.9561 55.9654C58.543 55.5356 62.1286 55.1057 65.7141 54.6772ZM58.6074 44.4463L55.6612 48.3138C54.3524 47.3213 52.819 46.7381 51.1954 46.6094C50.9695 46.5929 50.7408 46.5834 50.5122 46.5834C47.3182 46.5834 44.4993 48.3659 43.0427 51.0081C44.1133 52.076 45.1825 53.1438 46.2517 54.2117C42.6662 54.6402 39.0807 55.0701 35.4951 55.5C35.925 51.9199 36.3562 48.3412 36.7861 44.7612C37.6965 45.6702 38.607 46.5793 39.5174 47.4869C41.9474 44 45.9902 41.7246 50.5122 41.7246C50.7408 41.7246 50.9695 41.7301 51.1954 41.7424C53.8937 41.8752 56.4443 42.8034 58.6074 44.4463Z" fill="#2F2E41"/>
<path d="M47.4895 56.7824C43.904 57.2109 40.3184 57.6408 36.7329 58.0707C36.8438 57.1507 36.9533 56.2321 37.0642 55.3121C39.7284 54.9917 42.3926 54.6727 45.0567 54.3537C45.8686 55.1628 46.679 55.9733 47.4895 56.7824ZM51.1955 46.6104V49.1732C48.5697 49.343 46.2451 50.7175 44.7966 52.7588C44.212 52.1756 43.6274 51.591 43.0429 51.0078C44.4995 48.3655 47.3184 46.583 50.5124 46.583C50.741 46.583 50.9696 46.5926 51.1955 46.609V46.6104Z" fill="#26ACC9"/>
<path d="M12.5445 6.32678V59.7837C12.5445 60.0861 12.2993 60.3313 11.9969 60.3313C11.6945 60.3313 11.4493 60.0861 11.4493 59.7837V6.32678C11.4493 6.02436 11.6945 5.77916 11.9969 5.77916C12.2993 5.77916 12.5445 6.02436 12.5445 6.32678ZM43.2112 22.0445H18.5301C18.2277 22.0445 17.9825 21.7993 17.9825 21.4969V11.3835C17.9825 11.0811 18.2277 10.8359 18.5301 10.8359H43.2112C43.5136 10.8359 43.7588 11.0811 43.7588 11.3835V21.4971C43.7588 21.7993 43.5136 22.0445 43.2112 22.0445ZM42.6635 11.9311H19.0777V20.9494H42.6635V11.9311ZM42.166 65.3984L42.7242 64.6656H12.1751C10.4097 65.9194 8.58631 66.1104 7.64139 66.1104C5.37822 66.1104 3.73604 65.1371 2.95842 64.5569C2.81988 64.4537 2.73828 64.291 2.73828 64.1181V1.99238C2.73828 1.8196 2.81988 1.65682 2.95829 1.55346C3.73577 0.973393 5.37794 0 7.64125 0C8.58617 0 10.4097 0.190982 12.175 1.44476H51.196C51.4984 1.44476 51.7436 1.68995 51.7436 1.99238V15.1701H61.3588C61.5611 15.1701 61.7467 15.2814 61.842 15.46C61.9371 15.6384 61.9263 15.8547 61.8138 16.0227L59.1142 20.0522L61.8138 24.0817C61.9263 24.2497 61.9371 24.466 61.842 24.6444C61.7468 24.8228 61.5609 24.9342 61.3588 24.9342H51.7436V41.2309C54.3592 41.4576 56.8259 42.406 58.9392 44.0098C59.0552 44.0978 59.1311 44.2282 59.1509 44.3721C59.1704 44.5162 59.1318 44.6622 59.0439 44.7779L56.0975 48.6464C55.9147 48.8868 55.5713 48.9336 55.3308 48.7508C54.2658 47.9425 53.0433 47.426 51.7438 47.226V62.9758C54.1 62.6628 56.2125 61.305 57.4802 59.2579L54.5702 56.3527C54.4217 56.2045 54.371 55.9846 54.4395 55.7862C54.508 55.588 54.6836 55.4464 54.892 55.4214L65.6493 54.1328C65.8162 54.1138 65.9829 54.1706 66.1018 54.2895C66.2205 54.4083 66.2782 54.5752 66.2583 54.7421L64.9674 65.4806C64.9423 65.6887 64.8008 65.8642 64.6028 65.9328C64.4048 66.0012 64.185 65.9507 64.0367 65.8029L61.7577 63.5276C59.1172 66.966 55.03 69 50.6975 69C47.6268 69 44.7129 68.0202 42.2706 66.1666C42.1547 66.0786 42.0787 65.9483 42.059 65.8044C42.0394 65.6601 42.078 65.5141 42.166 65.3984ZM50.6975 64.1403C48.8837 64.1403 47.1542 63.615 45.6624 62.6159L43.3767 65.6167C45.5323 67.1155 48.0516 67.9048 50.6975 67.9048C54.8883 67.9048 58.8308 65.8379 61.2436 62.3759C61.3361 62.2429 61.4829 62.1579 61.6443 62.1435C61.8047 62.1288 61.9651 62.1869 62.0798 62.3014L64.0144 64.2326L65.0877 55.303L56.1426 56.3744L58.5534 58.781C58.726 58.9534 58.7638 59.2193 58.6461 59.433C57.0458 62.3366 54.0002 64.1403 50.6975 64.1403ZM57.8334 44.5596C55.6777 43.0608 53.1584 42.2715 50.5124 42.2715C46.3216 42.2715 42.3792 44.3384 39.9664 47.8004C39.8738 47.9334 39.7271 48.0184 39.5657 48.0328C39.4045 48.047 39.245 47.9894 39.1302 47.8749L37.1957 45.9439L36.1222 54.8735L45.0673 53.8019L42.6622 51.4009C42.4895 51.2284 42.4461 50.9571 42.5639 50.7433C44.164 47.8399 47.2097 46.0361 50.5124 46.0361C52.3263 46.0361 54.0559 46.5616 55.5477 47.5607L57.8334 44.5596ZM51.7438 16.2655V23.839H60.333L58.0003 20.3571C57.8768 20.1726 57.8768 19.9318 58.0003 19.7474L60.333 16.2655H51.7438ZM43.5585 63.5705L45.1126 61.5302C45.2955 61.2899 45.6388 61.2433 45.8793 61.4257C47.2622 62.4753 48.9105 63.0338 50.6487 63.0441V47.134C50.6032 47.1333 50.558 47.1312 50.5126 47.1312C47.7452 47.1312 45.1827 48.5723 43.7298 50.9186L46.6398 53.8237C46.7882 53.972 46.839 54.1918 46.7704 54.3902C46.702 54.5884 46.5263 54.73 46.3179 54.7551L35.5607 56.0438C35.5389 56.0464 35.5173 56.0476 35.4955 56.0476C35.3511 56.0476 35.2115 55.9905 35.1082 55.8871C34.9893 55.7683 34.9317 55.6014 34.9517 55.4345L36.2427 44.6958C36.2678 44.4878 36.4093 44.3122 36.6073 44.2437C36.8055 44.1752 37.0253 44.2257 37.1734 44.3736L39.4523 46.6487C42.0928 43.2103 46.1799 41.1762 50.5124 41.1762C50.558 41.1762 50.6031 41.1785 50.6485 41.1789V2.53999H11.9969C11.8789 2.53999 11.764 2.5018 11.6693 2.43129C10.1118 1.26883 8.47719 1.09524 7.64125 1.09524C5.88695 1.09524 4.56664 1.77483 3.83352 2.2744V63.8361C4.56678 64.3355 5.88709 65.0151 7.64125 65.0151C8.47706 65.0151 10.1118 64.8415 11.6693 63.6791C11.7639 63.6084 11.8787 63.5704 11.9969 63.5704L43.5585 63.5705Z" fill="#2F2E41"/>
</g>
<defs>
<clipPath id="clip0_302_771">
<rect width="69" height="69" fill="white"/>
</clipPath>
</defs>
</svg>
