<svg width="25" height="25" viewBox="0 0 25 25" fill="none" xmlns="http://www.w3.org/2000/svg">
<path d="M20.4968 5.4907L19.0745 4.09305L17.3003 5.9086L18.7226 7.30624L20.4968 5.4907ZM13.013 1.64582L11.0131 1.66327L11.0388 4.61316L13.0387 4.59571L13.013 1.64582ZM20.1169 13.5343L23.1168 13.5082L23.0994 11.5082L20.0995 11.5344L20.1169 13.5343ZM9.15389 17.8201L9.19584 22.6299L15.1956 22.5776L15.1537 17.7678C16.9345 16.7122 18.1276 14.7717 18.1083 12.5518C18.0794 9.24193 15.3661 6.57549 12.0562 6.60436C8.74631 6.63323 6.07987 9.34659 6.10874 12.6565C6.1281 14.8764 7.35489 16.7957 9.15389 17.8201ZM4.11754 13.6739L4.1001 11.6739L1.10021 11.7001L1.11765 13.7L4.11754 13.6739ZM6.81063 5.99009L5.005 4.20577L3.60735 5.62801L5.42289 7.40224L6.81063 5.99009Z" fill="black"/>
</svg>
