<svg width="76" height="71" viewBox="0 0 76 71" fill="none" xmlns="http://www.w3.org/2000/svg">
<g clip-path="url(#clip0_302_759)">
<path d="M62.9774 33.3496C64.2415 33.6177 65.5538 33.6177 66.8179 33.3496C70.5149 32.529 72.1676 29.5139 72.5787 29.7674C73.1573 30.1239 70.9424 36.7425 64.8977 42.3053C61.8817 45.0808 58.7244 46.8561 59.1369 47.6786C59.4553 48.3137 61.8827 47.876 62.9774 47.6786C66.7824 46.9926 68.3656 45.5776 68.7382 45.8875C69.7421 46.7223 63.733 61.55 49.5355 67.381C42.6542 70.0066 35.0659 70.5548 27.8343 68.9488C20.6027 67.3428 14.0903 63.6631 9.20989 58.4254C-3.44387 44.4519 0.374104 23.0264 13.0505 11.8561C19.9318 6.13854 28.8049 2.95532 38.0139 2.90051C37.0039 4.55709 36.3515 6.38268 36.0937 8.27387C35.9343 9.46332 35.9343 10.6667 36.0937 11.8561C39.8862 8.83128 44.5748 6.95703 49.5355 6.48277C54.1096 6.15042 56.6003 7.43936 61.0571 6.48277C64.7503 5.60527 68.0879 3.73739 70.6585 1.10938C70.6143 6.53019 69.9708 11.9322 68.7382 17.2295C67.446 22.7813 65.5145 28.1861 62.9774 33.3496Z" fill="white"/>
<path d="M66.8179 33.3496C66.5645 33.4058 66.3201 33.4336 66.0747 33.4651C67.1126 33.6094 68.1704 33.5702 69.1929 33.3496C70.2596 33.1041 71.2626 32.6609 72.1423 32.0462C72.6387 30.7535 72.7765 29.8892 72.5787 29.7673C72.1676 29.5139 70.5149 32.529 66.8179 33.3496ZM63.4321 6.48277C66.0522 5.89532 68.4985 4.76792 70.592 3.18309C70.6169 2.48471 70.6531 1.76211 70.6585 1.10938C68.0878 3.73734 64.7502 5.60521 61.0571 6.48277C60.2913 6.64439 59.5127 6.74801 58.729 6.79261C60.3044 6.91639 61.8908 6.81187 63.4321 6.48277ZM68.7381 45.8875C68.3654 45.5775 66.7823 46.9925 62.9773 47.6786C62.6571 47.7363 62.2201 47.813 61.7579 47.8789C62.9578 48.0496 64.1827 47.9813 65.3523 47.6786C66.5327 47.4695 67.6861 47.1449 68.7937 46.7101C68.8645 46.2815 68.8532 45.9831 68.7381 45.8875ZM38.4686 11.856C42.2611 8.83118 46.9497 6.95696 51.9105 6.48279C52.0669 6.47141 52.2035 6.47507 52.3552 6.46726C51.416 6.41223 50.4739 6.41742 49.5355 6.48279C45.515 6.83846 41.6628 8.16567 38.3577 10.3339C38.3668 10.8427 38.4038 11.3508 38.4686 11.856ZM11.5849 58.4254C-1.06891 44.4519 2.74912 23.0263 15.4255 11.856C21.6473 6.61553 29.5869 3.50018 37.9483 3.01856C37.9694 2.98306 37.9932 2.93474 38.0139 2.90048C28.8049 2.95527 19.9318 6.13846 13.0505 11.856C0.374141 23.0263 -3.44391 44.4519 9.20992 58.4254C12.7185 62.181 17.0819 65.1559 21.9804 67.1323C26.8789 69.1087 32.1886 70.0366 37.5206 69.8479C32.5867 69.7248 27.7339 68.646 23.2695 66.6797C18.805 64.7135 14.8262 61.9028 11.5849 58.4254Z" fill="white"/>
<path d="M31.8584 61.5879C44.3193 61.5879 54.4209 52.1509 54.4209 40.5098C54.4209 28.8686 44.3193 19.4316 31.8584 19.4316C19.3975 19.4316 9.2959 28.8686 9.2959 40.5098C9.2959 52.1509 19.3975 61.5879 31.8584 61.5879Z" fill="white"/>
<path d="M49.6612 40.5146C49.6612 40.8854 49.6374 41.2558 49.5899 41.624C49.3615 45.2628 47.8309 48.7244 45.2437 51.453C44.7426 52.0321 44.1774 52.5602 43.5574 53.0283C40.6367 55.4453 36.9313 56.8752 33.0362 57.0886C32.2474 57.1775 31.45 57.1775 30.6612 57.0886C26.765 56.8795 23.0582 55.449 20.14 53.0283C19.5373 52.5505 18.9736 52.0314 18.4537 51.4752C15.8715 48.735 14.342 45.2681 14.1075 41.624C14.0124 40.887 14.0124 40.1421 14.1075 39.4052C14.3419 35.761 15.8715 32.2941 18.4537 29.554C18.9737 28.9978 19.5373 28.4786 20.14 28.0008C23.0583 25.5802 26.7651 24.1497 30.6612 23.9405C31.45 23.8519 32.2474 23.8519 33.0362 23.9405C36.9313 24.154 40.6367 25.5839 43.5574 28.0008L45.2437 29.5761C47.8308 32.3047 49.3615 35.7663 49.5899 39.4052C49.6374 39.7733 49.6612 40.1438 49.6612 40.5146Z" fill="#029BC5"/>
<path d="M20.8287 51.4752C18.2465 48.735 16.717 45.2681 16.4825 41.624C16.3874 40.887 16.3874 40.1421 16.4825 39.4052C16.7169 35.761 18.2465 32.2941 20.8287 29.554C21.3487 28.9978 21.9123 28.4786 22.515 28.0008C25.4333 25.5802 29.1401 24.1497 33.0362 23.9405C32.2474 23.8519 31.45 23.8519 30.6612 23.9405C26.7651 24.1497 23.0583 25.5802 20.14 28.0008C19.5373 28.4786 18.9737 28.9978 18.4537 29.554C15.8715 32.2941 14.3419 35.761 14.1075 39.4052C14.0124 40.1421 14.0124 40.887 14.1075 41.624C14.342 45.2681 15.8715 48.735 18.4537 51.4752C18.9736 52.0314 19.5373 52.5505 20.14 53.0283C23.0582 55.449 26.765 56.8795 30.6612 57.0886C31.45 57.1775 32.2474 57.1775 33.0362 57.0886C29.14 56.8795 25.4332 55.449 22.515 53.0283C21.9123 52.5505 21.3486 52.0314 20.8287 51.4752Z" fill="#029BC5"/>
<path d="M33.0362 21.7218V26.0927C33.0353 26.3867 32.9099 26.6683 32.6874 26.8762C32.4649 27.0841 32.1634 27.2012 31.8487 27.2021C31.5353 27.1974 31.2361 27.079 31.0145 26.872C30.7929 26.665 30.6662 26.3855 30.6612 26.0927V21.7218C31.45 21.6331 32.2474 21.6331 33.0362 21.7218ZM31.8583 40.5097C31.7024 40.5098 31.5479 40.4812 31.4038 40.4254C31.2597 40.3697 31.1287 40.288 31.0185 40.185C30.9082 40.0819 30.8207 39.9596 30.7611 39.825C30.7014 39.6903 30.6708 39.546 30.6708 39.4003V33.8535C30.6708 33.5592 30.796 33.2771 31.0187 33.069C31.2414 32.861 31.5434 32.7441 31.8583 32.7441C32.1733 32.7441 32.4753 32.861 32.698 33.069C32.9207 33.2771 33.0458 33.5592 33.0458 33.8535V39.4003C33.0459 39.546 33.0153 39.6903 32.9556 39.825C32.896 39.9596 32.8085 40.0819 32.6982 40.185C32.5879 40.288 32.457 40.3697 32.3129 40.4254C32.1688 40.4812 32.0143 40.5098 31.8583 40.5097ZM33.0362 54.9364V59.3074C32.2474 59.3962 31.45 59.3962 30.6612 59.3074V54.9364C30.6621 54.6425 30.7875 54.3608 31.01 54.1529C31.2325 53.9451 31.534 53.8279 31.8487 53.8271C32.0051 53.8256 32.1602 53.8533 32.305 53.9086C32.4497 53.9638 32.5813 54.0455 32.6918 54.1488C32.8024 54.2521 32.8898 54.3749 32.949 54.5102C33.0081 54.6454 33.0377 54.7904 33.0362 54.9364ZM52.0362 40.5146C52.0362 40.8854 52.0124 41.2558 51.9649 41.6239H47.2862C46.9728 41.6193 46.6736 41.5009 46.452 41.2939C46.2304 41.0868 46.1037 40.8073 46.0987 40.5146C46.0996 40.2206 46.225 39.9389 46.4475 39.7311C46.67 39.5232 46.9715 39.4061 47.2862 39.4052H51.9649C52.0124 39.7733 52.0362 40.1438 52.0362 40.5146ZM25.9208 47.166C25.686 47.1659 25.4564 47.1009 25.2612 46.9789C25.0659 46.857 24.9138 46.6838 24.8239 46.4811C24.734 46.2784 24.7105 46.0554 24.7563 45.8402C24.8021 45.625 24.9152 45.4274 25.0812 45.2722L29.3314 41.3007C29.5548 41.0961 29.8557 40.9822 30.1685 40.9837C30.4813 40.9851 30.7809 41.1019 31.0021 41.3085C31.2233 41.5152 31.3483 41.7951 31.3499 42.0873C31.3514 42.3796 31.2295 42.6606 31.0105 42.8693L26.7604 46.8409C26.6502 46.9441 26.5194 47.0259 26.3753 47.0817C26.2313 47.1375 26.0768 47.1661 25.9208 47.166ZM17.5987 40.5146C17.5978 40.8085 17.4724 41.0902 17.2499 41.2981C17.0274 41.5059 16.7259 41.6231 16.4112 41.6239H11.7325C11.6374 40.887 11.6374 40.1421 11.7325 39.4052H16.4112C16.5676 39.4037 16.7227 39.4315 16.8675 39.4867C17.0122 39.5419 17.1438 39.6236 17.2544 39.7269C17.3649 39.8302 17.4523 39.9531 17.5115 40.0883C17.5706 40.2236 17.6003 40.3685 17.5987 40.5146ZM47.6187 27.3574L43.6049 31.1071C43.4942 31.2091 43.3631 31.2897 43.219 31.3443C43.075 31.3989 42.9208 31.4265 42.7653 31.4255C42.6098 31.4245 42.4561 31.3948 42.3129 31.3383C42.1696 31.2818 42.0397 31.1994 41.9306 31.096C41.8214 30.9925 41.7351 30.87 41.6766 30.7354C41.6182 30.6009 41.5886 30.4568 41.5897 30.3116C41.5908 30.1663 41.6226 30.0227 41.6831 29.8889C41.7436 29.7551 41.8317 29.6337 41.9424 29.5318L45.9324 25.7821L47.6187 27.3574ZM21.7787 51.4974L17.765 55.2471C17.1623 54.7693 16.5986 54.2501 16.0787 53.6939L20.0925 49.9221C20.3194 49.7191 20.6214 49.6058 20.9356 49.6058C21.2497 49.6058 21.5518 49.7191 21.7787 49.9221C21.8915 50.0244 21.9811 50.1469 22.0423 50.2822C22.1035 50.4175 22.135 50.5628 22.135 50.7097C22.135 50.8566 22.1035 51.002 22.0423 51.1373C21.9811 51.2726 21.8915 51.395 21.7787 51.4974ZM47.6187 53.6718C47.1176 54.2509 46.5524 54.7789 45.9324 55.2471L41.9424 51.4974C41.8297 51.395 41.7401 51.2725 41.6789 51.1373C41.6178 51.002 41.5862 50.8566 41.5862 50.7097C41.5862 50.5629 41.6178 50.4175 41.6789 50.2822C41.7401 50.1469 41.8297 50.0244 41.9424 49.9221C42.1647 49.7194 42.4631 49.6059 42.7737 49.6059C43.0843 49.6059 43.3827 49.7194 43.6049 49.9221L47.6187 53.6718ZM21.7787 31.1071C21.5533 31.3045 21.2565 31.4154 20.9475 31.4177C20.6313 31.4157 20.327 31.3051 20.0925 31.1071L16.0787 27.3352C16.5987 26.779 17.1623 26.2599 17.765 25.7821L21.7787 29.5318C21.8915 29.6341 21.9811 29.7566 22.0423 29.8919C22.1035 30.0272 22.135 30.1725 22.135 30.3194C22.135 30.4663 22.1035 30.6117 22.0423 30.747C21.9811 30.8823 21.8915 31.0047 21.7787 31.1071Z" fill="#2F2E41"/>
<path d="M31.8584 42.7285C33.1701 42.7285 34.2334 41.7351 34.2334 40.5098C34.2334 39.2844 33.1701 38.291 31.8584 38.291C30.5467 38.291 29.4834 39.2844 29.4834 40.5098C29.4834 41.7351 30.5467 42.7285 31.8584 42.7285Z" fill="white"/>
<path d="M31.8486 19.436C27.3862 19.436 23.024 20.6722 19.3136 22.9883C15.6032 25.3044 12.7113 28.5964 11.0036 32.4479C9.29591 36.2994 8.8491 40.5375 9.71968 44.6263C10.5903 48.7151 12.7391 52.4708 15.8945 55.4187C19.05 58.3665 23.0702 60.374 27.4469 61.1873C31.8236 62.0006 36.3602 61.5832 40.4829 59.9878C44.6057 58.3925 48.1295 55.6908 50.6087 52.2245C53.0879 48.7583 54.4111 44.683 54.4111 40.5142C54.4098 34.9243 52.0322 29.5637 47.8012 25.6111C43.5702 21.6585 37.8322 19.4373 31.8486 19.436ZM45.2436 51.4526C44.7425 52.0317 44.1773 52.5598 43.5574 53.0279C40.6366 55.4449 36.9313 56.8748 33.0361 57.0882C32.2473 57.1771 31.45 57.1771 30.6611 57.0882C26.765 56.8791 23.0582 55.4486 20.1399 53.0279C19.5372 52.5501 18.9736 52.031 18.4536 51.4748C15.8715 48.7346 14.3419 45.2677 14.1074 41.6235C14.0123 40.8866 14.0123 40.1417 14.1074 39.4048C14.3419 35.7606 15.8714 32.2937 18.4536 29.5535C18.9736 28.9974 19.5372 28.4782 20.1399 28.0004C23.0582 25.5798 26.765 24.1493 30.6611 23.9401C31.45 23.8514 32.2473 23.8514 33.0361 23.9401C36.9312 24.1536 40.6366 25.5835 43.5574 28.0004L45.2436 29.5757C47.8308 32.3043 49.3614 35.7659 49.5899 39.4048C49.6848 40.1417 49.6848 40.8866 49.5899 41.6235C49.3615 45.2624 47.8308 48.724 45.2436 51.4526Z" fill="#767FAD"/>
<path d="M11.6611 40.5142C11.6652 35.1195 13.8846 29.932 17.8616 26.0207C21.8387 22.1095 27.2704 19.7727 33.0371 19.492C32.6411 19.4728 32.2498 19.436 31.8486 19.436C25.8647 19.436 20.1258 21.6568 15.8945 25.6097C11.6632 29.5626 9.28613 34.9239 9.28613 40.5142C9.28613 46.1044 11.6632 51.4657 15.8945 55.4186C20.1258 59.3716 25.8647 61.5923 31.8486 61.5923C32.2499 61.5923 32.6411 61.5555 33.0372 61.5361C27.2719 61.2518 21.8425 58.9139 17.8662 55.0035C13.89 51.0931 11.6693 45.9077 11.6611 40.5142Z" fill="#56565D"/>
</g>
<defs>
<clipPath id="clip0_302_759">
<rect width="76" height="71" fill="white"/>
</clipPath>
</defs>
</svg>
