<svg width="497" height="391" viewBox="0 0 497 391" fill="none" xmlns="http://www.w3.org/2000/svg">
<g clip-path="url(#clip0_17_4435)">
<path d="M174.251 351.273L174.407 350.562C174.442 350.406 177.962 334.859 188.587 326.418C199.214 317.975 213.174 319.635 213.313 319.653L213.949 319.733L213.793 320.443C213.759 320.599 210.238 336.146 199.613 344.588C188.987 353.03 175.027 351.371 174.887 351.353L174.251 351.273ZM189.224 327.467C180.24 334.605 176.498 347.014 175.673 350.143C178.523 350.349 190 350.669 198.976 343.538C207.95 336.408 211.7 323.993 212.527 320.863C209.675 320.656 198.199 320.337 189.224 327.467Z" fill="#F1F1F1"/>
<path d="M193.082 331.24C187.723 344.638 175.098 351.161 175.098 351.161C175.098 351.161 171.161 335.963 176.52 322.565C181.879 309.168 194.505 302.645 194.505 302.645C194.505 302.645 198.442 317.843 193.082 331.24Z" fill="#F1F1F1"/>
<path d="M57.0415 346.428C51.2626 326.092 50.7896 302.98 60.556 284.113C64.7077 276.092 70.5429 269.166 77.6997 264.639C85.955 259.416 95.4847 257.708 104.808 257.473C125.08 256.961 145.214 262.564 165.487 259.668C174.584 258.368 183.657 255.452 191.454 249.798C198.195 244.91 204.047 238.069 207.5 229.772C210.865 221.855 211.626 212.816 209.645 204.309C207.729 196.263 203.219 188.74 196.625 184.888C190.633 181.388 183.278 181.295 177.087 184.19C170.426 187.304 165.631 193.746 164.611 201.99C163.338 212.275 167.385 222.45 171.89 231.059C176.226 239.345 181.483 247.122 187.871 253.474C194.058 259.627 201.354 264.477 209.378 266.632C216.992 268.676 225.203 268.495 232.603 265.476C240.239 262.351 246.603 256.122 250.484 247.975C254.816 239.009 256.329 228.649 256.18 218.5C256.004 206.513 253.794 194.647 251.82 182.918C249.819 171.022 247.668 159.16 245.367 147.333C244.246 141.569 243.09 135.813 241.898 130.067C241.649 128.867 240.034 129.375 240.283 130.576C245.022 153.448 249.453 176.502 252.815 199.697C254.411 210.707 255.411 222.127 253.41 233.159C251.722 242.462 247.935 251.482 241.458 257.637C229.098 269.382 210.663 267.895 197.434 259.032C190.3 254.252 184.248 247.556 179.237 240.075C174.057 232.342 169.233 223.497 167.046 214.004C165.918 209.102 165.596 203.869 166.9 198.967C167.906 195.196 169.881 191.858 172.566 189.388C177.597 184.718 184.708 183.041 190.995 184.615C198.078 186.388 203.557 192.487 206.498 199.906C209.551 207.745 209.907 216.613 207.495 224.739C204.959 233.316 199.7 240.647 193.377 245.978C186.18 252.047 177.602 255.489 168.843 257.185C149.191 260.991 129.45 256.014 109.761 255.557C100.789 255.349 91.5927 256.139 83.1128 259.727C75.5583 262.948 68.8864 268.405 63.7789 275.542C52.5747 291.095 49.4732 311.734 52.1253 331.299C52.8582 336.605 53.962 341.834 55.4263 346.938C55.7582 348.106 57.3762 347.606 57.0415 346.428Z" fill="#E5E5E5"/>
<path d="M60.9204 341.803H50.3115V351.387H60.9204V341.803Z" fill="#029BC5"/>
<path d="M241.199 130.301H430.421C466.266 130.301 495.324 106.923 495.324 65.906C495.324 24.889 466.266 7.79297 430.421 7.79297H371.007C299.316 7.79297 241.199 48.2674 241.199 130.301Z" fill="white"/>
<path d="M430.421 132.218H239.524V130.301C239.524 91.0519 252.901 58.7048 278.207 36.757C301.501 16.5549 333.591 5.87646 371.007 5.87646H430.421C449.613 5.87646 465.815 10.7248 477.275 19.8977C490.363 30.3737 497 45.8531 497 65.9061C497 86.0105 490.213 102.976 477.374 114.97C465.467 126.093 448.792 132.218 430.421 132.218ZM242.885 128.385H430.421C468.24 128.385 493.65 103.277 493.65 65.9061C493.65 15.1857 449.432 9.70997 430.421 9.70997H371.007C309.51 9.70997 243.828 40.9302 242.885 128.385Z" fill="#E5E5E5"/>
<path d="M350.189 46.0776H327.839V52.2344H350.189V46.0776Z" fill="#029BC5"/>
<path d="M427.585 46.0776H419.721V52.2344H427.585V46.0776Z" fill="#029BC5"/>
<path d="M443.312 46.0776H435.448V52.2344H443.312V46.0776Z" fill="#029BC5"/>
<path d="M411.443 46.0776H358.052V52.2344H411.443V46.0776Z" fill="#029BC5"/>
<path d="M322.044 85.8599H299.694V92.0166H322.044V85.8599Z" fill="#029BC5"/>
<path d="M399.44 85.8599H391.576V92.0166H399.44V85.8599Z" fill="#029BC5"/>
<path d="M415.168 85.8599H407.305V92.0166H415.168V85.8599Z" fill="#029BC5"/>
<path d="M383.299 85.8599H329.908V92.0166H383.299V85.8599Z" fill="#029BC5"/>
<path d="M414.34 59.812H391.99V65.9688H414.34V59.812Z" fill="#029BC5"/>
<path d="M444.554 59.812H422.204V65.9688H444.554V59.812Z" fill="#029BC5"/>
<path d="M460.282 59.812H452.418V65.9688H460.282V59.812Z" fill="#029BC5"/>
<path d="M323.286 59.812H315.422V65.9688H323.286V59.812Z" fill="#029BC5"/>
<path d="M384.541 59.812H331.149V65.9688H384.541V59.812Z" fill="#029BC5"/>
<path d="M367.985 73.0728H345.636V79.2295H367.985V73.0728Z" fill="#029BC5"/>
<path d="M337.772 73.0728H315.422V79.2295H337.772V73.0728Z" fill="#029BC5"/>
<path d="M460.282 73.0728H452.418V79.2295H460.282V73.0728Z" fill="#029BC5"/>
<path d="M444.554 73.0728H436.69V79.2295H444.554V73.0728Z" fill="#029BC5"/>
<path d="M428.827 73.0728H375.436V79.2295H428.827V73.0728Z" fill="#029BC5"/>
<path d="M213.294 352.026H0.55836C0.410274 352.026 0.268252 351.959 0.16354 351.839C0.0588267 351.719 0 351.556 0 351.387C0 351.218 0.0588267 351.055 0.16354 350.935C0.268252 350.815 0.410274 350.748 0.55836 350.748H213.294C213.442 350.748 213.584 350.815 213.688 350.935C213.793 351.055 213.852 351.218 213.852 351.387C213.852 351.556 213.793 351.719 213.688 351.839C213.584 351.959 213.442 352.026 213.294 352.026Z" fill="#CBCBCB"/>
<path d="M128.981 391H63.6531C63.505 391 63.363 390.933 63.2583 390.813C63.1536 390.693 63.0947 390.531 63.0947 390.361C63.0947 390.192 63.1536 390.029 63.2583 389.909C63.363 389.789 63.505 389.722 63.6531 389.722H128.981C129.129 389.722 129.271 389.789 129.376 389.909C129.481 390.029 129.54 390.192 129.54 390.361C129.54 390.531 129.481 390.693 129.376 390.813C129.271 390.933 129.129 391 128.981 391Z" fill="#CBCBCB"/>
<g clip-path="url(#clip1_17_4435)">
<path d="M467.246 389.139H206.081C200.82 389.133 195.775 387.168 192.055 383.674C188.334 380.181 186.241 375.444 186.235 370.503V324.871C186.241 319.931 188.334 315.194 192.055 311.7C195.775 308.207 200.82 306.241 206.081 306.236L467.246 261.101C472.507 261.106 477.552 263.071 481.272 266.565C484.993 270.059 487.085 274.796 487.091 279.736V370.503C487.085 375.444 484.993 380.181 481.272 383.674C477.552 387.168 472.507 389.133 467.246 389.139Z" fill="#3F3D56"/>
<path d="M210.729 314.72H209.872V387.06H210.729V314.72Z" fill="#2F2E41"/>
<path d="M191.444 317.435H190.587V348.426H191.444V317.435Z" fill="#2F2E41"/>
<path d="M203.006 306.236H202.148V378.576H203.006V306.236Z" fill="#2F2E41"/>
<path d="M430.573 305.632H266.446C265.349 305.631 264.297 305.221 263.521 304.492C262.744 303.763 262.308 302.775 262.307 301.745V211.193C262.308 210.162 262.744 209.174 263.52 208.446C264.297 207.717 265.349 207.307 266.446 207.306H430.573C431.671 207.307 432.723 207.717 433.499 208.446C434.275 209.174 434.712 210.162 434.713 211.193V301.745C434.712 302.775 434.275 303.763 433.499 304.492C432.723 305.221 431.671 305.631 430.573 305.632Z" fill="#E6E7E8"/>
<path d="M410.378 305.632H265.949C264.984 305.631 264.058 305.27 263.375 304.629C262.692 303.987 262.308 303.118 262.307 302.211V222.528C262.308 221.621 262.692 220.751 263.375 220.11C264.058 219.469 264.984 219.108 265.949 219.107H410.378C411.343 219.108 412.269 219.469 412.952 220.11C413.635 220.751 414.019 221.621 414.02 222.528V302.211C414.019 303.118 413.635 303.987 412.952 304.629C412.269 305.27 411.343 305.631 410.378 305.632Z" fill="#2F2E41"/>
<path d="M450.878 338.431H223.736C222.77 338.43 221.844 338.069 221.161 337.428C220.478 336.787 220.094 335.917 220.093 335.01V304.022C220.094 303.115 220.478 302.246 221.161 301.605C221.844 300.963 222.77 300.603 223.736 300.602H450.878C451.843 300.603 452.769 300.963 453.452 301.605C454.135 302.246 454.519 303.115 454.521 304.022V335.01C454.519 335.917 454.135 336.787 453.452 337.428C452.769 338.069 451.843 338.43 450.878 338.431Z" fill="#3F3D56"/>
<path d="M342.771 309.254H261.343C259.449 309.254 257.914 310.695 257.914 312.473V327.766C257.914 329.544 259.449 330.986 261.343 330.986H342.771C344.664 330.986 346.199 329.544 346.199 327.766V312.473C346.199 310.695 344.664 309.254 342.771 309.254Z" fill="#029BC5"/>
<path d="M387.985 313.882C390.115 313.882 391.842 312.261 391.842 310.26C391.842 308.26 390.115 306.638 387.985 306.638C385.855 306.638 384.128 308.26 384.128 310.26C384.128 312.261 385.855 313.882 387.985 313.882Z" fill="#2F2E41"/>
<path d="M400.414 313.882C402.544 313.882 404.271 312.261 404.271 310.26C404.271 308.26 402.544 306.638 400.414 306.638C398.284 306.638 396.557 308.26 396.557 310.26C396.557 312.261 398.284 313.882 400.414 313.882Z" fill="#2F2E41"/>
<path d="M412.842 313.882C414.972 313.882 416.699 312.261 416.699 310.26C416.699 308.26 414.972 306.638 412.842 306.638C410.711 306.638 408.984 308.26 408.984 310.26C408.984 312.261 410.711 313.882 412.842 313.882Z" fill="#2F2E41"/>
<path d="M387.985 323.138C390.115 323.138 391.842 321.516 391.842 319.516C391.842 317.516 390.115 315.894 387.985 315.894C385.855 315.894 384.128 317.516 384.128 319.516C384.128 321.516 385.855 323.138 387.985 323.138Z" fill="#2F2E41"/>
<path d="M400.414 323.138C402.544 323.138 404.271 321.516 404.271 319.516C404.271 317.516 402.544 315.894 400.414 315.894C398.284 315.894 396.557 317.516 396.557 319.516C396.557 321.516 398.284 323.138 400.414 323.138Z" fill="#2F2E41"/>
<path d="M412.842 323.138C414.972 323.138 416.699 321.516 416.699 319.516C416.699 317.516 414.972 315.894 412.842 315.894C410.711 315.894 408.984 317.516 408.984 319.516C408.984 321.516 410.711 323.138 412.842 323.138Z" fill="#2F2E41"/>
<path d="M387.985 332.394C390.115 332.394 391.842 330.773 391.842 328.772C391.842 326.772 390.115 325.15 387.985 325.15C385.855 325.15 384.128 326.772 384.128 328.772C384.128 330.773 385.855 332.394 387.985 332.394Z" fill="#2F2E41"/>
<path d="M359.203 318.343C361.333 318.343 363.06 316.721 363.06 314.721C363.06 312.72 361.333 311.099 359.203 311.099C357.073 311.099 355.346 312.72 355.346 314.721C355.346 316.721 357.073 318.343 359.203 318.343Z" fill="#2F2E41"/>
<path d="M359.203 327.598C361.333 327.598 363.06 325.977 363.06 323.976C363.06 321.976 361.333 320.354 359.203 320.354C357.073 320.354 355.346 321.976 355.346 323.976C355.346 325.977 357.073 327.598 359.203 327.598Z" fill="#2F2E41"/>
<path d="M466.298 268.469C470.851 268.469 474.542 265.003 474.542 260.728C474.542 256.453 470.851 252.987 466.298 252.987C461.745 252.987 458.055 256.453 458.055 260.728C458.055 265.003 461.745 268.469 466.298 268.469Z" fill="#3F3D56"/>
<path d="M247.044 318.343C249.174 318.343 250.901 316.721 250.901 314.721C250.901 312.72 249.174 311.099 247.044 311.099C244.913 311.099 243.187 312.72 243.187 314.721C243.187 316.721 244.913 318.343 247.044 318.343Z" fill="#2F2E41"/>
<path d="M247.044 327.598C249.174 327.598 250.901 325.977 250.901 323.976C250.901 321.976 249.174 320.354 247.044 320.354C244.913 320.354 243.187 321.976 243.187 323.976C243.187 325.977 244.913 327.598 247.044 327.598Z" fill="#2F2E41"/>
<path d="M400.414 332.394C402.544 332.394 404.271 330.773 404.271 328.772C404.271 326.772 402.544 325.15 400.414 325.15C398.284 325.15 396.557 326.772 396.557 328.772C396.557 330.773 398.284 332.394 400.414 332.394Z" fill="#2F2E41"/>
<path d="M412.842 332.394C414.972 332.394 416.699 330.773 416.699 328.772C416.699 326.772 414.972 325.15 412.842 325.15C410.711 325.15 408.984 326.772 408.984 328.772C408.984 330.773 410.711 332.394 412.842 332.394Z" fill="#2F2E41"/>
<path d="M450.235 370.828H222.664C221.699 370.826 220.773 370.466 220.09 369.824C219.407 369.183 219.023 368.314 219.021 367.407V350.504C219.023 349.597 219.407 348.728 220.09 348.087C220.773 347.445 221.699 347.085 222.664 347.083H450.235C451.201 347.085 452.127 347.445 452.81 348.087C453.493 348.728 453.877 349.597 453.878 350.504V367.407C453.877 368.314 453.493 369.183 452.81 369.824C452.127 370.466 451.201 370.826 450.235 370.828Z" fill="#2F2E41"/>
<path d="M278.806 236.613H400.949C401.858 236.613 402.73 236.952 403.373 237.556C404.016 238.16 404.377 238.979 404.377 239.833V296.383C404.377 297.237 404.016 298.056 403.373 298.66C402.73 299.264 401.858 299.603 400.949 299.603H278.806C277.897 299.603 277.025 299.264 276.382 298.66C275.739 298.056 275.378 297.237 275.378 296.383V239.833C275.378 239.41 275.467 238.991 275.639 238.601C275.811 238.21 276.064 237.855 276.382 237.556C276.701 237.257 277.078 237.02 277.494 236.858C277.91 236.697 278.356 236.613 278.806 236.613Z" fill="white"/>
<path d="M301.69 253.8C305.314 253.8 308.252 251.041 308.252 247.638C308.252 244.234 305.314 241.475 301.69 241.475C298.065 241.475 295.127 244.234 295.127 247.638C295.127 251.041 298.065 253.8 301.69 253.8Z" fill="#029BC5"/>
<path d="M327.924 263.167H297.082C296.564 263.167 296.067 262.975 295.7 262.631C295.334 262.288 295.127 261.822 295.126 261.336C295.125 260.849 295.329 260.383 295.694 260.038C296.06 259.693 296.555 259.498 297.073 259.497H327.924C328.18 259.496 328.435 259.543 328.672 259.635C328.91 259.727 329.125 259.862 329.307 260.032C329.489 260.202 329.633 260.404 329.732 260.627C329.831 260.85 329.881 261.088 329.882 261.329C329.882 261.57 329.832 261.809 329.734 262.032C329.636 262.255 329.492 262.457 329.311 262.628C329.129 262.799 328.914 262.934 328.677 263.027C328.44 263.119 328.185 263.167 327.929 263.167H327.924Z" fill="#CCCCCC"/>
<path d="M311.964 270.418H297.081C296.563 270.419 296.066 270.227 295.699 269.883C295.331 269.539 295.125 269.073 295.124 268.586C295.123 268.099 295.328 267.632 295.694 267.288C296.06 266.943 296.557 266.749 297.075 266.748H311.964C312.482 266.749 312.978 266.942 313.344 267.287C313.71 267.631 313.915 268.097 313.915 268.583C313.915 269.069 313.71 269.536 313.344 269.88C312.978 270.224 312.482 270.418 311.964 270.418Z" fill="#CCCCCC"/>
<path d="M384.495 284.496H301.368C300.849 284.497 300.352 284.304 299.986 283.96C299.619 283.616 299.413 283.15 299.412 282.664C299.411 282.177 299.616 281.71 299.982 281.366C300.348 281.021 300.844 280.827 301.362 280.826H384.495C384.752 280.826 385.006 280.873 385.243 280.965C385.481 281.056 385.696 281.191 385.878 281.362C386.06 281.532 386.204 281.734 386.303 281.957C386.402 282.179 386.453 282.418 386.453 282.659C386.453 282.9 386.403 283.139 386.305 283.362C386.207 283.584 386.063 283.787 385.882 283.958C385.701 284.128 385.485 284.264 385.248 284.356C385.011 284.449 384.757 284.496 384.5 284.496H384.495Z" fill="#CCCCCC"/>
<path d="M368.536 291.748H301.367C300.85 291.747 300.353 291.553 299.987 291.209C299.622 290.865 299.416 290.399 299.416 289.912C299.416 289.426 299.622 288.96 299.987 288.616C300.353 288.272 300.85 288.078 301.367 288.077H368.536C369.054 288.078 369.55 288.272 369.916 288.616C370.282 288.96 370.487 289.426 370.487 289.912C370.487 290.399 370.282 290.865 369.916 291.209C369.55 291.553 369.054 291.747 368.536 291.748Z" fill="#CCCCCC"/>
<path d="M157.999 367.895L157.572 358.866C153.114 356.629 148.142 355.447 143.088 355.423C150.044 360.764 149.175 371.059 153.891 378.24C155.38 380.47 157.385 382.356 159.756 383.759C162.127 385.162 164.804 386.046 167.588 386.346L173.409 389.693C174.208 385.511 174.032 381.216 172.893 377.105C171.754 372.993 169.68 369.163 166.812 365.876C165.184 364.048 163.318 362.419 161.256 361.029C159.862 364.481 157.999 367.895 157.999 367.895Z" fill="#F2F2F2"/>
<path d="M130 389.521C130 389.648 130.053 389.769 130.148 389.859C130.243 389.949 130.372 389.999 130.507 390H539.49C539.625 390 539.755 389.949 539.851 389.86C539.946 389.77 540 389.648 540 389.521C540 389.394 539.946 389.272 539.851 389.182C539.755 389.092 539.625 389.042 539.49 389.042H130.51C130.375 389.042 130.246 389.092 130.15 389.181C130.054 389.27 130 389.391 130 389.518V389.521Z" fill="#CCCCCC"/>
<path d="M410.378 389.07H265.949C263.939 389.068 262.309 388.134 262.307 386.982V369.294C262.309 368.141 263.939 367.207 265.949 367.206H410.378C412.388 367.207 414.018 368.141 414.02 369.294V386.982C414.018 388.134 412.388 389.068 410.378 389.07Z" fill="#2F2E41"/>
<path d="M399.235 385.045H277.093C275.199 385.045 273.664 384.172 273.664 383.094V358.089C273.664 357.012 275.199 356.138 277.093 356.138H399.235C401.129 356.138 402.664 357.012 402.664 358.089V383.094C402.664 384.172 401.129 385.045 399.235 385.045Z" fill="white"/>
<path d="M294.921 369.991H378.048C378.566 369.99 379.063 370.183 379.43 370.527C379.797 370.871 380.003 371.337 380.004 371.823C380.004 372.31 379.799 372.777 379.434 373.121C379.068 373.466 378.571 373.66 378.053 373.661H294.921C294.403 373.662 293.905 373.47 293.538 373.127C293.17 372.783 292.963 372.317 292.962 371.83C292.961 371.344 293.165 370.877 293.531 370.532C293.896 370.187 294.393 369.992 294.911 369.991H294.921Z" fill="#CCCCCC"/>
<path d="M310.88 362.739H378.049C378.567 362.739 379.064 362.933 379.431 363.277C379.797 363.621 380.003 364.088 380.003 364.574C380.003 365.061 379.797 365.528 379.431 365.872C379.064 366.216 378.567 366.41 378.049 366.41H310.88C310.624 366.41 310.369 366.363 310.132 366.271C309.895 366.18 309.679 366.045 309.497 365.875C309.315 365.705 309.171 365.503 309.072 365.28C308.974 365.058 308.922 364.819 308.922 364.578C308.921 364.337 308.971 364.099 309.069 363.876C309.167 363.653 309.31 363.45 309.491 363.28C309.672 363.109 309.888 362.973 310.124 362.88C310.361 362.788 310.615 362.74 310.872 362.739L310.88 362.739Z" fill="#CCCCCC"/>
<path d="M467.675 261.101H466.817V373.838H467.675V261.101Z" fill="#2F2E41"/>
<path d="M475.398 274.323H474.541V387.06H475.398V274.323Z" fill="#2F2E41"/>
<path d="M482.883 273.495H482.025V378.606H482.883V273.495Z" fill="#2F2E41"/>
<path d="M448.77 300.294H249.916V301.099H448.77V300.294Z" fill="#2F2E41"/>
<path d="M448.77 338.526H249.916V339.331H448.77V338.526Z" fill="#2F2E41"/>
</g>
</g>
<defs>
<clipPath id="clip0_17_4435">
<rect width="497" height="391" fill="white"/>
</clipPath>
<clipPath id="clip1_17_4435">
<rect width="410" height="203" fill="white" transform="translate(130 187)"/>
</clipPath>
</defs>
</svg>
