<svg width="622" height="509" viewBox="0 0 622 509" fill="none" xmlns="http://www.w3.org/2000/svg">
<g clip-path="url(#clip0_16_4050)">
<path d="M562.984 486.98H59.0165C50.192 486.98 41.4799 484.884 33.5219 480.847C25.5638 476.81 18.5625 470.934 13.0334 463.653C7.5044 456.371 3.58855 447.87 1.57424 438.774C-0.440065 429.678 -0.501503 420.219 1.39444 411.095L23.9051 302.768H598.095L620.606 411.095C622.502 420.219 622.44 429.678 620.426 438.774C618.411 447.87 614.496 456.371 608.967 463.653C603.438 470.934 596.436 476.81 588.478 480.847C580.52 484.884 571.808 486.98 562.984 486.98ZM25.2896 304.592L3.07676 411.487C1.23623 420.345 1.29592 429.527 3.25143 438.357C5.20695 447.188 9.00849 455.441 14.3761 462.51C19.7437 469.579 26.5406 475.283 34.2663 479.202C41.992 483.121 50.4496 485.156 59.0164 485.156H562.984C571.55 485.156 580.008 483.121 587.734 479.202C595.459 475.283 602.256 469.579 607.624 462.51C612.992 455.441 616.793 447.188 618.749 438.357C620.704 429.527 620.764 420.345 618.923 411.487L596.71 304.592H25.2896Z" fill="#F2F2F2"/>
<path d="M498.992 71.4764L525.427 67.3053L521.252 47.8361L505.403 56.2867L472.705 43.2399C472.239 41.9664 471.433 40.864 470.386 40.0669C469.338 39.2699 468.094 38.8128 466.806 38.7513C465.517 38.6898 464.24 39.0265 463.129 39.7205C462.018 40.4144 461.121 41.4356 460.549 42.6595C459.977 43.8834 459.754 45.2571 459.906 46.6132C460.058 47.9693 460.58 49.2491 461.408 50.2966C462.235 51.3441 463.333 52.114 464.567 52.5125C465.801 52.911 467.117 52.9208 468.356 52.5407L498.992 71.4764Z" fill="#FFB6B6"/>
<path d="M552.723 56.9222C550.679 65.1249 503.584 74.3775 503.607 72.6029C503.674 67.5594 506.703 56.9768 504.973 54.2314C503.984 52.6613 517.301 48.6494 517.301 48.6494C517.301 48.6494 524.652 45.6541 534.181 41.9985C536.857 40.9121 539.749 40.5601 542.588 40.9754C545.427 41.3907 548.121 42.5596 550.418 44.3735C550.418 44.3735 554.766 48.7194 552.723 56.9222Z" fill="#26ACC9"/>
<path d="M97.133 398.518H80.7671C77.112 398.518 73.6065 400.055 71.022 402.791C68.4374 405.528 66.9854 409.239 66.9854 413.109C66.9854 416.978 68.4374 420.69 71.022 423.426C73.6065 426.162 77.112 427.7 80.7671 427.7H97.133C100.788 427.7 104.294 426.162 106.878 423.426C109.463 420.69 110.915 416.978 110.915 413.109C110.915 409.239 109.463 405.528 106.878 402.791C104.294 400.055 100.788 398.518 97.133 398.518Z" fill="#E6E6E6"/>
<path d="M149.676 398.518H133.31C129.655 398.518 126.15 400.055 123.565 402.791C120.98 405.528 119.528 409.239 119.528 413.109C119.528 416.978 120.98 420.69 123.565 423.426C126.15 426.162 129.655 427.7 133.31 427.7H149.676C153.331 427.7 156.837 426.162 159.421 423.426C162.006 420.69 163.458 416.978 163.458 413.109C163.458 409.239 162.006 405.528 159.421 402.791C156.837 400.055 153.331 398.518 149.676 398.518Z" fill="#E6E6E6"/>
<path d="M202.219 398.518H185.853C182.198 398.518 178.692 400.055 176.108 402.791C173.523 405.528 172.071 409.239 172.071 413.109C172.071 416.978 173.523 420.69 176.108 423.426C178.692 426.162 182.198 427.7 185.853 427.7H202.219C205.874 427.7 209.38 426.162 211.964 423.426C214.549 420.69 216.001 416.978 216.001 413.109C216.001 409.239 214.549 405.528 211.964 402.791C209.38 400.055 205.874 398.518 202.219 398.518Z" fill="#E6E6E6"/>
<path d="M254.763 398.518H238.397C234.742 398.518 231.236 400.055 228.652 402.791C226.067 405.528 224.615 409.239 224.615 413.109C224.615 416.978 226.067 420.69 228.652 423.426C231.236 426.162 234.742 427.7 238.397 427.7H254.763C258.418 427.7 261.924 426.162 264.508 423.426C267.093 420.69 268.545 416.978 268.545 413.109C268.545 409.239 267.093 405.528 264.508 402.791C261.924 400.055 258.418 398.518 254.763 398.518Z" fill="#E6E6E6"/>
<path d="M307.306 398.518H290.94C287.285 398.518 283.779 400.055 281.195 402.791C278.61 405.528 277.158 409.239 277.158 413.109C277.158 416.978 278.61 420.69 281.195 423.426C283.779 426.162 287.285 427.7 290.94 427.7H307.306C310.961 427.7 314.466 426.162 317.051 423.426C319.636 420.69 321.088 416.978 321.088 413.109C321.088 409.239 319.636 405.528 317.051 402.791C314.466 400.055 310.961 398.518 307.306 398.518Z" fill="#E6E6E6"/>
<path d="M359.849 398.518H343.483C339.828 398.518 336.322 400.055 333.738 402.791C331.153 405.528 329.701 409.239 329.701 413.109C329.701 416.978 331.153 420.69 333.738 423.426C336.322 426.162 339.828 427.7 343.483 427.7H359.849C363.504 427.7 367.009 426.162 369.594 423.426C372.179 420.69 373.631 416.978 373.631 413.109C373.631 409.239 372.179 405.528 369.594 402.791C367.009 400.055 363.504 398.518 359.849 398.518Z" fill="#E6E6E6"/>
<path d="M412.392 398.518H396.026C392.371 398.518 388.865 400.055 386.281 402.791C383.696 405.528 382.244 409.239 382.244 413.109C382.244 416.978 383.696 420.69 386.281 423.426C388.865 426.162 392.371 427.7 396.026 427.7H412.392C416.047 427.7 419.552 426.162 422.137 423.426C424.722 420.69 426.174 416.978 426.174 413.109C426.174 409.239 424.722 405.528 422.137 402.791C419.552 400.055 416.047 398.518 412.392 398.518Z" fill="#E6E6E6"/>
<path d="M464.935 398.518H448.569C444.914 398.518 441.408 400.055 438.824 402.791C436.239 405.528 434.787 409.239 434.787 413.109C434.787 416.978 436.239 420.69 438.824 423.426C441.408 426.162 444.914 427.7 448.569 427.7H464.935C468.59 427.7 472.095 426.162 474.68 423.426C477.265 420.69 478.717 416.978 478.717 413.109C478.717 409.239 477.265 405.528 474.68 402.791C472.095 400.055 468.59 398.518 464.935 398.518Z" fill="#E6E6E6"/>
<path d="M517.478 398.518H501.112C497.457 398.518 493.951 400.055 491.367 402.791C488.782 405.528 487.33 409.239 487.33 413.109C487.33 416.978 488.782 420.69 491.367 423.426C493.951 426.162 497.457 427.7 501.112 427.7H517.478C521.133 427.7 524.638 426.162 527.223 423.426C529.808 420.69 531.26 416.978 531.26 413.109C531.26 409.239 529.808 405.528 527.223 402.791C524.638 400.055 521.133 398.518 517.478 398.518Z" fill="#E6E6E6"/>
<path d="M97.133 337.418H80.7671C77.112 337.418 73.6065 338.955 71.022 341.692C68.4374 344.428 66.9854 348.139 66.9854 352.009C66.9854 355.879 68.4374 359.59 71.022 362.326C73.6065 365.063 77.112 366.6 80.7671 366.6H97.133C100.788 366.6 104.294 365.063 106.878 362.326C109.463 359.59 110.915 355.879 110.915 352.009C110.915 348.139 109.463 344.428 106.878 341.692C104.294 338.955 100.788 337.418 97.133 337.418Z" fill="#E6E6E6"/>
<path d="M149.676 337.418H133.31C129.655 337.418 126.15 338.955 123.565 341.692C120.98 344.428 119.528 348.139 119.528 352.009C119.528 355.879 120.98 359.59 123.565 362.326C126.15 365.063 129.655 366.6 133.31 366.6H149.676C153.331 366.6 156.837 365.063 159.421 362.326C162.006 359.59 163.458 355.879 163.458 352.009C163.458 348.139 162.006 344.428 159.421 341.692C156.837 338.955 153.331 337.418 149.676 337.418Z" fill="#E6E6E6"/>
<path d="M202.219 337.418H185.853C182.198 337.418 178.692 338.955 176.108 341.692C173.523 344.428 172.071 348.139 172.071 352.009C172.071 355.879 173.523 359.59 176.108 362.326C178.692 365.063 182.198 366.6 185.853 366.6H202.219C205.874 366.6 209.38 365.063 211.964 362.326C214.549 359.59 216.001 355.879 216.001 352.009C216.001 348.139 214.549 344.428 211.964 341.692C209.38 338.955 205.874 337.418 202.219 337.418Z" fill="#26ACC9"/>
<path d="M254.763 337.418H238.397C234.742 337.418 231.236 338.955 228.652 341.692C226.067 344.428 224.615 348.139 224.615 352.009C224.615 355.879 226.067 359.59 228.652 362.326C231.236 365.063 234.742 366.6 238.397 366.6H254.763C258.418 366.6 261.924 365.063 264.508 362.326C267.093 359.59 268.545 355.879 268.545 352.009C268.545 348.139 267.093 344.428 264.508 341.692C261.924 338.955 258.418 337.418 254.763 337.418Z" fill="#E6E6E6"/>
<path d="M307.306 337.418H290.94C287.285 337.418 283.779 338.955 281.195 341.692C278.61 344.428 277.158 348.139 277.158 352.009C277.158 355.879 278.61 359.59 281.195 362.326C283.779 365.063 287.285 366.6 290.94 366.6H307.306C310.961 366.6 314.466 365.063 317.051 362.326C319.636 359.59 321.088 355.879 321.088 352.009C321.088 348.139 319.636 344.428 317.051 341.692C314.466 338.955 310.961 337.418 307.306 337.418Z" fill="#E6E6E6"/>
<path d="M359.849 337.418H343.483C339.828 337.418 336.322 338.955 333.738 341.692C331.153 344.428 329.701 348.139 329.701 352.009C329.701 355.879 331.153 359.59 333.738 362.326C336.322 365.063 339.828 366.6 343.483 366.6H359.849C363.504 366.6 367.009 365.063 369.594 362.326C372.179 359.59 373.631 355.879 373.631 352.009C373.631 348.139 372.179 344.428 369.594 341.692C367.009 338.955 363.504 337.418 359.849 337.418Z" fill="#E6E6E6"/>
<path d="M412.392 337.418H396.026C392.371 337.418 388.865 338.955 386.281 341.692C383.696 344.428 382.244 348.139 382.244 352.009C382.244 355.879 383.696 359.59 386.281 362.326C388.865 365.063 392.371 366.6 396.026 366.6H412.392C416.047 366.6 419.552 365.063 422.137 362.326C424.722 359.59 426.174 355.879 426.174 352.009C426.174 348.139 424.722 344.428 422.137 341.692C419.552 338.955 416.047 337.418 412.392 337.418Z" fill="#E6E6E6"/>
<path d="M464.935 337.418H448.569C444.914 337.418 441.408 338.955 438.824 341.692C436.239 344.428 434.787 348.139 434.787 352.009C434.787 355.879 436.239 359.59 438.824 362.326C441.408 365.063 444.914 366.6 448.569 366.6H464.935C468.59 366.6 472.095 365.063 474.68 362.326C477.265 359.59 478.717 355.879 478.717 352.009C478.717 348.139 477.265 344.428 474.68 341.692C472.095 338.955 468.59 337.418 464.935 337.418Z" fill="#E6E6E6"/>
<path d="M517.478 337.418H501.112C497.457 337.418 493.951 338.955 491.367 341.692C488.782 344.428 487.33 348.139 487.33 352.009C487.33 355.879 488.782 359.59 491.367 362.326C493.951 365.063 497.457 366.6 501.112 366.6H517.478C521.133 366.6 524.638 365.063 527.223 362.326C529.808 359.59 531.26 355.879 531.26 352.009C531.26 348.139 529.808 344.428 527.223 341.692C524.638 338.955 521.133 337.418 517.478 337.418Z" fill="#E6E6E6"/>
<path d="M121.682 368.88H105.316C101.661 368.88 98.1554 370.417 95.5708 373.153C92.9862 375.89 91.5342 379.601 91.5342 383.471C91.5342 387.341 92.9862 391.052 95.5708 393.788C98.1554 396.525 101.661 398.062 105.316 398.062H121.682C125.337 398.062 128.842 396.525 131.427 393.788C134.012 391.052 135.464 387.341 135.464 383.471C135.464 379.601 134.012 375.89 131.427 373.153C128.842 370.417 125.337 368.88 121.682 368.88Z" fill="#E6E6E6"/>
<path d="M174.225 368.88H157.859C154.204 368.88 150.698 370.417 148.114 373.153C145.529 375.89 144.077 379.601 144.077 383.471C144.077 387.341 145.529 391.052 148.114 393.788C150.698 396.525 154.204 398.062 157.859 398.062H174.225C177.88 398.062 181.385 396.525 183.97 393.788C186.555 391.052 188.007 387.341 188.007 383.471C188.007 379.601 186.555 375.89 183.97 373.153C181.385 370.417 177.88 368.88 174.225 368.88Z" fill="#E6E6E6"/>
<path d="M226.768 368.88H210.402C206.747 368.88 203.241 370.417 200.657 373.153C198.072 375.89 196.62 379.601 196.62 383.471C196.62 387.341 198.072 391.052 200.657 393.788C203.241 396.525 206.747 398.062 210.402 398.062H226.768C230.423 398.062 233.928 396.525 236.513 393.788C239.098 391.052 240.55 387.341 240.55 383.471C240.55 379.601 239.098 375.89 236.513 373.153C233.928 370.417 230.423 368.88 226.768 368.88Z" fill="#E6E6E6"/>
<path d="M279.312 368.88H262.946C259.291 368.88 255.785 370.417 253.201 373.153C250.616 375.89 249.164 379.601 249.164 383.471C249.164 387.341 250.616 391.052 253.201 393.788C255.785 396.525 259.291 398.062 262.946 398.062H279.312C282.967 398.062 286.472 396.525 289.057 393.788C291.642 391.052 293.093 387.341 293.093 383.471C293.093 379.601 291.642 375.89 289.057 373.153C286.472 370.417 282.967 368.88 279.312 368.88Z" fill="#E6E6E6"/>
<path d="M331.855 368.88H315.489C311.834 368.88 308.328 370.417 305.744 373.153C303.159 375.89 301.707 379.601 301.707 383.471C301.707 387.341 303.159 391.052 305.744 393.788C308.328 396.525 311.834 398.062 315.489 398.062H331.855C335.51 398.062 339.015 396.525 341.6 393.788C344.184 391.052 345.636 387.341 345.636 383.471C345.636 379.601 344.184 375.89 341.6 373.153C339.015 370.417 335.51 368.88 331.855 368.88Z" fill="#E6E6E6"/>
<path d="M384.398 368.88H368.032C364.377 368.88 360.871 370.417 358.287 373.153C355.702 375.89 354.25 379.601 354.25 383.471C354.25 387.341 355.702 391.052 358.287 393.788C360.871 396.525 364.377 398.062 368.032 398.062H384.398C388.053 398.062 391.558 396.525 394.143 393.788C396.727 391.052 398.179 387.341 398.179 383.471C398.179 379.601 396.727 375.89 394.143 373.153C391.558 370.417 388.053 368.88 384.398 368.88Z" fill="#E6E6E6"/>
<path d="M436.941 368.88H420.575C416.92 368.88 413.414 370.417 410.83 373.153C408.245 375.89 406.793 379.601 406.793 383.471C406.793 387.341 408.245 391.052 410.83 393.788C413.414 396.525 416.92 398.062 420.575 398.062H436.941C440.596 398.062 444.101 396.525 446.686 393.788C449.27 391.052 450.722 387.341 450.722 383.471C450.722 379.601 449.27 375.89 446.686 373.153C444.101 370.417 440.596 368.88 436.941 368.88Z" fill="#E6E6E6"/>
<path d="M489.484 368.88H473.118C469.463 368.88 465.957 370.417 463.373 373.153C460.788 375.89 459.336 379.601 459.336 383.471C459.336 387.341 460.788 391.052 463.373 393.788C465.957 396.525 469.463 398.062 473.118 398.062H489.484C493.139 398.062 496.644 396.525 499.229 393.788C501.813 391.052 503.265 387.341 503.265 383.471C503.265 379.601 501.813 375.89 499.229 373.153C496.644 370.417 493.139 368.88 489.484 368.88Z" fill="#E6E6E6"/>
<path d="M542.027 368.88H525.661C522.006 368.88 518.5 370.417 515.915 373.153C513.331 375.89 511.879 379.601 511.879 383.471C511.879 387.341 513.331 391.052 515.915 393.788C518.5 396.525 522.006 398.062 525.661 398.062H542.027C545.682 398.062 549.187 396.525 551.772 393.788C554.356 391.052 555.808 387.341 555.808 383.471C555.808 379.601 554.356 375.89 551.772 373.153C549.187 370.417 545.682 368.88 542.027 368.88Z" fill="#E6E6E6"/>
<path d="M481.414 303.676H141.38C135.986 303.67 130.815 301.398 127.001 297.361C123.188 293.323 121.042 287.848 121.036 282.138L121.058 281.932C133.088 226.826 133.083 157.743 121.044 64.5235L121.036 64.3997C121.042 58.6894 123.188 53.2148 127.001 49.177C130.815 45.1391 135.986 42.8678 141.38 42.8613H481.414C486.808 42.8678 491.979 45.1391 495.793 49.177C499.606 53.2148 501.752 58.6894 501.758 64.3997L501.739 64.5903C487.19 136.224 487.19 210.314 501.739 281.947L501.758 282.138C501.752 287.848 499.606 293.323 495.793 297.361C491.979 301.398 486.808 303.67 481.414 303.676Z" fill="white"/>
<path d="M481.414 303.676H141.38C135.986 303.67 130.815 301.398 127.001 297.361C123.188 293.323 121.042 287.848 121.036 282.138L121.058 281.932C133.088 226.826 133.083 157.743 121.044 64.5235L121.036 64.3997C121.042 58.6894 123.188 53.2148 127.001 49.177C130.815 45.1391 135.986 42.8678 141.38 42.8613H481.414C486.808 42.8678 491.979 45.1391 495.793 49.177C499.606 53.2148 501.752 58.6894 501.758 64.3997L501.739 64.5903C487.19 136.224 487.19 210.314 501.739 281.947L501.758 282.138C501.752 287.848 499.606 293.323 495.793 297.361C491.979 301.398 486.808 303.67 481.414 303.676ZM122.759 282.24C122.79 287.449 124.765 292.434 128.253 296.107C131.741 299.781 136.46 301.846 141.38 301.852H481.414C486.335 301.846 491.055 299.78 494.543 296.105C498.031 292.43 500.005 287.443 500.035 282.233C485.46 210.41 485.46 136.128 500.035 64.3044C500.005 59.0942 498.031 54.1077 494.543 50.4324C491.055 46.7571 486.335 44.6912 481.414 44.6852H141.38C136.453 44.6912 131.729 46.7617 128.24 50.4443C124.75 54.1269 122.78 59.1221 122.759 64.3382C134.812 157.692 134.812 226.942 122.759 282.24Z" fill="#E6E6E6"/>
<path d="M445.77 107.153H170.995C169.51 107.153 168.086 106.529 167.036 105.417C165.986 104.305 165.396 102.798 165.396 101.225C165.396 99.6534 165.986 98.1457 167.036 97.034C168.086 95.9224 169.51 95.2979 170.995 95.2979H445.77C447.255 95.2979 448.679 95.9224 449.729 97.034C450.779 98.1457 451.368 99.6534 451.368 101.225C451.368 102.798 450.779 104.305 449.729 105.417C448.679 106.529 447.255 107.153 445.77 107.153Z" fill="#E6E6E6"/>
<path d="M445.77 135.879H170.995C169.51 135.879 168.086 135.255 167.036 134.143C165.986 133.031 165.396 131.524 165.396 129.952C165.396 128.379 165.986 126.872 167.036 125.76C168.086 124.648 169.51 124.024 170.995 124.024H445.77C447.255 124.024 448.679 124.648 449.729 125.76C450.779 126.872 451.368 128.379 451.368 129.952C451.368 131.524 450.779 133.031 449.729 134.143C448.679 135.255 447.255 135.879 445.77 135.879Z" fill="#E6E6E6"/>
<path d="M445.77 164.605H170.995C169.51 164.605 168.086 163.981 167.036 162.869C165.986 161.757 165.396 160.25 165.396 158.678C165.396 157.106 165.986 155.598 167.036 154.486C168.086 153.375 169.51 152.75 170.995 152.75H445.77C447.255 152.75 448.679 153.375 449.729 154.486C450.779 155.598 451.368 157.106 451.368 158.678C451.368 160.25 450.779 161.757 449.729 162.869C448.679 163.981 447.255 164.605 445.77 164.605Z" fill="#E6E6E6"/>
<path d="M445.77 193.331H170.995C169.51 193.331 168.086 192.707 167.036 191.595C165.986 190.483 165.396 188.976 165.396 187.404C165.396 185.832 165.986 184.324 167.036 183.212C168.086 182.101 169.51 181.476 170.995 181.476H445.77C447.255 181.476 448.679 182.101 449.729 183.212C450.779 184.324 451.368 185.832 451.368 187.404C451.368 188.976 450.779 190.483 449.729 191.595C448.679 192.707 447.255 193.331 445.77 193.331Z" fill="#E6E6E6"/>
<path d="M445.77 222.057H170.995C169.51 222.057 168.086 221.433 167.036 220.321C165.986 219.21 165.396 217.702 165.396 216.13C165.396 214.558 165.986 213.05 167.036 211.938C168.086 210.827 169.51 210.202 170.995 210.202H445.77C447.255 210.202 448.679 210.827 449.729 211.938C450.779 213.05 451.368 214.558 451.368 216.13C451.368 217.702 450.779 219.21 449.729 220.321C448.679 221.433 447.255 222.057 445.77 222.057Z" fill="#E6E6E6"/>
<path d="M294.17 250.783H170.995C169.51 250.783 168.086 250.159 167.036 249.047C165.986 247.936 165.396 246.428 165.396 244.856C165.396 243.284 165.986 241.776 167.036 240.664C168.086 239.553 169.51 238.928 170.995 238.928H294.17C295.655 238.928 297.079 239.553 298.129 240.664C299.179 241.776 299.769 243.284 299.769 244.856C299.769 246.428 299.179 247.936 298.129 249.047C297.079 250.159 295.655 250.783 294.17 250.783Z" fill="#26ACC9"/>
<path d="M309.83 295.925H287.156C286.812 295.921 286.474 295.836 286.165 295.675C285.857 295.514 285.586 295.282 285.374 294.995C285.124 294.658 284.948 294.266 284.859 293.847C284.769 293.429 284.769 292.995 284.857 292.576L295.527 241.466C295.612 240.892 295.885 240.369 296.299 239.988C296.713 239.607 297.24 239.393 297.789 239.385C298.337 239.376 298.871 239.572 299.295 239.94C299.72 240.307 300.008 240.821 300.11 241.392L312.113 292.501C312.214 292.924 312.223 293.366 312.14 293.793C312.057 294.22 311.883 294.621 311.633 294.967C311.422 295.262 311.149 295.502 310.837 295.668C310.524 295.834 310.18 295.922 309.83 295.925Z" fill="#E6E6E6"/>
<path d="M594.785 315.075H28.0092C24.9252 315.075 21.9675 313.778 19.7867 311.469C17.606 309.16 16.3809 306.029 16.3809 302.764C16.3809 299.499 17.606 296.367 19.7867 294.059C21.9675 291.75 24.9252 290.453 28.0092 290.453H594.785C597.869 290.453 600.827 291.75 603.008 294.059C605.188 296.367 606.414 299.499 606.414 302.764C606.414 306.029 605.188 309.16 603.008 311.469C600.827 313.778 597.869 315.075 594.785 315.075Z" fill="#F2F2F2"/>
<path d="M523.013 284.245L514.742 284.244L510.809 250.471L523.015 250.472L523.013 284.245Z" fill="#FFB6B6"/>
<path d="M525.123 292.733L498.455 292.732V292.375C498.455 289.46 499.549 286.665 501.495 284.604C503.442 282.544 506.082 281.386 508.835 281.386L513.707 277.473L522.795 281.386L525.123 281.386L525.123 292.733Z" fill="#2F2E41"/>
<path d="M597.742 272.86L590.341 276.766L572.588 248.398L583.513 242.633L597.742 272.86Z" fill="#FFB6B6"/>
<path d="M603.205 279.461L579.338 292.055L579.187 291.735C577.96 289.127 577.761 286.109 578.634 283.345C579.508 280.581 581.383 278.298 583.847 276.998L586.558 271.195L596.341 270.405L598.425 269.306L603.205 279.461Z" fill="#2F2E41"/>
<path d="M519.349 130.856L564.954 132.546L568.364 139.251C568.364 139.251 571.935 166.681 570.106 168.618C568.277 170.554 567.363 170.554 568.277 173.943C569.192 177.332 571.556 209.712 571.556 209.712C571.556 209.712 590.395 251.083 591.31 253.503C592.224 255.924 593.139 254.956 592.224 255.924C591.414 256.849 590.651 257.818 589.938 258.829H575.033C575.033 258.829 567.007 237.396 559.661 229.105C553.174 221.786 549.065 212.463 547.936 202.497L541.755 171.523L528.495 218.967C528.495 218.967 526.208 265.926 526.665 268.347L527.123 270.768L509.555 270.975C509.555 270.975 507.726 266.895 508.64 265.442C509.555 263.99 509.5 264.386 508.384 262.01C507.268 259.633 507.726 255.605 507.726 255.605C507.726 255.605 514.319 160.388 514.319 158.936C514.354 158.188 514.224 157.443 513.939 156.758V154.786L515.691 147.801L519.349 130.856Z" fill="#2F2E41"/>
<path d="M539.012 43.2536C536.044 45.1219 534.268 48.5548 533.248 52.0481C531.361 58.5154 530.225 65.202 529.866 71.9602L528.789 92.193C528.253 105.25 524.822 117.991 518.774 129.385C518.326 130.253 518.07 131.217 518.026 132.205C517.983 133.193 518.153 134.178 518.523 135.086C518.893 135.994 519.455 136.8 520.164 137.444C520.873 138.088 521.711 138.552 522.615 138.801C539.144 143.392 570.449 137.627 570.449 137.627C570.449 137.627 571.783 137.157 570.449 135.745C569.116 134.333 566.125 127.275 566.125 127.275L569.68 102.546L574.125 52.665C568.791 45.6064 558.065 41.4455 558.065 41.4455L555.293 36.1636L541.435 37.3373L539.012 43.2536Z" fill="#26ACC9"/>
<path d="M547.809 33.0941C555.161 33.0941 561.121 26.7838 561.121 18.9997C561.121 11.2155 555.161 4.90527 547.809 4.90527C540.456 4.90527 534.496 11.2155 534.496 18.9997C534.496 26.7838 540.456 33.0941 547.809 33.0941Z" fill="#FFB8B8"/>
<path d="M564.211 18.1627C563.616 21.0183 562.544 23.7384 561.044 26.1941C560.646 27.0315 560.051 27.7464 559.317 28.2702C558.945 28.5228 558.502 28.6293 558.063 28.5713C557.625 28.5133 557.22 28.2944 556.918 27.9527L556.595 27.6734C557.23 27.259 557.797 26.738 558.274 26.1306C558.51 25.8258 558.674 25.4657 558.752 25.0804C558.83 24.695 558.82 24.2954 558.723 23.9148C558.608 23.5395 558.36 23.2259 558.032 23.0401C557.703 22.8542 557.319 22.8105 556.96 22.9181C556.181 23.2419 555.707 24.4354 554.891 24.2513C554.232 24.0989 554.094 23.1784 554.094 22.4546C554.118 18.6706 552.391 13.293 551.053 13.4581C549.702 13.5363 548.35 13.3446 547.066 12.893C545.78 12.4407 544.423 12.2574 543.072 12.3534C542.976 12.3661 542.88 12.3851 542.778 12.4042C542.561 11.6852 542.263 10.9967 541.89 10.3535C541.932 11.1299 541.896 11.9088 541.782 12.6772C540.707 13.1465 539.595 13.5182 538.46 13.7882C537.225 13.9724 534.508 17.8833 534.382 17.4833C534.166 16.7644 533.867 16.0758 533.495 15.4326C533.537 16.2091 533.501 16.988 533.387 17.7563C533.381 17.7881 533.381 17.8135 533.375 17.8452C532.775 17.0008 532.409 15.9723 532.613 16.7595C530.604 11.9471 531.384 8.49957 534.544 4.44257C535.16 3.57023 535.975 2.87772 536.913 2.42992C537.383 2.21151 537.897 2.12482 538.408 2.17821C538.918 2.23159 539.407 2.42324 539.827 2.7347C541.116 1.48352 542.698 0.620061 544.408 0.233807C546.118 -0.152446 547.895 -0.0474436 549.554 0.537936C552.847 1.75061 555.383 2.46169 555.887 6.1187C557.261 5.95966 558.649 6.21503 559.891 6.85535C561.134 7.49566 562.18 8.49483 562.909 9.73758C564.328 12.2728 564.793 15.281 564.211 18.1627Z" fill="#2F2E41"/>
<path d="M578.418 109.751L578.44 81.4536L559.635 82.9401L565.18 100.787L548.147 133.089C546.888 133.388 545.739 134.068 544.839 135.047C543.939 136.025 543.328 137.26 543.08 138.6C542.831 139.94 542.956 141.328 543.44 142.594C543.923 143.86 544.745 144.95 545.803 145.73C546.861 146.511 548.111 146.948 549.401 146.99C550.69 147.031 551.963 146.674 553.064 145.963C554.165 145.252 555.047 144.217 555.602 142.984C556.157 141.751 556.362 140.374 556.19 139.021L578.418 109.751Z" fill="#FFB6B6"/>
<path d="M572.787 51.3364C580.147 54.692 581.81 105.373 580.156 105.085C575.454 104.268 566.018 99.5288 563.197 100.933C561.584 101.736 559.81 87.1973 559.81 87.1973C559.81 87.1973 558.102 79.0573 556.099 68.5382C555.481 65.5754 555.581 62.4951 556.389 59.5842C557.198 56.6732 558.689 54.0262 560.724 51.8895C560.724 51.8895 565.428 47.9808 572.787 51.3364Z" fill="#26ACC9"/>
<path d="M118.298 364.038C117.81 363.567 117.427 362.989 117.173 362.344C116.92 361.699 116.803 361.003 116.831 360.305C116.859 359.607 117.032 358.925 117.336 358.305C117.64 357.685 118.069 357.144 118.592 356.719L113.54 340.606L121.588 342.895L125.152 357.845C125.768 358.823 126.024 360.007 125.871 361.171C125.719 362.336 125.168 363.401 124.323 364.164C123.478 364.928 122.398 365.336 121.288 365.313C120.177 365.29 119.113 364.836 118.298 364.038Z" fill="#FFB6B6"/>
<path d="M132.883 276.495C134.218 277.305 142.119 275.297 143.662 275.869C142.81 281.37 147.436 279.306 142.413 286.531C137.389 293.757 127.271 315.421 124.973 323.517C122.674 331.614 124.949 343.025 124.605 346.862C124.438 349.086 124.449 351.32 124.636 353.541C121.922 353.505 119.246 354.101 116.49 353.721C113.55 344.914 111.574 332.378 110.231 325.451C108.889 318.523 108.84 321.452 109.456 317.988C110.071 314.524 110.22 317.042 109.574 313.727C108.927 310.413 111.542 306.25 113.959 303.875C115.001 300.703 116.347 297.745 117.378 294.605C124.937 287.624 125.434 283.592 132.883 276.495Z" fill="#3F3D56"/>
<path d="M203.629 353.824C202.976 353.923 202.31 353.869 201.679 353.666C201.048 353.464 200.466 353.117 199.975 352.65C199.484 352.184 199.096 351.609 198.837 350.966C198.579 350.324 198.457 349.629 198.479 348.931L183.519 342.82L190.303 337.697L203.47 344.286C204.575 344.404 205.601 344.947 206.353 345.812C207.105 346.677 207.531 347.804 207.551 348.98C207.571 350.155 207.182 351.298 206.459 352.191C205.737 353.084 204.73 353.665 203.629 353.824Z" fill="#FFB6B6"/>
<path d="M149.062 286.261C150.502 285.685 154.059 277.951 155.457 277.053C158.927 281.246 160.362 276.152 162.438 284.851C164.514 293.549 173.881 315.589 178.324 322.614C182.767 329.638 192.534 335.031 195.114 337.752C196.629 339.301 198.265 340.712 200.004 341.972C198.252 344.167 196.987 346.733 194.957 348.744C186.667 345.549 176.269 339.197 170.364 335.891C164.46 332.585 166.565 334.487 164.43 331.782C162.295 329.077 164.225 330.555 161.398 328.977C158.57 327.4 157.196 322.616 157 319.132C155.349 316.264 154.048 313.283 152.414 310.445C152.128 299.83 149.503 296.861 149.062 286.261Z" fill="#3F3D56"/>
<path d="M160.32 334.126L167.786 369.4L119.942 366.25L132.952 331.606L160.32 334.126Z" fill="#FFB6B6"/>
<path d="M152.352 496.932L157.726 496.931L160.283 474.985H152.352L152.352 496.932Z" fill="#FFB6B6"/>
<path d="M150.532 494.124L159.028 493.587V497.441L167.105 503.347C167.504 503.638 167.804 504.057 167.962 504.543C168.12 505.028 168.128 505.554 167.983 506.044C167.839 506.534 167.551 506.962 167.16 507.267C166.77 507.571 166.298 507.735 165.813 507.735H155.699L153.955 503.923L153.274 507.735H149.461L150.532 494.124Z" fill="#2F2E41"/>
<path d="M101.559 494.101L106.81 495.306L113.704 474.433L105.952 472.653L101.559 494.101Z" fill="#FFB6B6"/>
<path d="M100.342 490.949L108.752 492.331L107.98 496.097L114.691 503.681C115.022 504.056 115.232 504.533 115.289 505.042C115.347 505.552 115.249 506.068 115.009 506.514C114.77 506.961 114.403 507.315 113.96 507.524C113.517 507.734 113.023 507.788 112.549 507.68L102.665 505.409L101.725 501.293L100.296 504.865L96.5693 504.009L100.342 490.949Z" fill="#2F2E41"/>
<path d="M169.007 398.897C165.235 420.843 164.292 430.318 164.292 430.318C164.292 430.318 167.121 433.81 165.235 435.806C163.35 437.803 165.235 441.79 165.235 441.79L160.995 490.171L157.581 489.586L149.359 488.186L146.393 487.678L148.279 442.292C148.279 442.292 146.393 438.299 147.336 437.301C148.279 436.303 146.393 430.318 146.393 430.318L144.038 382.936L129.431 434.808C129.431 434.808 130.848 436.805 129.431 438.299C128.019 439.794 125.195 447.278 125.195 447.278L116.509 479.458L115.772 482.19L111.241 481.292L106.311 480.311L105.405 480.132L103.793 479.809L102.755 479.603L102.402 479.536L100.695 479.196L101.212 476.77L101.48 475.492L108.829 440.937L108.997 440.14L109.176 439.297C109.176 439.297 108.233 436.805 109.645 435.304C110.058 434.847 110.36 434.29 110.524 433.682C110.688 433.074 110.71 432.432 110.588 431.813C110.542 431.761 110.5 431.705 110.462 431.646C110.295 431.403 110.18 431.126 110.125 430.831C110.059 430.363 110.111 429.884 110.276 429.444C110.44 429.003 110.712 428.616 111.062 428.322C111.331 428.02 111.556 427.678 111.731 427.307C113.164 424.435 113.886 418.35 113.886 418.35C113.886 418.35 115.161 370.159 119.333 362.797C119.554 362.412 123.983 355.025 124.215 354.874C128.924 351.885 165.614 356.014 165.614 356.014C165.614 356.014 167.836 362.334 167.936 362.992C168.479 366.69 172.205 380.281 169.007 398.897Z" fill="#2F2E41"/>
<path d="M157.858 282.818C157.858 282.818 158.652 278.455 151.024 270.378C146.985 268.953 139.987 269.784 137.561 270.378C126.343 286.057 128.352 283.29 125.431 292.05C124.66 294.021 124.385 296.169 124.632 298.286C125.978 305.412 128.164 341.994 127.715 343.894C127.266 345.794 124.125 348.17 127.266 348.17C130.407 348.17 170.916 347.419 170.018 345.994C169.121 344.568 157.858 282.818 157.858 282.818Z" fill="#3F3D56"/>
<path d="M145.205 267.638C152.312 267.638 158.072 261.539 158.072 254.016C158.072 246.493 152.312 240.394 145.205 240.394C138.099 240.394 132.339 246.493 132.339 254.016C132.339 261.539 138.099 267.638 145.205 267.638Z" fill="#FFB6B6"/>
<path d="M134.304 259.167C134.234 260.819 133.256 262.243 132.501 263.689C131.184 266.27 130.482 269.152 130.454 272.086C130.427 275.019 131.075 277.915 132.343 280.523C133.393 282.633 134.847 284.515 135.68 286.73C136.082 287.665 136.285 288.682 136.276 289.71C136.267 290.737 136.046 291.75 135.628 292.677C133.373 290.38 132.273 291.593 129.712 289.588C130.719 292.576 129.86 292.673 130.871 295.658C126.525 296.972 122.176 298.289 117.827 299.61C120.497 297.315 122.383 294.157 123.196 290.618C124.008 287.08 123.702 283.357 122.324 280.02C120.734 276.41 117.892 273.435 116.857 269.599C116.294 267.524 116.304 265.32 116.887 263.25C117.469 261.18 118.599 259.33 120.143 257.919C121.687 256.508 123.581 255.594 125.6 255.286C127.619 254.979 129.68 255.289 131.537 256.182C132.999 255.74 134.375 257.541 134.304 259.167Z" fill="#2F2E41"/>
<path d="M150.465 238.748C148.735 234.745 144.169 235.56 140.042 236.088C137.98 236.424 136.028 237.288 134.353 238.604C132.678 239.92 131.331 241.648 130.429 243.639C128.665 247.675 128.328 252.247 129.479 256.523C130.096 259.436 131.57 262.066 133.688 264.036C135.868 265.892 146.117 270.282 146.97 266.502C145.903 271.434 143.128 274.241 146.304 278.021C147.949 272.79 154.905 267.82 156.55 262.589C156.798 261.801 155.781 252.546 156.029 251.758C156.551 250.098 157.073 248.436 157.451 246.732C157.924 244.593 158.107 242.139 156.851 240.389C155.596 238.638 152.433 238.57 151.799 240.663" fill="#2F2E41"/>
<path d="M148.394 255.407L147.844 251.7C148.218 247.09 147.607 239.756 150.465 238.748L152.213 240.598C151.107 240.989 149.005 247.883 148.394 255.407Z" fill="#FF6584"/>
<path d="M273.731 507.915C273.731 508.057 273.705 508.199 273.654 508.331C273.602 508.462 273.527 508.582 273.432 508.683C273.336 508.784 273.223 508.864 273.099 508.918C272.974 508.973 272.841 509 272.706 509H31.275C31.0031 509 30.7424 508.886 30.5502 508.682C30.358 508.479 30.25 508.203 30.25 507.915C30.25 507.627 30.358 507.351 30.5502 507.147C30.7424 506.944 31.0031 506.83 31.275 506.83H272.706C272.841 506.829 272.974 506.857 273.099 506.911C273.223 506.966 273.336 507.046 273.432 507.146C273.527 507.247 273.602 507.367 273.654 507.499C273.705 507.631 273.731 507.772 273.731 507.915Z" fill="#CCCCCC"/>
<path d="M400.117 440.471H222.676C219.021 440.471 215.516 442.008 212.931 444.745C210.347 447.481 208.895 451.192 208.895 455.062C208.895 458.932 210.347 462.643 212.931 465.38C215.516 468.116 219.021 469.653 222.676 469.653H400.117C403.772 469.653 407.277 468.116 409.862 465.38C412.447 462.643 413.899 458.932 413.899 455.062C413.899 451.192 412.447 447.481 409.862 444.745C407.277 442.008 403.772 440.471 400.117 440.471Z" fill="#E6E6E6"/>
</g>
<defs>
<clipPath id="clip0_16_4050">
<rect width="622" height="509" fill="white"/>
</clipPath>
</defs>
</svg>
