<svg width="174" height="55" viewBox="0 0 174 55" fill="none" xmlns="http://www.w3.org/2000/svg">
<path d="M7.03076 31.2966H10.4663L12.9964 28.7708L15.5188 31.2899H36.0592C36.576 31.2897 37.0879 31.3773 37.5654 31.5477C38.043 31.7181 38.477 31.9678 38.8425 32.2828C39.208 32.5977 39.498 32.9716 39.6959 33.3831C39.8937 33.7947 39.9955 34.2357 39.9955 34.6812V43.9337C39.9955 44.8331 39.5809 45.6957 38.843 46.3317C38.105 46.9677 37.1041 47.325 36.0605 47.325H7.03076C5.98712 47.325 4.98622 46.9677 4.24826 46.3317C3.51029 45.6957 3.0957 44.8331 3.0957 43.9337V34.6879C3.0957 34.2426 3.19749 33.8016 3.39524 33.3901C3.593 32.9787 3.88285 32.6048 4.24826 32.2899C4.61366 31.975 5.04746 31.7252 5.52488 31.5547C6.00231 31.3843 6.514 31.2966 7.03076 31.2966Z" fill="#6B7280"/>
<path d="M36.0598 47.6613H7.03137C5.88465 47.6601 4.78529 47.267 3.97443 46.5681C3.16358 45.8693 2.70743 44.9219 2.70605 43.9336V34.6879C2.70743 33.6996 3.16358 32.7521 3.97443 32.0533C4.78529 31.3545 5.88465 30.9614 7.03137 30.9602H10.2835L12.9918 28.2561L15.6924 30.9535H36.0598C37.2067 30.9544 38.3064 31.3474 39.1175 32.0462C39.9287 32.745 40.385 33.6927 40.3864 34.6811V43.9336C40.385 44.9221 39.9287 45.8697 39.1175 46.5685C38.3064 47.2674 37.2067 47.6604 36.0598 47.6613ZM7.03137 31.6295C6.09155 31.6304 5.19051 31.9525 4.52595 32.5253C3.8614 33.098 3.4876 33.8745 3.48656 34.6845V43.9302C3.4876 44.7402 3.8614 45.5167 4.52595 46.0895C5.19051 46.6622 6.09155 46.9843 7.03137 46.9852H36.0598C36.9991 46.9846 37.8999 46.6631 38.5646 46.091C39.2294 45.519 39.6038 44.7432 39.6059 43.9336V34.6811C39.6048 33.8712 39.231 33.0946 38.5665 32.5219C37.9019 31.9492 37.0009 31.627 36.0611 31.6261H15.3399L12.9984 29.2853L10.6464 31.6329L7.03137 31.6295Z" fill="#2F2E41"/>
<path d="M32.2115 40.7141H30.4046C30.4063 40.1884 30.5524 39.6706 30.831 39.2029C31.1095 38.7353 31.5126 38.3311 32.0072 38.0235C32.1755 37.9208 32.3103 37.7824 32.3987 37.6219C32.487 37.4613 32.5259 37.2838 32.5117 37.1065C32.4974 36.9292 32.4305 36.758 32.3173 36.6094C32.2041 36.4609 32.0484 36.3399 31.8653 36.2582C31.6822 36.1765 31.4777 36.1367 31.2716 36.1428C31.0655 36.1488 30.8647 36.2005 30.6884 36.2928C30.5122 36.3851 30.3665 36.5149 30.2653 36.6698C30.1641 36.8246 30.1108 36.9993 30.1106 37.177H28.2998C28.2999 36.733 28.4323 36.2964 28.6845 35.9091C28.9366 35.5219 29.2999 35.1969 29.7396 34.9654C30.1793 34.734 30.6807 34.6037 31.1956 34.5872C31.7105 34.5707 32.2216 34.6685 32.6801 34.8712C33.1385 35.0739 33.5289 35.3746 33.8137 35.7447C34.0985 36.1147 34.2682 36.5416 34.3066 36.9845C34.3449 37.4273 34.2506 37.8712 34.0327 38.2736C33.8149 38.676 33.4807 39.0234 33.0622 39.2825C32.7991 39.4461 32.5847 39.6611 32.4368 39.91C32.2889 40.1589 32.2117 40.4345 32.2115 40.7141Z" fill="#2F2E41"/>
<path d="M32.1975 41.9177H30.3828V43.4817H32.1975V41.9177Z" fill="#2F2E41"/>
<path d="M24.8718 36.3459H7.85938V38.1307H24.8718V36.3459Z" fill="#DEEAEC"/>
<path d="M19.2509 40.9158H7.85938V42.7006H19.2509V40.9158Z" fill="#DEEAEC"/>
<path d="M42.5364 29.1767L40.7041 30.7559L41.256 31.2315L43.0883 29.6524L42.5364 29.1767Z" fill="#2F2E41"/>
<path d="M39.2317 27.5894H38.4512V29.8226H39.2317V27.5894Z" fill="#2F2E41"/>
<path d="M44.9995 32.3628H42.4082V33.0355H44.9995V32.3628Z" fill="#2F2E41"/>
<path d="M8.49713 50H7.71662V49.3273H8.49713V50ZM6.39756 49.9932C6.12152 49.9825 5.84652 49.957 5.57413 49.917L5.70421 49.2544C5.94528 49.2893 6.18853 49.3117 6.43269 49.3217L6.39756 49.9932ZM4.24596 49.5964C3.98927 49.5087 3.73904 49.4077 3.49667 49.2937L3.87002 48.7029C4.08439 48.8041 4.30597 48.8936 4.53345 48.9708L4.24596 49.5964ZM2.36104 48.6199C2.15112 48.4651 1.95217 48.2997 1.76525 48.1244L2.34022 47.6692C2.50335 47.8241 2.6771 47.9705 2.86056 48.1075L2.36104 48.6199ZM0.943114 47.1714C0.800861 46.9675 0.673983 46.756 0.563267 46.538L1.27873 46.2678C1.3763 46.4606 1.48796 46.6478 1.61305 46.8284L0.943114 47.1714ZM0.143093 45.4035C0.0868647 45.1707 0.0469005 44.9352 0.0234153 44.6983L0.803923 44.6422C0.824538 44.8516 0.859724 45.0598 0.909291 45.2656L0.143093 45.4035ZM0.780508 43.548H0V42.8754H0.780508V43.548ZM0.780508 41.7543H0V41.0816H0.780508V41.7543ZM0.780508 39.9605H0V39.2878H0.780508V39.9605Z" fill="#2F2E41"/>
<path d="M7.2268 6.94092H6.44629V16.7304H7.2268V6.94092Z" fill="#2F2E41"/>
<path d="M36.6086 6.94092H35.8281V16.7304H36.6086V6.94092Z" fill="#2F2E41"/>
<path d="M6.83608 8.69087C7.70179 8.69087 8.40359 8.08604 8.40359 7.33994C8.40359 6.59384 7.70179 5.98901 6.83608 5.98901C5.97036 5.98901 5.26855 6.59384 5.26855 7.33994C5.26855 8.08604 5.97036 8.69087 6.83608 8.69087Z" fill="#2F2E41"/>
<path d="M36.2531 8.69087C37.1188 8.69087 37.8206 8.08604 37.8206 7.33994C37.8206 6.59384 37.1188 5.98901 36.2531 5.98901C35.3874 5.98901 34.6855 6.59384 34.6855 7.33994C34.6855 8.08604 35.3874 8.69087 36.2531 8.69087Z" fill="#2F2E41"/>
<path d="M10.3832 19.6182H8.79488C7.96761 19.6161 7.1749 19.332 6.58993 18.8278C6.00495 18.3237 5.67525 17.6405 5.67285 16.9276V16.793C5.67491 16.08 6.0045 15.3966 6.58955 14.8924C7.1746 14.3882 7.9675 14.1042 8.79488 14.1024H10.3832V19.6182ZM8.79488 14.7694C8.17451 14.7712 7.58012 14.9844 7.14145 15.3625C6.70277 15.7405 6.45542 16.2528 6.45336 16.7874V16.9276C6.45576 17.4621 6.70322 17.9742 7.14183 18.3522C7.58043 18.7302 8.17461 18.9435 8.79488 18.9455H9.60271V14.7706L8.79488 14.7694ZM34.255 19.6182H32.6667V14.0979H34.255C35.0834 14.0985 35.8778 14.382 36.4642 14.8863C37.0506 15.3906 37.3812 16.0746 37.3836 16.7885V16.9276C37.3808 17.6414 37.0501 18.3253 36.4638 18.8295C35.8775 19.3337 35.0833 19.6173 34.255 19.6182ZM33.4472 18.9455H34.255C34.8764 18.945 35.4723 18.7323 35.9123 18.3542C36.3523 17.976 36.6007 17.4631 36.6031 16.9276V16.793C36.6007 16.2575 36.3523 15.7446 35.9123 15.3664C35.4723 14.9883 34.8764 14.7756 34.255 14.775H33.4472V18.9455Z" fill="#2F2E41"/>
<path d="M9.9904 19.2817H8.79232C8.06781 19.2817 7.37297 19.0337 6.86067 18.5922C6.34836 18.1507 6.06055 17.5518 6.06055 16.9274V16.7929C6.06055 16.1685 6.34836 15.5697 6.86067 15.1281C7.37297 14.6866 8.06781 14.4386 8.79232 14.4386H9.9904V19.2817ZM34.2525 19.2817H33.0544V14.4341H34.2525C34.6118 14.4334 34.9677 14.4937 35.2999 14.6117C35.6321 14.7297 35.934 14.903 36.1884 15.1217C36.4427 15.3404 36.6445 15.6001 36.7822 15.8861C36.9199 16.1722 36.9908 16.4788 36.9908 16.7884V16.9274C36.989 17.5523 36.6998 18.1512 36.1865 18.5925C35.6731 19.0339 34.9776 19.2817 34.2525 19.2817Z" fill="#2F2E41"/>
<path d="M34.3253 16.7303C34.3256 18.9088 33.5762 21.0385 32.172 22.8501C30.7678 24.6616 28.7718 26.0736 26.4364 26.9074C24.101 27.7413 21.5312 27.9596 19.0519 27.5347C16.5726 27.1098 14.2951 26.0608 12.5076 24.5204C10.72 22.98 9.50261 21.0174 9.00935 18.8807C8.5161 16.744 8.76912 14.5292 9.73643 12.5164C10.7037 10.5037 12.3419 8.78334 14.4437 7.57296C16.5455 6.36259 19.0166 5.71655 21.5445 5.71655C23.2228 5.71641 24.8848 6.00117 26.4354 6.5546C27.986 7.10802 29.395 7.91926 30.5818 8.942C31.7686 9.96473 32.7101 11.1789 33.3524 12.5152C33.9947 13.8516 34.3253 15.2838 34.3253 16.7303Z" fill="#2F2E41"/>
<path style="mix-blend-mode:multiply" d="M21.5446 27.7439C13.8007 27.7439 7.86749 21.8671 8.87305 15.2874C9.27984 17.9354 10.7892 20.3659 13.1203 22.1264C15.4513 23.8869 18.4451 24.8575 21.5446 24.8575C24.644 24.8575 27.6379 23.8869 29.9689 22.1264C32.3 20.3659 33.8093 17.9354 34.2161 15.2874C34.4541 16.8421 34.3041 18.4228 33.7763 19.9236C33.2484 21.4244 32.3548 22.8108 31.1552 23.99C29.9556 25.1692 28.4777 26.1141 26.8203 26.7615C25.1629 27.4089 23.3643 27.7438 21.5446 27.7439Z" fill="url(#paint0_linear_297_799)"/>
<path d="M28.7477 7.63127L25.8624 10.1179H17.2313L14.3447 7.63127C16.4669 6.38273 18.9767 5.71484 21.5462 5.71484C24.1157 5.71484 26.6255 6.38273 28.7477 7.63127Z" fill="#58646D" fill-opacity="0.29"/>
<path d="M21.5448 28.0802C18.9398 28.08 16.3934 27.4141 14.2275 26.1666C12.0617 24.9191 10.3737 23.1462 9.3771 21.072C8.38045 18.9977 8.11988 16.7154 8.62834 14.5135C9.1368 12.3116 10.3915 10.2891 12.2336 8.70182C14.0758 7.11449 16.4228 6.03359 18.9778 5.59583C21.5328 5.15806 24.181 5.38307 26.5876 6.24242C28.9942 7.10177 31.0511 8.55685 32.4981 10.4237C33.9452 12.2905 34.7174 14.4852 34.7171 16.7302C34.713 19.7397 33.3238 22.6249 30.8543 24.7528C28.3848 26.8806 25.0368 28.0773 21.5448 28.0802ZM21.5448 6.05172C19.0942 6.05194 16.6987 6.67841 14.6613 7.85191C12.6239 9.02542 11.0359 10.6932 10.0983 12.6445C9.1607 14.5958 8.91551 16.7428 9.39375 18.8142C9.87199 20.8855 11.0522 22.7881 12.7851 24.2814C14.518 25.7747 16.7258 26.7917 19.1293 27.2036C21.5328 27.6155 24.024 27.404 26.288 26.5957C28.552 25.7875 30.4871 24.4188 31.8485 22.6627C33.21 20.9067 33.9366 18.8422 33.9366 16.7302C33.9325 13.8991 32.6255 11.185 30.3024 9.18331C27.9793 7.18162 24.8298 6.0558 21.5448 6.05284V6.05172Z" fill="#F9FAFB"/>
<path d="M26.2759 13.8467H16.8135C15.594 13.847 14.4246 14.2646 13.5623 15.0078C12.7 15.7509 12.2154 16.7588 12.215 17.8098C12.2082 18.7149 12.4091 19.6122 12.8062 20.4501C13.2034 21.2879 13.7889 22.0499 14.5291 22.6919C15.2693 23.334 16.1495 23.8436 17.1191 24.1913C18.0887 24.539 19.1286 24.718 20.1788 24.718H22.9106C25.0222 24.7177 27.0473 23.9946 28.5405 22.7078C30.0337 21.4209 30.8727 19.6756 30.8731 17.8557C30.8803 17.3315 30.7667 16.8112 30.5389 16.3251C30.3111 15.839 29.9736 15.3966 29.546 15.0237C29.1184 14.6508 28.6092 14.3548 28.0478 14.1527C27.4865 13.9507 26.8842 13.8466 26.2759 13.8467Z" fill="#F9FAFB"/>
<path d="M17.1045 18.4972C17.8596 18.4972 18.4717 17.9696 18.4717 17.3189C18.4717 16.6682 17.8596 16.1406 17.1045 16.1406C16.3494 16.1406 15.7373 16.6682 15.7373 17.3189C15.7373 17.9696 16.3494 18.4972 17.1045 18.4972Z" fill="#2F2E41"/>
<path d="M25.9834 18.4972C26.7385 18.4972 27.3506 17.9696 27.3506 17.3189C27.3506 16.6682 26.7385 16.1406 25.9834 16.1406C25.2283 16.1406 24.6162 16.6682 24.6162 17.3189C24.6162 17.9696 25.2283 18.4972 25.9834 18.4972Z" fill="#2F2E41"/>
<path d="M22.0444 22.5554H21.0427C20.4868 22.5562 19.9362 22.4621 19.4227 22.2785C18.9091 22.095 18.4429 21.8256 18.0508 21.4859L18.6023 21.0106C18.9226 21.2881 19.3035 21.508 19.7231 21.6577C20.1427 21.8075 20.5925 21.884 21.0466 21.8828H22.0444C22.4983 21.8839 22.9479 21.8073 23.3673 21.6576C23.7866 21.5079 24.1673 21.288 24.4874 21.0106L25.0389 21.4859C24.6467 21.826 24.18 22.0956 23.666 22.2792C23.152 22.4628 22.6008 22.5567 22.0444 22.5554ZM30.4231 6.05283C30.1165 6.05197 29.8168 5.97408 29.5608 5.82869C29.3048 5.6833 29.1035 5.47672 28.9816 5.23425C28.8597 4.99178 28.8225 4.72394 28.8745 4.46352C28.9265 4.2031 29.0655 3.9614 29.2745 3.76802C30.2228 2.89469 31.9516 3.43169 31.9985 4.65033C32.0054 4.83236 31.9698 5.01374 31.8938 5.18366C31.8178 5.35359 31.7028 5.5086 31.5559 5.63946C31.4089 5.77032 31.2328 5.87435 31.0382 5.94537C30.8436 6.01638 30.6345 6.05293 30.4231 6.05283ZM29.8495 4.22431C29.7607 4.30639 29.6967 4.40603 29.6632 4.51444C29.6296 4.62286 29.6276 4.73672 29.6571 4.84599C29.6867 4.95526 29.747 5.05658 29.8328 5.14101C29.9185 5.22544 30.0271 5.2904 30.1488 5.33014C30.2706 5.36989 30.4018 5.3832 30.5309 5.36892C30.6601 5.35463 30.7831 5.31318 30.8893 5.24823C30.9955 5.18327 31.0814 5.0968 31.1397 4.99644C31.1979 4.89608 31.2266 4.78492 31.2232 4.67275C31.2184 4.53728 31.1672 4.40605 31.0759 4.2957C30.9846 4.18534 30.8573 4.1008 30.7102 4.05279C30.5632 4.00478 30.4029 3.99545 30.2496 4.02598C30.0964 4.05651 29.9572 4.12554 29.8495 4.22431ZM23.7706 1.93726C23.5499 1.93738 23.334 1.88148 23.1499 1.77655C22.9658 1.67162 22.8217 1.52229 22.7354 1.34721C22.6491 1.17212 22.6246 0.979017 22.6649 0.79199C22.7051 0.604962 22.8084 0.432288 22.9617 0.295506C23.1151 0.158724 23.3118 0.0638896 23.5273 0.0228327C23.7429 -0.0182243 23.9676 -0.00368646 24.1736 0.0646328C24.3796 0.132952 24.5577 0.252028 24.6857 0.407008C24.8136 0.561988 24.8858 0.74601 24.8932 0.93612C24.8983 1.06594 24.873 1.19531 24.8189 1.31653C24.7647 1.43775 24.6829 1.54836 24.5781 1.64176C24.4734 1.73516 24.3479 1.80945 24.2092 1.86022C24.0705 1.91099 23.9213 1.93719 23.7706 1.93726ZM23.5195 0.765713C23.4811 0.801273 23.4534 0.844451 23.4389 0.891429C23.4244 0.938408 23.4235 0.987741 23.4364 1.03507C23.4493 1.0824 23.4755 1.12627 23.5127 1.16279C23.5499 1.19932 23.597 1.22739 23.6498 1.24451C23.7026 1.26164 23.7595 1.26729 23.8154 1.26097C23.8713 1.25466 23.9246 1.23657 23.9705 1.2083C24.0163 1.18003 24.0535 1.14246 24.0785 1.0989C24.1035 1.05534 24.1157 1.00713 24.114 0.958542C24.1114 0.900165 24.0888 0.843762 24.0491 0.796387C24.0094 0.749012 23.9544 0.712768 23.891 0.692189C23.8276 0.67161 23.7585 0.667608 23.6924 0.680686C23.6263 0.693763 23.5662 0.723339 23.5195 0.765713Z" fill="#2F2E41"/>
<g clip-path="url(#clip0_297_799)">
<g clip-path="url(#clip1_297_799)">
<g clip-path="url(#clip2_297_799)">
<g clip-path="url(#clip3_297_799)">
<g clip-path="url(#clip4_297_799)">
<g clip-path="url(#clip5_297_799)">
<g clip-path="url(#clip6_297_799)">
<g clip-path="url(#clip7_297_799)">
<path d="M61.4024 43.8785C58.7862 43.8785 56.8531 43.4573 55.6028 42.6149C54.3471 41.7779 53.7192 40.2032 53.7192 37.8906C53.7192 37.4226 53.755 36.8582 53.8266 36.1974C53.8927 35.5367 53.9946 34.7383 54.1323 33.8023C54.3526 32.4533 54.5178 31.2474 54.628 30.1847C54.7381 29.1275 54.7932 27.9657 54.7932 26.6993C54.7932 25.8734 54.7739 25.075 54.7354 24.3041C54.6913 23.5333 54.6142 22.8037 54.5041 22.1154C54.091 22.198 53.8156 22.2393 53.6779 22.2393C53.4576 22.2393 53.3061 22.1898 53.2235 22.0907C53.1409 21.997 53.0996 21.8126 53.0996 21.5373C53.0996 20.9591 53.1685 20.3865 53.3061 19.8194C53.4438 19.2577 53.6366 18.798 53.8844 18.4401C54.3526 17.7793 55.0686 17.3939 56.0324 17.2838C56.776 17.2012 57.693 17.1186 58.7835 17.036C59.8685 16.9534 60.9838 16.8901 62.1294 16.846C63.2695 16.8075 64.2939 16.7882 65.2026 16.7882C67.7361 16.7882 69.237 16.8433 69.7051 16.9534C70.4211 17.0635 70.7791 17.449 70.7791 18.1097C70.7791 18.9356 70.49 19.6927 69.9117 20.381C69.6087 20.794 69.3058 21.0885 69.0029 21.2647C68.7 21.4464 68.2731 21.5235 67.7224 21.496C66.5107 21.4134 65.4505 21.3583 64.5417 21.3308C63.633 21.3033 62.9996 21.2895 62.6416 21.2895C62.0082 21.2895 61.3556 21.3033 60.6836 21.3308C60.0062 21.3583 59.3232 21.3996 58.6348 21.4547C58.6348 22.4183 58.5935 23.4507 58.5109 24.5519C58.4282 25.6531 58.3181 26.8094 58.1804 28.0208C59.4472 27.9382 60.8791 27.8749 62.4764 27.8308C64.0736 27.7923 65.4918 27.773 66.731 27.773C67.2818 27.773 67.6618 27.8281 67.8711 27.9382C68.0749 28.0483 68.1768 28.3374 68.1768 28.8054C68.1768 29.2459 68.0611 29.7332 67.8298 30.2673C67.5929 30.8069 67.2818 31.2694 66.8962 31.6549C66.731 31.82 66.552 31.9494 66.3592 32.043C66.1665 32.1422 65.9049 32.1779 65.5744 32.1504C64.3903 32.0954 63.0491 32.0541 61.5511 32.0265C60.0475 31.999 58.7312 31.999 57.6021 32.0265C57.4919 32.6597 57.4093 33.2379 57.3543 33.761C57.2992 34.2841 57.2716 34.7521 57.2716 35.165C57.2716 36.6792 57.6572 37.7392 58.4282 38.3449C59.1993 38.9505 60.4661 39.2534 62.2285 39.2534C63.3025 39.2534 64.3434 39.157 65.3513 38.9643C66.3537 38.7716 67.3781 38.4137 68.4246 37.8906C68.8101 37.6703 69.0993 37.5602 69.2921 37.5602C69.595 37.5602 69.8924 37.7722 70.1843 38.1962C70.4707 38.6257 70.6139 39.0882 70.6139 39.5837C70.6139 40.1894 70.3881 40.7593 69.9364 41.2934C69.4793 41.833 68.879 42.2955 68.1354 42.681C67.2818 43.0664 66.2629 43.3637 65.0787 43.573C63.8946 43.7767 62.6691 43.8785 61.4024 43.8785ZM75.3229 43.796C75.02 43.796 74.7308 43.7079 74.4555 43.5317C74.1801 43.35 74.0699 43.1077 74.125 42.8048C74.5381 40.6024 74.8878 38.3641 75.1742 36.0901C75.4661 33.8215 75.6121 31.531 75.6121 29.2184C75.6121 27.1811 75.5432 25.3365 75.4055 23.6847C75.2678 22.0328 74.8272 20.4498 74.0837 18.9356C73.946 18.6328 73.8358 18.3712 73.7532 18.151C73.6706 17.9307 73.6293 17.7243 73.6293 17.5315C73.6293 17.0085 73.9322 16.4991 74.5381 16.0036C75.1439 15.508 75.7911 15.2603 76.4795 15.2603C77.4709 15.2603 78.1456 15.8659 78.5036 17.0773C78.8616 18.2886 79.0406 20.0781 79.0406 22.4458C79.0406 25.2815 78.8753 27.7537 78.5449 29.8626C78.2144 31.966 77.9253 33.5683 77.6774 34.6695L77.8426 34.7521C78.3934 33.4031 79.0956 32.1009 79.9493 30.8455C80.803 29.5956 81.7861 28.5576 82.8987 27.7317C84.0167 26.9058 85.2366 26.4928 86.5585 26.4928C87.8528 26.4928 88.8497 26.8783 89.5491 27.6491C90.2541 28.42 90.6066 29.3423 90.6066 30.416C90.6066 31.6824 90.1522 32.8112 89.2435 33.8023C88.3347 34.7934 87.1505 35.6193 85.691 36.28C86.049 37.2161 86.5585 37.9512 87.2194 38.4853C87.8803 39.0249 88.7202 39.2947 89.7391 39.2947C90.0696 39.2947 90.345 39.2671 90.5653 39.2121C90.9233 39.1295 91.1023 39.4736 91.1023 40.2445C91.1023 40.685 91.0197 41.1805 90.8544 41.7311C90.6892 42.2818 90.3643 42.7553 89.8796 43.1517C89.4004 43.5537 88.6789 43.7547 87.7151 43.7547C86.4208 43.7547 85.3661 43.3747 84.5509 42.6149C83.7413 41.8605 83.1079 40.9245 82.6508 39.8067C82.1992 38.6945 81.8495 37.5878 81.6016 36.4865C81.3813 35.4679 81.7255 34.931 82.6343 34.876C83.5981 34.7658 84.4105 34.4768 85.0714 34.0087C85.7323 33.5407 86.0628 32.9213 86.0628 32.1504C86.0628 31.2694 85.6359 30.8289 84.7823 30.8289C84.2315 30.8289 83.6725 31.0272 83.1052 31.4236C82.5434 31.8256 82.0202 32.3018 81.5355 32.8525C81.0564 33.4031 80.6653 33.9399 80.3624 34.463C79.9493 35.1788 79.5913 35.8808 79.2884 36.5691C78.9855 37.2574 78.7376 37.9457 78.5449 38.6339V40.2858C78.5449 41.3044 78.2475 42.1441 77.6526 42.8048C77.0633 43.4656 76.2867 43.796 75.3229 43.796ZM100.438 43.8785C98.7579 43.8785 97.5517 43.3197 96.8192 42.2019C96.0922 41.0897 95.7287 39.6526 95.7287 37.8906C95.7287 37.2574 95.7617 36.6379 95.8278 36.0323C95.8994 35.4266 95.9765 34.8209 96.0591 34.2152C96.1418 33.6096 96.2244 33.0176 96.307 32.4395C96.3896 31.8613 96.4585 31.3107 96.5135 30.7876C95.9352 30.9528 95.3569 31.0354 94.7786 31.0354C94.1728 31.0354 93.8699 30.7876 93.8699 30.2921C93.8699 29.769 94.1039 29.1275 94.5721 28.3677C95.0402 27.6133 95.624 26.8645 96.3235 26.1212C97.0285 25.3778 97.7307 24.7501 98.4302 24.2381C99.1352 23.7315 99.7355 23.4782 100.231 23.4782C100.837 23.4782 101.14 24.0013 101.14 25.0475C101.14 25.3228 101.118 25.6036 101.074 25.8899C101.035 26.1817 100.988 26.4791 100.933 26.7819C101.457 26.6718 101.985 26.5754 102.52 26.4928C103.059 26.4102 103.577 26.3689 104.073 26.3689C104.706 26.3689 105.194 26.4791 105.535 26.6993C105.882 26.9196 106.056 27.3463 106.056 27.9795C106.056 28.6402 105.896 29.301 105.576 29.9617C105.257 30.6225 104.907 30.9528 104.527 30.9528C104.445 30.9528 104.307 30.9391 104.114 30.9115C103.921 30.884 103.687 30.8427 103.412 30.7876C103.054 30.705 102.599 30.6225 102.049 30.5399C101.498 30.4573 100.837 30.416 100.066 30.416C99.8732 31.2694 99.6997 32.1422 99.5455 33.0342C99.3968 33.9317 99.3224 34.7383 99.3224 35.4541C99.3224 37.0509 99.7217 38.1384 100.52 38.7165C101.319 39.2947 102.476 39.5837 103.99 39.5837C104.453 39.5837 104.783 39.6581 104.982 39.8067C105.174 39.9609 105.271 40.2307 105.271 40.6161C105.271 41.5247 104.803 42.2955 103.866 42.9287C102.93 43.5619 101.787 43.8785 100.438 43.8785ZM114.722 43.8785C112.629 43.8785 110.999 43.2784 109.831 42.078C108.658 40.8832 108.071 39.2121 108.071 37.0647C108.071 35.11 108.498 33.3342 109.352 31.7375C110.205 30.1407 111.357 28.866 112.805 27.9134C114.248 26.9664 115.837 26.4928 117.572 26.4928C119.224 26.4928 120.546 26.8975 121.537 27.7069C122.529 28.5219 123.025 29.6038 123.025 30.9528C123.025 32.0265 122.694 33.0176 122.033 33.9262C121.372 34.8347 120.491 35.556 119.389 36.0901C118.288 36.6297 117.063 36.8995 115.713 36.8995C114.061 36.8995 112.711 36.5278 111.665 35.7845C111.693 37.0509 112.128 38.0695 112.97 38.8404C113.807 39.6113 114.887 39.9967 116.209 39.9967C117.007 39.9967 117.828 39.8508 118.671 39.559C119.508 39.2726 120.229 38.8817 120.835 38.3861C121.221 38.0558 121.579 37.8906 121.909 37.8906C122.185 37.8906 122.413 37.9787 122.595 38.1549C122.771 38.3366 122.859 38.5651 122.859 38.8404C122.859 39.4461 122.336 40.2445 121.29 41.2356C119.445 42.9976 117.255 43.8785 114.722 43.8785ZM115.341 34.1739C116.333 34.1739 117.159 33.9675 117.82 33.5545C118.481 33.1415 118.811 32.6184 118.811 31.9852C118.811 31.4621 118.591 31.0547 118.15 30.7629C117.71 30.4765 117.104 30.3334 116.333 30.3334C115.314 30.3334 114.427 30.6004 113.673 31.1345C112.913 31.6741 112.367 32.4257 112.037 33.3893C112.422 33.6371 112.918 33.8298 113.524 33.9675C114.13 34.1051 114.736 34.1739 115.341 34.1739ZM128.808 54.7395C127.981 54.7395 127.334 54.5137 126.866 54.0622C126.398 53.6052 126.164 52.7848 126.164 51.6009C126.164 50.8026 126.255 49.7977 126.436 48.5863C126.613 47.375 126.825 46.0948 127.073 44.7458C127.265 43.6721 127.453 42.5433 127.634 41.3595C127.811 40.1757 127.962 39.0111 128.089 37.8658C128.21 36.726 128.271 35.7019 128.271 34.7934C128.271 33.7472 128.155 32.8387 127.924 32.0678C127.687 31.297 127.21 30.8014 126.494 30.5812C126.219 30.471 125.971 30.3471 125.751 30.2095C125.53 30.0718 125.42 29.8516 125.42 29.5488C125.42 29.1633 125.572 28.7366 125.875 28.2686C126.178 27.8005 126.613 27.3931 127.18 27.0462C127.742 26.7048 128.381 26.5341 129.097 26.5341C130.033 26.5341 130.68 26.8562 131.038 27.5005C131.396 28.1502 131.575 28.9981 131.575 30.0443C131.575 30.3471 131.561 30.6555 131.534 30.9693C131.506 31.2887 131.465 31.6136 131.41 31.9439C132.208 30.4022 133.263 29.1 134.574 28.0373C135.879 26.9801 137.358 26.4515 139.01 26.4515C140.663 26.4515 141.965 27.0077 142.918 28.1199C143.865 29.2377 144.339 30.7463 144.339 32.646C144.339 34.05 144.119 35.4183 143.678 36.7508C143.238 38.0888 142.618 39.2947 141.819 40.3684C141.021 41.4421 140.065 42.2955 138.953 42.9287C137.835 43.5619 136.587 43.8785 135.21 43.8785C134.219 43.8785 133.351 43.7079 132.608 43.3665C131.864 43.0196 131.217 42.5708 130.666 42.0202C130.556 42.736 130.454 43.6032 130.361 44.6219C130.262 45.6405 130.212 46.5903 130.212 47.4713C130.212 48.49 130.33 49.2884 130.567 49.8665C130.799 50.4447 131.258 50.8851 131.947 51.188C132.25 51.3256 132.401 51.5459 132.401 51.8487C132.401 52.069 132.291 52.4131 132.071 52.8811C131.85 53.3492 131.487 53.7759 130.98 54.1613C130.468 54.5467 129.744 54.7395 128.808 54.7395ZM136.16 39.4186C137.73 39.4186 138.942 38.923 139.795 37.9319C140.649 36.9408 141.076 35.7983 141.076 34.5043C141.076 33.3755 140.773 32.5001 140.167 31.8779C139.561 31.2612 138.749 30.9528 137.73 30.9528C136.683 30.9528 135.761 31.2612 134.962 31.8779C134.164 32.5001 133.484 33.3067 132.922 34.2978C132.354 35.2889 131.892 36.3489 131.534 37.4776C132.911 38.7716 134.453 39.4186 136.16 39.4186ZM150.576 43.7547C149.778 43.7547 149.186 43.5344 148.8 43.0939C148.415 42.6534 148.222 41.8826 148.222 40.7813C148.222 40.2582 148.263 39.5837 148.346 38.7578C148.428 37.9319 148.525 37.0371 148.635 36.0736C148.8 34.8897 148.943 33.6508 149.065 32.3569C149.191 31.0629 149.255 29.8241 149.255 28.6402C149.255 26.9609 149.178 25.2182 149.023 23.4121C148.875 21.6116 148.456 20.0369 147.768 18.6878C147.52 18.1372 147.396 17.738 147.396 17.4903C147.396 17.1324 147.553 16.7882 147.867 16.4578C148.186 16.1275 148.58 15.8439 149.048 15.6071C149.516 15.3759 149.971 15.2603 150.411 15.2603C151.127 15.2603 151.664 15.5824 152.022 16.2266C152.38 16.8763 152.614 17.7573 152.724 18.8695C152.835 19.9873 152.89 21.262 152.89 22.6936C152.89 24.8685 152.799 26.7544 152.617 28.3512C152.441 29.948 152.27 31.352 152.105 32.5634C151.995 33.3618 151.89 34.1189 151.791 34.8347C151.697 35.5505 151.65 36.1974 151.65 36.7756C151.65 37.7392 151.807 38.433 152.121 38.8569C152.441 39.2864 152.958 39.7076 153.674 40.1206C153.867 40.2307 154.01 40.3326 154.104 40.4262C154.203 40.5253 154.253 40.6712 154.253 40.8639C154.253 41.0842 154.143 41.4283 153.922 41.8963C153.702 42.3644 153.322 42.7911 152.782 43.1765C152.248 43.5619 151.513 43.7547 150.576 43.7547ZM158.094 54.7395C156.965 54.7395 155.993 54.4366 155.178 53.8309C154.368 53.2253 153.964 52.4131 153.964 51.3945C153.964 50.5961 154.203 49.9161 154.682 49.3544C155.167 48.7873 155.767 48.5037 156.483 48.5037C156.814 48.5037 157.048 48.5588 157.186 48.6689C157.323 48.779 157.433 48.9029 157.516 49.0406C157.736 49.3985 157.99 49.7096 158.276 49.9739C158.568 50.2327 158.962 50.3621 159.458 50.3621C160.118 50.3621 160.757 50.128 161.374 49.66C161.997 49.192 162.569 48.6551 163.093 48.0495C163.561 47.5264 164.125 46.7775 164.786 45.803C165.447 44.8229 166.108 43.7134 166.769 42.4745C166.163 42.9976 165.599 43.3775 165.075 43.6143C164.552 43.8455 164.056 43.9611 163.588 43.9611C163.01 43.9611 162.445 43.7464 161.895 43.3169C161.344 42.8929 161 42.089 160.862 40.9052C160.779 39.9967 160.62 38.9918 160.383 37.8906C160.151 36.7894 159.862 35.7212 159.515 34.686C159.174 33.6564 158.755 32.7836 158.26 32.0678C158.067 31.7375 157.847 31.4897 157.599 31.3245C157.351 31.1593 156.993 31.0492 156.525 30.9941C156.194 30.9666 155.979 30.8702 155.88 30.705C155.787 30.5399 155.74 30.2783 155.74 29.9204C155.74 28.9293 156.015 28.1309 156.566 27.5252C157.117 26.9196 157.86 26.6167 158.797 26.6167C159.926 26.6167 160.738 27.049 161.234 27.9134C161.729 28.7834 162.156 29.8378 162.514 31.0767C162.652 31.5723 162.795 32.2248 162.944 33.0342C163.098 33.8491 163.236 34.7246 163.357 35.6606C163.484 36.5966 163.574 37.4914 163.63 38.3449C163.657 38.9505 164.001 39.2534 164.662 39.2534C165.543 39.2534 166.383 38.9781 167.182 38.4274C167.981 37.8768 168.633 37.161 169.14 36.28C169.652 35.3991 169.908 34.4768 169.908 33.5132C169.908 32.9626 169.839 32.467 169.702 32.0265C169.564 31.586 169.33 31.2006 168.999 30.8702C168.724 30.5399 168.504 30.2728 168.339 30.0691C168.173 29.8599 168.091 29.6176 168.091 29.3423C168.091 28.8742 168.311 28.4338 168.752 28.0208C169.192 27.6078 169.721 27.2637 170.338 26.9884C170.96 26.7131 171.505 26.5754 171.974 26.5754C172.8 26.5754 173.351 26.9664 173.626 27.7482C173.901 28.5356 173.97 29.3973 173.832 30.3334C173.667 31.6273 173.337 33.1553 172.841 34.9173C172.345 36.6792 171.704 38.5238 170.916 40.451C170.134 42.3781 169.239 44.2447 168.231 46.0507C167.229 47.8512 166.163 49.426 165.034 50.775C164.07 51.9588 162.996 52.9169 161.812 53.6492C160.628 54.3761 159.389 54.7395 158.094 54.7395Z" fill="#2F2E41"/>
</g>
</g>
</g>
</g>
</g>
</g>
</g>
</g>
<defs>
<linearGradient id="paint0_linear_297_799" x1="8.76247" y1="21.5162" x2="34.328" y2="21.5162" gradientUnits="userSpaceOnUse">
<stop stop-color="#CADADD"/>
<stop offset="1" stop-color="#EEF0F1"/>
</linearGradient>
<clipPath id="clip0_297_799">
<rect width="121" height="40" fill="white" transform="translate(53 15)"/>
</clipPath>
<clipPath id="clip1_297_799">
<rect width="120.802" height="39.7073" fill="white" transform="translate(53.0996 15.1462)"/>
</clipPath>
<clipPath id="clip2_297_799">
<rect width="120.802" height="39.7073" fill="white" transform="translate(53.0996 15.1462)"/>
</clipPath>
<clipPath id="clip3_297_799">
<rect width="120.802" height="39.7073" fill="white" transform="translate(53.0996 15.1462)"/>
</clipPath>
<clipPath id="clip4_297_799">
<rect width="120.802" height="39.7073" fill="white" transform="translate(53.0996 15.1462)"/>
</clipPath>
<clipPath id="clip5_297_799">
<rect width="120.802" height="39.7073" fill="white" transform="translate(53.0996 15.1462)"/>
</clipPath>
<clipPath id="clip6_297_799">
<rect width="120.802" height="39.7073" fill="white" transform="translate(53.0996 15.1462)"/>
</clipPath>
<clipPath id="clip7_297_799">
<rect width="120.802" height="39.7073" fill="white" transform="translate(53.0996 15.1462)"/>
</clipPath>
</defs>
</svg>
