<svg width="80" height="45" viewBox="0 0 80 45" fill="none" xmlns="http://www.w3.org/2000/svg">
<g clip-path="url(#clip0_112_725)">
<g clip-path="url(#clip1_112_725)">
<g clip-path="url(#clip2_112_725)">
<g clip-path="url(#clip3_112_725)">
<g clip-path="url(#clip4_112_725)">
<g clip-path="url(#clip5_112_725)">
<g clip-path="url(#clip6_112_725)">
<g clip-path="url(#clip7_112_725)">
<g clip-path="url(#clip8_112_725)">
<path d="M67.2058 6.62251H66.6396V5.35522H67.1701C67.2675 5.35522 67.3488 5.36905 67.4139 5.3967C67.4792 5.42435 67.5281 5.46257 67.5607 5.51137C67.5935 5.56017 67.6099 5.6164 67.6099 5.68006C67.6099 5.72955 67.5996 5.77301 67.5789 5.81042C67.5583 5.84759 67.53 5.87803 67.494 5.90173C67.4578 5.92543 67.4167 5.94228 67.3705 5.95227V5.96482C67.421 5.96668 67.4684 5.98027 67.5126 6.0056C67.5568 6.03069 67.5928 6.06578 67.6204 6.11086C67.6479 6.15617 67.6616 6.20996 67.6616 6.27223C67.6616 6.33938 67.6444 6.39933 67.6099 6.45207C67.5751 6.50459 67.5239 6.54618 67.4561 6.57685C67.3884 6.60729 67.3049 6.62251 67.2058 6.62251ZM66.9198 6.06694V6.40328H67.1483C67.2262 6.40328 67.2831 6.38899 67.3188 6.36041C67.3547 6.33183 67.3727 6.29361 67.3727 6.24574C67.3727 6.21065 67.3638 6.17963 67.3461 6.15268C67.3284 6.12596 67.3032 6.10493 67.2707 6.08959C67.2381 6.07449 67.1994 6.06694 67.1545 6.06694H66.9198ZM66.9198 5.57167V5.88535H67.1275C67.1659 5.88535 67.2 5.87884 67.2299 5.86583C67.26 5.85282 67.2838 5.83435 67.3013 5.81042C67.3185 5.78648 67.3272 5.7579 67.3272 5.72467C67.3272 5.6789 67.3103 5.64196 67.2765 5.61384C67.2427 5.58572 67.1948 5.57167 67.1326 5.57167H66.9198ZM68.4147 6.62251H68.1418L67.7625 5.35522H68.0686L68.2879 6.23563H68.2988L68.5408 5.35522H68.8027L69.0443 6.23772H69.0559L69.2749 5.35522H69.581L69.202 6.62251H68.9292L68.6767 5.79403H68.6665L68.4147 6.62251Z" fill="black"/>
</g>
<path d="M66.0312 5.98901C66.0312 4.89 66.9624 3.99927 68.111 3.99927C69.2596 3.99927 70.1907 4.89 70.1907 5.98901C70.1907 7.08781 69.2596 7.97855 68.111 7.97855C66.9624 7.97855 66.0312 7.08781 66.0312 5.98901ZM68.111 7.8938C69.2106 7.8938 70.1021 7.04099 70.1021 5.98901C70.1021 4.93683 69.2106 4.08402 68.111 4.08402C67.0113 4.08402 66.1198 4.93683 66.1198 5.98901C66.1198 7.04099 67.0113 7.8938 68.111 7.8938Z" fill="black"/>
<path d="M14.5071 7.97846C14.0198 7.97846 13.647 7.87252 13.3886 7.66064C13.1302 7.44876 13.001 7.14507 13.001 6.74957C13.001 6.6295 13.0121 6.50237 13.0342 6.36819L13.8094 2.13062C13.9127 1.62212 14.1232 1.23367 14.4406 0.965295C14.7581 0.696916 15.1752 0.562726 15.692 0.562726H19.2357C19.4277 0.562726 19.5753 0.599452 19.6787 0.672903C19.7821 0.747766 19.8337 0.855824 19.8337 0.997076C19.8337 1.19483 19.7599 1.35374 19.6123 1.4738C19.4646 1.59387 19.2726 1.6539 19.0364 1.6539H15.847C15.6994 1.6539 15.5761 1.6998 15.4772 1.79162C15.3768 1.88343 15.3118 2.01056 15.2823 2.173L15.0054 3.64555H17.8293C18.0213 3.64555 18.1689 3.68228 18.2723 3.75573C18.3756 3.83059 18.4273 3.93865 18.4273 4.0799C18.4273 4.27766 18.3535 4.43656 18.2058 4.55663C18.0582 4.67669 17.8662 4.73672 17.63 4.73672H14.8061L14.5071 6.36819C14.4997 6.4035 14.496 6.45294 14.496 6.5165C14.496 6.63656 14.5292 6.72838 14.5957 6.79194C14.6621 6.8555 14.7581 6.88729 14.8836 6.88729H18.3166C18.5085 6.88729 18.6562 6.92401 18.7595 6.99746C18.8629 7.07233 18.9146 7.18039 18.9146 7.32164C18.9146 7.51939 18.8408 7.6783 18.6931 7.79836C18.5454 7.91843 18.3535 7.97846 18.1172 7.97846H14.5071ZM25.9577 8.0844C25.7436 8.0844 25.5738 8.04697 25.4483 7.9721C25.3228 7.89865 25.2601 7.78071 25.2601 7.61827C25.2527 6.88376 25.0954 6.26225 24.7883 5.75374C24.4827 5.24523 23.9681 4.79323 23.2446 4.39772L21.9821 5.26642L21.5835 7.44876C21.5465 7.64652 21.4469 7.80189 21.2844 7.9149C21.122 8.0279 20.9338 8.0844 20.7197 8.0844C20.5277 8.0844 20.3764 8.0399 20.2656 7.95091C20.1549 7.86334 20.0995 7.74186 20.0995 7.58648C20.0995 7.52998 20.1032 7.48408 20.1106 7.44876L21.2844 1.09242C21.3214 0.894668 21.4151 0.739291 21.5657 0.626289C21.7178 0.513288 21.9046 0.456787 22.1261 0.456787C22.318 0.456787 22.4731 0.500575 22.5912 0.588151C22.7093 0.67714 22.7684 0.802855 22.7684 0.965295C22.7684 1.0218 22.7647 1.06417 22.7573 1.09242L22.27 3.7303L26.5447 0.647478C26.7071 0.527413 26.8769 0.467381 27.0541 0.467381C27.2313 0.467381 27.3715 0.534476 27.4749 0.668665C27.5635 0.781667 27.6078 0.894668 27.6078 1.00767C27.6078 1.18423 27.4934 1.35727 27.2645 1.52677L24.3077 3.64555C25.1124 4.10462 25.7193 4.67316 26.1283 5.35117C26.5388 6.02918 26.7256 6.71425 26.6886 7.40639C26.6813 7.58295 26.6037 7.73974 26.4561 7.87676C26.3084 8.01518 26.1423 8.0844 25.9577 8.0844ZM31.0053 8.0844C30.8075 8.0844 30.6547 8.03637 30.5469 7.94032C30.4406 7.84568 30.3874 7.7242 30.3874 7.57589C30.3874 7.51939 30.3904 7.47701 30.3963 7.44876L31.4616 1.6539H29.3243C29.1397 1.6539 28.9935 1.61647 28.8858 1.5416C28.7794 1.46815 28.7263 1.36433 28.7263 1.23014C28.7263 1.02533 28.8001 0.862886 28.9478 0.742822C29.0954 0.622758 29.2866 0.562726 29.5214 0.562726H35.2689C35.4623 0.562726 35.61 0.599452 35.7119 0.672903C35.8167 0.747766 35.8691 0.855824 35.8691 0.997076C35.8691 1.19483 35.7953 1.35374 35.6476 1.4738C35.5 1.59387 35.3073 1.6539 35.0696 1.6539H32.9345L31.8713 7.44876C31.8344 7.63945 31.7362 7.79271 31.5768 7.90854C31.4173 8.02578 31.2268 8.0844 31.0053 8.0844ZM37.3619 7.97846C36.8747 7.97846 36.5018 7.87252 36.2434 7.66064C35.985 7.44876 35.8558 7.14507 35.8558 6.74957C35.8558 6.6295 35.8669 6.50237 35.8891 6.36819L36.6642 2.13062C36.7676 1.62212 36.978 1.23367 37.2955 0.965295C37.6129 0.696916 38.0301 0.562726 38.5468 0.562726H42.0906C42.2825 0.562726 42.4302 0.599452 42.5335 0.672903C42.6369 0.747766 42.6886 0.855824 42.6886 0.997076C42.6886 1.19483 42.6148 1.35374 42.4671 1.4738C42.3194 1.59387 42.1275 1.6539 41.8912 1.6539H38.7019C38.5542 1.6539 38.4309 1.6998 38.332 1.79162C38.2316 1.88343 38.1666 2.01056 38.1371 2.173L37.8603 3.64555H40.6842C40.8761 3.64555 41.0238 3.68228 41.1271 3.75573C41.2305 3.83059 41.2822 3.93865 41.2822 4.0799C41.2822 4.27766 41.2083 4.43656 41.0607 4.55663C40.913 4.67669 40.7211 4.73672 40.4848 4.73672H37.6609L37.3619 6.36819C37.3545 6.4035 37.3508 6.45294 37.3508 6.5165C37.3508 6.63656 37.3841 6.72838 37.4505 6.79194C37.517 6.8555 37.6129 6.88729 37.7384 6.88729H41.1714C41.3634 6.88729 41.511 6.92401 41.6144 6.99746C41.7178 7.07233 41.7694 7.18039 41.7694 7.32164C41.7694 7.51939 41.6956 7.6783 41.5479 7.79836C41.4003 7.91843 41.2083 7.97846 40.9721 7.97846H37.3619ZM43.6299 8.0844C43.4306 8.0844 43.2696 8.03496 43.1471 7.93608C43.026 7.83721 42.9654 7.71008 42.9654 7.5547C42.9654 7.50526 42.9691 7.46995 42.9765 7.44876L43.951 2.13062C44.0396 1.63624 44.2596 1.25133 44.6111 0.975889C44.961 0.700447 45.4018 0.562726 45.9333 0.562726H47.8048C48.8532 0.562726 49.6173 0.73011 50.0972 1.06488C50.5771 1.40106 50.817 1.93287 50.817 2.66032C50.817 3.28183 50.662 3.8313 50.3519 4.30873C50.0418 4.78475 49.6048 5.15483 49.0407 5.41897C48.4752 5.68453 47.827 5.8173 47.0961 5.8173H44.7484L44.4494 7.44876C44.4125 7.64652 44.3202 7.80189 44.1725 7.9149C44.0249 8.0279 43.844 8.0844 43.6299 8.0844ZM47.0961 4.72613C47.7679 4.72613 48.3069 4.54745 48.7129 4.19008C49.119 3.83412 49.322 3.35952 49.322 2.76626C49.322 2.35663 49.2061 2.06847 48.9743 1.9018C48.741 1.73653 48.3364 1.6539 47.7606 1.6539H45.9887C45.841 1.6539 45.717 1.6998 45.6166 1.79162C45.5177 1.88343 45.4534 2.01056 45.4239 2.173L44.9477 4.72613H47.0961ZM52.8657 7.97846C52.3785 7.97846 52.0056 7.87252 51.7473 7.66064C51.4889 7.44876 51.3597 7.14507 51.3597 6.74957C51.3597 6.6295 51.3707 6.50237 51.3929 6.36819L52.3674 1.09242C52.4043 0.894668 52.4966 0.739291 52.6443 0.626289C52.7919 0.513288 52.9802 0.456787 53.209 0.456787C53.4084 0.456787 53.5649 0.502694 53.6786 0.594508C53.7938 0.686322 53.8513 0.813449 53.8513 0.975889C53.8513 1.02533 53.8476 1.06417 53.8403 1.09242L52.8657 6.36819C52.8584 6.4035 52.8547 6.45294 52.8547 6.5165C52.8547 6.63656 52.8879 6.72838 52.9543 6.79194C53.0208 6.8555 53.1168 6.88729 53.2423 6.88729H56.786C56.9779 6.88729 57.1256 6.92401 57.229 6.99746C57.3323 7.07233 57.384 7.18039 57.384 7.32164C57.384 7.51939 57.3102 7.6783 57.1625 7.79836C57.0149 7.91843 56.8229 7.97846 56.5867 7.97846H52.8657ZM64.5379 0.456787C64.7372 0.456787 64.8923 0.500575 65.003 0.588151C65.1138 0.67714 65.1691 0.802855 65.1691 0.965295C65.1691 1.0218 65.1654 1.06417 65.1581 1.09242L64.9476 2.20478C64.7631 3.21473 64.3807 4.00575 63.8004 4.57782C63.2216 5.14989 62.4597 5.48889 61.5147 5.59483L61.1714 7.44876C61.1344 7.63945 61.0363 7.79271 60.8768 7.90854C60.7188 8.02578 60.5291 8.0844 60.3076 8.0844C60.1156 8.0844 59.9643 8.0399 59.8535 7.95091C59.7428 7.86334 59.6874 7.74186 59.6874 7.58648C59.6874 7.52998 59.6911 7.48408 59.6985 7.44876L60.0418 5.56305C59.3109 5.43592 58.7476 5.14777 58.3519 4.69859C57.9576 4.25082 57.7605 3.6738 57.7605 2.96754C57.7605 2.76979 57.7864 2.51554 57.838 2.20478L58.0484 1.09242C58.0854 0.894668 58.1776 0.739291 58.3253 0.626289C58.473 0.513288 58.6612 0.456787 58.8901 0.456787C59.0894 0.456787 59.2459 0.502694 59.3596 0.594508C59.4748 0.686322 59.5324 0.813449 59.5324 0.975889C59.5324 1.02533 59.5287 1.06417 59.5213 1.09242L59.3109 2.23656C59.2577 2.50494 59.2312 2.7592 59.2312 2.99932C59.2312 3.51489 59.3737 3.89627 59.6586 4.14347C59.9436 4.39066 60.3814 4.51425 60.972 4.51425C61.6439 4.51425 62.1939 4.31791 62.6221 3.92523C63.0503 3.53396 63.3345 2.97107 63.4748 2.23656L63.6852 1.09242C63.7147 0.901731 63.8085 0.747766 63.9665 0.630527C64.1259 0.5147 64.3164 0.456787 64.5379 0.456787Z" fill="black"/>
</g>
</g>
</g>
</g>
</g>
</g>
</g>
<g clip-path="url(#clip9_112_725)">
<path d="M50.5095 28.0888C50.4107 27.8728 50.213 26.2898 50.0157 25.5704C49.818 24.8509 49.1268 23.1957 48.7315 22.3323C48.3365 21.4688 47.5461 20.8211 47.2496 20.6773C46.9535 20.5333 46.3044 20.5333 46.3044 20.5333L46.7233 21.1091H46.2619C46.2619 21.1091 45.9654 20.3896 45.6693 20.1016C45.3731 19.8139 44.7804 19.5259 44.2862 19.4539C43.7924 19.3819 43.7913 19.4539 43.7913 19.4539L44.3497 20.6051H43.9897C43.9897 20.6051 43.5947 19.4539 43.1005 19.0939C42.6067 18.7341 41.7175 18.3744 41.1248 18.3744C40.5321 18.3744 40.3142 18.653 40.1371 18.8781C40.0213 19.0256 40.0368 19.096 40.0213 19.1272C40.0213 19.1272 40.3005 18.9238 40.4403 19.1272C40.562 19.3045 40.8272 20.1876 40.8423 20.5734L40.9275 20.6771L40.8287 20.7491C40.8287 20.7491 39.3468 19.0221 39.0506 18.6624C38.7541 18.3027 38.458 18.0147 38.2603 17.8709C38.0626 17.7269 37.6676 17.0795 37.4699 16.7915C37.2722 16.5037 36.8772 16 36.5807 16C36.0869 16 35.6915 16.2877 35.6915 16.7195C35.6915 17.1512 35.8892 18.0867 36.1854 18.6624C36.4815 19.2381 37.9634 21.2528 38.1611 22.1162C38.3587 22.9797 38.4576 24.3469 38.4576 24.9944C38.4576 25.6421 38.4576 25.9298 38.3587 25.8578C38.2599 25.7858 37.5684 25.0664 37.5684 24.9944C37.5684 24.9224 37.3707 23.6992 36.6792 23.3394C35.9877 22.9797 35.79 23.1234 35.6915 23.1954C35.5927 23.2674 35.5927 24.0589 35.4938 24.2749C35.395 24.4909 35 25.0664 35 25.4981C35 25.9298 35.2962 26.2176 35.4938 26.5056C35.6915 26.7933 36.383 27.8008 36.5803 28.0885C36.778 28.3762 39.4449 29.4557 40.4329 29.6714C41.4206 29.8874 42.6059 30.1032 42.8036 30.5349C43.0013 30.9666 43.0013 31.3984 43.6928 31.5424C44.3843 31.6864 45.885 31.7385 47.3477 31.3984C48.6275 31.1007 49.981 30.6308 50.6076 29.6714C51.0517 28.9928 50.6084 28.3048 50.5095 28.0888Z" fill="black"/>
<path d="M38.452 15.9844C38.3314 15.9844 38.2138 15.9414 38.143 15.8624C38.0316 15.7383 38.0799 15.5717 38.2503 15.4906L41.2572 14.0613C41.4276 13.9802 41.6559 14.0151 41.7676 14.1395C41.879 14.2636 41.8307 14.4302 41.6603 14.5113L38.6534 15.9406C38.5911 15.9701 38.521 15.9844 38.452 15.9844Z" fill="#FFA458"/>
<path d="M33.8717 16.4132C33.8448 16.4132 33.8175 16.4111 33.7902 16.4068L30.2876 15.8311C30.0888 15.7983 29.9642 15.6545 30.0092 15.5097C30.0542 15.3649 30.2515 15.2744 30.4503 15.3069L33.9529 15.8826C34.1516 15.9154 34.2763 16.0591 34.2313 16.2039C34.1922 16.3283 34.0403 16.4132 33.8717 16.4132Z" fill="#FFA458"/>
<path d="M30.9766 19.0787C30.8549 19.0787 30.7361 19.0349 30.6657 18.9549C30.5558 18.8299 30.6059 18.6639 30.7774 18.5839L33.8017 17.1737C33.9728 17.0933 34.2011 17.1301 34.311 17.2551C34.4209 17.38 34.3707 17.546 34.1992 17.6261L31.175 19.0363C31.1134 19.065 31.0448 19.0787 30.9766 19.0787Z" fill="#FFA458"/>
<path d="M36.8314 15.1171C36.8111 15.1171 36.7908 15.116 36.7698 15.1133C36.5688 15.0886 36.4335 14.9502 36.467 14.8038L37.0615 12.2244C37.0951 12.078 37.2832 11.9789 37.4864 12.0039C37.6874 12.0286 37.8228 12.1669 37.7892 12.3133L37.1947 14.8927C37.1644 15.0241 37.0084 15.1171 36.8314 15.1171Z" fill="#FFA458"/>
<path d="M35.035 15.4561C34.904 15.4561 34.7772 15.4053 34.7104 15.3156L32.9969 13.017C32.8996 12.8867 32.9663 12.7236 33.1452 12.6527C33.3237 12.582 33.5483 12.6301 33.6453 12.7607L35.3588 15.0593C35.4561 15.1896 35.3894 15.3527 35.2105 15.4236C35.1548 15.4456 35.0943 15.4561 35.035 15.4561Z" fill="#FFA458"/>
</g>
<line x1="63" y1="28.5" x2="74" y2="28.5" stroke="black"/>
<line x1="68" y1="21.5" x2="79" y2="21.5" stroke="black"/>
<line x1="61" y1="21.5" x2="65" y2="21.5" stroke="black"/>
<line x1="61" y1="14.5" x2="80" y2="14.5" stroke="black"/>
<line x1="19" y1="24.5" x2="30" y2="24.5" stroke="black"/>
<line x1="2" y1="27.5" x2="13" y2="27.5" stroke="black"/>
<line x1="7" y1="20.5" x2="18" y2="20.5" stroke="black"/>
<line y1="20.5" x2="4" y2="20.5" stroke="black"/>
<line y1="13.5" x2="19" y2="13.5" stroke="black"/>
<path d="M16.5452 35.336C16.6038 35.3093 16.6945 35.28 16.8172 35.248C16.9452 35.2107 17.0732 35.192 17.2012 35.192C17.4252 35.192 17.6118 35.2267 17.7612 35.296C17.9105 35.36 18.0012 35.456 18.0332 35.584C18.0918 35.8027 18.1452 36.008 18.1932 36.2C18.2465 36.3867 18.2972 36.568 18.3452 36.744C18.3932 36.9147 18.4385 37.0853 18.4812 37.256C18.5292 37.4267 18.5745 37.6053 18.6172 37.792H18.6572C18.7052 37.4667 18.7478 37.1573 18.7852 36.864C18.8225 36.5653 18.8572 36.2747 18.8892 35.992C18.9212 35.704 18.9532 35.4213 18.9852 35.144C19.0172 34.8613 19.0492 34.576 19.0812 34.288C19.2785 34.176 19.4892 34.12 19.7132 34.12C19.9105 34.12 20.0812 34.1627 20.2252 34.248C20.3692 34.3333 20.4412 34.4773 20.4412 34.68C20.4412 34.7973 20.4278 34.9653 20.4012 35.184C20.3798 35.3973 20.3478 35.6373 20.3052 35.904C20.2678 36.1707 20.2225 36.4507 20.1692 36.744C20.1158 37.0373 20.0598 37.3173 20.0012 37.584C19.9425 37.8507 19.8812 38.0933 19.8172 38.312C19.7585 38.5253 19.7025 38.6907 19.6492 38.808C19.5692 38.8827 19.4385 38.944 19.2572 38.992C19.0758 39.04 18.8892 39.064 18.6972 39.064C18.4465 39.064 18.2332 39.032 18.0572 38.968C17.8865 38.8987 17.7825 38.8027 17.7452 38.68C17.6758 38.4667 17.6012 38.2133 17.5212 37.92C17.4412 37.6267 17.3558 37.304 17.2652 36.952C17.1905 37.2987 17.1132 37.6373 17.0332 37.968C16.9532 38.2987 16.8812 38.5787 16.8172 38.808C16.7372 38.8827 16.6172 38.944 16.4572 38.992C16.2972 39.04 16.1212 39.064 15.9292 39.064C15.6892 39.064 15.4705 39.032 15.2732 38.968C15.0812 38.8987 14.9558 38.8027 14.8972 38.68C14.8492 38.584 14.7958 38.4427 14.7372 38.256C14.6838 38.064 14.6278 37.848 14.5692 37.608C14.5105 37.3627 14.4492 37.0987 14.3852 36.816C14.3265 36.5333 14.2705 36.2507 14.2172 35.968C14.1692 35.6853 14.1238 35.4107 14.0812 35.144C14.0385 34.872 14.0065 34.624 13.9852 34.4C14.0598 34.3307 14.1638 34.2667 14.2972 34.208C14.4305 34.1493 14.5745 34.12 14.7292 34.12C14.9318 34.12 15.0972 34.1653 15.2252 34.256C15.3585 34.3413 15.4412 34.488 15.4732 34.696C15.5585 35.24 15.6278 35.6933 15.6812 36.056C15.7398 36.4187 15.7852 36.7173 15.8172 36.952C15.8545 37.1813 15.8812 37.36 15.8972 37.488C15.9132 37.616 15.9292 37.7173 15.9452 37.792H15.9852C16.0332 37.5787 16.0785 37.3813 16.1212 37.2C16.1638 37.0187 16.2065 36.8373 16.2492 36.656C16.2972 36.4693 16.3452 36.272 16.3932 36.064C16.4412 35.8507 16.4918 35.608 16.5452 35.336ZM22.3502 38.992C22.2969 39.008 22.2116 39.024 22.0942 39.04C21.9822 39.056 21.8649 39.064 21.7422 39.064C21.6249 39.064 21.5182 39.056 21.4222 39.04C21.3316 39.024 21.2542 38.992 21.1902 38.944C21.1262 38.896 21.0756 38.832 21.0382 38.752C21.0062 38.6667 20.9902 38.5573 20.9902 38.424V36.024C20.9902 35.9013 21.0116 35.7973 21.0542 35.712C21.1022 35.6213 21.1689 35.5413 21.2542 35.472C21.3396 35.4027 21.4436 35.3413 21.5662 35.288C21.6942 35.2293 21.8302 35.1787 21.9742 35.136C22.1182 35.0933 22.2676 35.0613 22.4222 35.04C22.5769 35.0133 22.7316 35 22.8862 35C23.1422 35 23.3449 35.0507 23.4942 35.152C23.6436 35.248 23.7182 35.408 23.7182 35.632C23.7182 35.7067 23.7076 35.7813 23.6862 35.856C23.6649 35.9253 23.6382 35.9893 23.6062 36.048C23.4942 36.048 23.3796 36.0533 23.2622 36.064C23.1449 36.0747 23.0302 36.0907 22.9182 36.112C22.8062 36.1333 22.6996 36.1573 22.5982 36.184C22.5022 36.2053 22.4196 36.232 22.3502 36.264V38.992ZM24.2473 34.032C24.2473 33.8293 24.3139 33.6587 24.4473 33.52C24.5859 33.3813 24.7673 33.312 24.9913 33.312C25.2153 33.312 25.3939 33.3813 25.5273 33.52C25.6659 33.6587 25.7353 33.8293 25.7353 34.032C25.7353 34.2347 25.6659 34.4053 25.5273 34.544C25.3939 34.6827 25.2153 34.752 24.9913 34.752C24.7673 34.752 24.5859 34.6827 24.4473 34.544C24.3139 34.4053 24.2473 34.2347 24.2473 34.032ZM25.6713 38.992C25.6126 39.0027 25.5246 39.016 25.4073 39.032C25.2953 39.0533 25.1806 39.064 25.0633 39.064C24.9459 39.064 24.8393 39.056 24.7433 39.04C24.6526 39.024 24.5753 38.992 24.5113 38.944C24.4473 38.896 24.3966 38.832 24.3593 38.752C24.3273 38.6667 24.3113 38.5573 24.3113 38.424V35.168C24.3699 35.1573 24.4553 35.144 24.5673 35.128C24.6846 35.1067 24.8019 35.096 24.9193 35.096C25.0366 35.096 25.1406 35.104 25.2313 35.12C25.3273 35.136 25.4073 35.168 25.4713 35.216C25.5353 35.264 25.5833 35.3307 25.6153 35.416C25.6526 35.496 25.6713 35.6027 25.6713 35.736V38.992ZM27.8971 37.664C27.8971 37.8027 27.9398 37.9013 28.0251 37.96C28.1158 38.0187 28.2411 38.048 28.4011 38.048C28.4811 38.048 28.5638 38.0427 28.6491 38.032C28.7344 38.016 28.8091 37.9973 28.8731 37.976C28.9211 38.0347 28.9611 38.1013 28.9931 38.176C29.0304 38.2453 29.0491 38.3307 29.0491 38.432C29.0491 38.6347 28.9718 38.8 28.8171 38.928C28.6678 39.056 28.4011 39.12 28.0171 39.12C27.5478 39.12 27.1851 39.0133 26.9291 38.8C26.6784 38.5867 26.5531 38.24 26.5531 37.76V34.336C26.6118 34.32 26.6944 34.304 26.8011 34.288C26.9131 34.2667 27.0304 34.256 27.1531 34.256C27.3878 34.256 27.5691 34.2987 27.6971 34.384C27.8304 34.464 27.8971 34.6373 27.8971 34.904V35.416H28.9451C28.9771 35.4747 29.0064 35.5493 29.0331 35.64C29.0651 35.7253 29.0811 35.8213 29.0811 35.928C29.0811 36.1147 29.0384 36.2507 28.9531 36.336C28.8731 36.416 28.7638 36.456 28.6251 36.456H27.8971V37.664ZM31.7493 39.128C31.4347 39.128 31.1413 39.0853 30.8693 39C30.6027 38.9093 30.368 38.776 30.1653 38.6C29.968 38.424 29.8107 38.2027 29.6933 37.936C29.5813 37.6693 29.5253 37.3573 29.5253 37C29.5253 36.648 29.5813 36.3467 29.6933 36.096C29.8107 35.84 29.9627 35.632 30.1493 35.472C30.336 35.3067 30.5493 35.1867 30.7893 35.112C31.0293 35.032 31.2747 34.992 31.5253 34.992C31.808 34.992 32.064 35.0347 32.2933 35.12C32.528 35.2053 32.728 35.3227 32.8933 35.472C33.064 35.6213 33.1947 35.8 33.2853 36.008C33.3813 36.216 33.4293 36.4427 33.4293 36.688C33.4293 36.8693 33.3787 37.008 33.2773 37.104C33.176 37.2 33.0347 37.2613 32.8533 37.288L30.8773 37.584C30.936 37.76 31.056 37.8933 31.2373 37.984C31.4187 38.0693 31.6267 38.112 31.8613 38.112C32.08 38.112 32.2853 38.0853 32.4773 38.032C32.6747 37.9733 32.8347 37.9067 32.9573 37.832C33.0427 37.8853 33.1147 37.96 33.1733 38.056C33.232 38.152 33.2613 38.2533 33.2613 38.36C33.2613 38.6 33.1493 38.7787 32.9253 38.896C32.7547 38.9867 32.5627 39.048 32.3493 39.08C32.136 39.112 31.936 39.128 31.7493 39.128ZM31.5253 35.984C31.3973 35.984 31.2853 36.0053 31.1893 36.048C31.0987 36.0907 31.024 36.1467 30.9653 36.216C30.9067 36.28 30.8613 36.3547 30.8293 36.44C30.8027 36.52 30.7867 36.6027 30.7813 36.688L32.1493 36.464C32.1333 36.3573 32.0747 36.2507 31.9733 36.144C31.872 36.0373 31.7227 35.984 31.5253 35.984ZM35.6535 34.032C35.6535 33.8293 35.7202 33.6587 35.8535 33.52C35.9922 33.3813 36.1735 33.312 36.3975 33.312C36.6215 33.312 36.8002 33.3813 36.9335 33.52C37.0722 33.6587 37.1415 33.8293 37.1415 34.032C37.1415 34.2347 37.0722 34.4053 36.9335 34.544C36.8002 34.6827 36.6215 34.752 36.3975 34.752C36.1735 34.752 35.9922 34.6827 35.8535 34.544C35.7202 34.4053 35.6535 34.2347 35.6535 34.032ZM37.0775 38.992C37.0189 39.0027 36.9309 39.016 36.8135 39.032C36.7015 39.0533 36.5869 39.064 36.4695 39.064C36.3522 39.064 36.2455 39.056 36.1495 39.04C36.0589 39.024 35.9815 38.992 35.9175 38.944C35.8535 38.896 35.8029 38.832 35.7655 38.752C35.7335 38.6667 35.7175 38.5573 35.7175 38.424V35.168C35.7762 35.1573 35.8615 35.144 35.9735 35.128C36.0909 35.1067 36.2082 35.096 36.3255 35.096C36.4429 35.096 36.5469 35.104 36.6375 35.12C36.7335 35.136 36.8135 35.168 36.8775 35.216C36.9415 35.264 36.9895 35.3307 37.0215 35.416C37.0589 35.496 37.0775 35.6027 37.0775 35.736V38.992ZM39.3033 37.664C39.3033 37.8027 39.346 37.9013 39.4313 37.96C39.522 38.0187 39.6473 38.048 39.8073 38.048C39.8873 38.048 39.97 38.0427 40.0553 38.032C40.1407 38.016 40.2153 37.9973 40.2793 37.976C40.3273 38.0347 40.3673 38.1013 40.3993 38.176C40.4367 38.2453 40.4553 38.3307 40.4553 38.432C40.4553 38.6347 40.378 38.8 40.2233 38.928C40.074 39.056 39.8073 39.12 39.4233 39.12C38.954 39.12 38.5913 39.0133 38.3353 38.8C38.0847 38.5867 37.9593 38.24 37.9593 37.76V34.336C38.018 34.32 38.1007 34.304 38.2073 34.288C38.3193 34.2667 38.4367 34.256 38.5593 34.256C38.794 34.256 38.9753 34.2987 39.1033 34.384C39.2367 34.464 39.3033 34.6373 39.3033 34.904V35.416H40.3513C40.3833 35.4747 40.4127 35.5493 40.4393 35.64C40.4713 35.7253 40.4873 35.8213 40.4873 35.928C40.4873 36.1147 40.4447 36.2507 40.3593 36.336C40.2793 36.416 40.17 36.456 40.0313 36.456H39.3033V37.664ZM42.716 34.032C42.716 33.8293 42.7827 33.6587 42.916 33.52C43.0547 33.3813 43.236 33.312 43.46 33.312C43.684 33.312 43.8627 33.3813 43.996 33.52C44.1347 33.6587 44.204 33.8293 44.204 34.032C44.204 34.2347 44.1347 34.4053 43.996 34.544C43.8627 34.6827 43.684 34.752 43.46 34.752C43.236 34.752 43.0547 34.6827 42.916 34.544C42.7827 34.4053 42.716 34.2347 42.716 34.032ZM44.14 38.992C44.0814 39.0027 43.9934 39.016 43.876 39.032C43.764 39.0533 43.6494 39.064 43.532 39.064C43.4147 39.064 43.308 39.056 43.212 39.04C43.1214 39.024 43.044 38.992 42.98 38.944C42.916 38.896 42.8654 38.832 42.828 38.752C42.796 38.6667 42.78 38.5573 42.78 38.424V35.168C42.8387 35.1573 42.924 35.144 43.036 35.128C43.1534 35.1067 43.2707 35.096 43.388 35.096C43.5054 35.096 43.6094 35.104 43.7 35.12C43.796 35.136 43.876 35.168 43.94 35.216C44.004 35.264 44.052 35.3307 44.084 35.416C44.1214 35.496 44.14 35.6027 44.14 35.736V38.992ZM47.4698 36.536C47.4698 36.3707 47.4218 36.2507 47.3258 36.176C47.2352 36.096 47.1098 36.056 46.9498 36.056C46.8432 36.056 46.7365 36.0693 46.6298 36.096C46.5285 36.1227 46.4405 36.1627 46.3658 36.216V38.992C46.3125 39.008 46.2272 39.024 46.1098 39.04C45.9978 39.056 45.8805 39.064 45.7578 39.064C45.6405 39.064 45.5338 39.056 45.4378 39.04C45.3472 39.024 45.2698 38.992 45.2058 38.944C45.1418 38.896 45.0912 38.832 45.0538 38.752C45.0218 38.6667 45.0058 38.5573 45.0058 38.424V36.024C45.0058 35.88 45.0352 35.7627 45.0938 35.672C45.1578 35.5813 45.2432 35.4987 45.3498 35.424C45.5312 35.296 45.7578 35.192 46.0298 35.112C46.3072 35.032 46.6138 34.992 46.9498 34.992C47.5525 34.992 48.0165 35.1253 48.3418 35.392C48.6672 35.6533 48.8298 36.0187 48.8298 36.488V38.992C48.7765 39.008 48.6912 39.024 48.5738 39.04C48.4618 39.056 48.3445 39.064 48.2218 39.064C48.1045 39.064 47.9978 39.056 47.9018 39.04C47.8112 39.024 47.7338 38.992 47.6698 38.944C47.6058 38.896 47.5552 38.832 47.5178 38.752C47.4858 38.6667 47.4698 38.5573 47.4698 38.424V36.536ZM51.1515 35.272C51.1141 35.2133 51.0795 35.1333 51.0475 35.032C51.0155 34.9307 50.9995 34.824 50.9995 34.712C50.9995 34.504 51.0448 34.3547 51.1355 34.264C51.2315 34.1733 51.3541 34.128 51.5035 34.128H54.9915C55.0288 34.1867 55.0635 34.2667 55.0955 34.368C55.1275 34.4693 55.1435 34.576 55.1435 34.688C55.1435 34.896 55.0955 35.0453 54.9995 35.136C54.9088 35.2267 54.7888 35.272 54.6395 35.272H53.7515V38.968C53.6928 38.984 53.5995 39 53.4715 39.016C53.3488 39.032 53.2261 39.04 53.1035 39.04C52.9808 39.04 52.8715 39.0293 52.7755 39.008C52.6848 38.992 52.6075 38.96 52.5435 38.912C52.4795 38.864 52.4315 38.7973 52.3995 38.712C52.3675 38.6267 52.3515 38.5147 52.3515 38.376V35.272H51.1515ZM57.1386 38.136C57.2293 38.136 57.3279 38.128 57.4346 38.112C57.5466 38.0907 57.6293 38.064 57.6826 38.032V37.392L57.1066 37.44C56.9573 37.4507 56.8346 37.4827 56.7386 37.536C56.6426 37.5893 56.5946 37.6693 56.5946 37.776C56.5946 37.8827 56.6346 37.9707 56.7146 38.04C56.7999 38.104 56.9413 38.136 57.1386 38.136ZM57.0746 34.992C57.3626 34.992 57.6239 35.0213 57.8586 35.08C58.0986 35.1387 58.3013 35.2293 58.4666 35.352C58.6373 35.4693 58.7679 35.6213 58.8586 35.808C58.9493 35.9893 58.9946 36.2053 58.9946 36.456V38.248C58.9946 38.3867 58.9546 38.5013 58.8746 38.592C58.7999 38.6773 58.7093 38.752 58.6026 38.816C58.2559 39.024 57.7679 39.128 57.1386 39.128C56.8559 39.128 56.5999 39.1013 56.3706 39.048C56.1466 38.9947 55.9519 38.9147 55.7866 38.808C55.6266 38.7013 55.5013 38.5653 55.4106 38.4C55.3253 38.2347 55.2826 38.0427 55.2826 37.824C55.2826 37.456 55.3919 37.1733 55.6106 36.976C55.8293 36.7787 56.1679 36.656 56.6266 36.608L57.6746 36.496V36.44C57.6746 36.2853 57.6053 36.176 57.4666 36.112C57.3333 36.0427 57.1386 36.008 56.8826 36.008C56.6799 36.008 56.4826 36.0293 56.2906 36.072C56.0986 36.1147 55.9253 36.168 55.7706 36.232C55.7013 36.184 55.6426 36.112 55.5946 36.016C55.5466 35.9147 55.5226 35.8107 55.5226 35.704C55.5226 35.5653 55.5546 35.456 55.6186 35.376C55.6879 35.2907 55.7919 35.2187 55.9306 35.16C56.0853 35.1013 56.2666 35.0587 56.4746 35.032C56.6879 35.0053 56.8879 34.992 57.0746 34.992ZM63.6262 38.296C63.5995 38.5467 63.5248 38.7387 63.4022 38.872C63.2848 39.0053 63.1115 39.072 62.8822 39.072C62.7115 39.072 62.5595 39.032 62.4262 38.952C62.2928 38.8667 62.1488 38.7253 61.9942 38.528L61.2022 37.536V38.992C61.1435 39.0027 61.0555 39.016 60.9382 39.032C60.8262 39.0533 60.7115 39.064 60.5942 39.064C60.4768 39.064 60.3702 39.056 60.2742 39.04C60.1835 39.024 60.1062 38.992 60.0422 38.944C59.9782 38.896 59.9275 38.832 59.8902 38.752C59.8582 38.6667 59.8422 38.5573 59.8422 38.424V33.792C59.9008 33.776 59.9862 33.76 60.0982 33.744C60.2155 33.7227 60.3328 33.712 60.4502 33.712C60.5675 33.712 60.6715 33.72 60.7622 33.736C60.8582 33.752 60.9382 33.784 61.0022 33.832C61.0662 33.88 61.1142 33.9467 61.1462 34.032C61.1835 34.112 61.2022 34.2187 61.2022 34.352V36.464L62.5782 35.056C62.8555 35.056 63.0768 35.1173 63.2422 35.24C63.4128 35.3627 63.4982 35.5173 63.4982 35.704C63.4982 35.784 63.4848 35.8587 63.4582 35.928C63.4315 35.992 63.3888 36.0587 63.3302 36.128C63.2768 36.1973 63.2048 36.272 63.1142 36.352C63.0288 36.4267 62.9275 36.5147 62.8102 36.616L62.3462 37.016L63.6262 38.296ZM65.9433 38.136C66.0339 38.136 66.1326 38.128 66.2393 38.112C66.3513 38.0907 66.4339 38.064 66.4873 38.032V37.392L65.9113 37.44C65.7619 37.4507 65.6393 37.4827 65.5433 37.536C65.4473 37.5893 65.3993 37.6693 65.3993 37.776C65.3993 37.8827 65.4393 37.9707 65.5193 38.04C65.6046 38.104 65.7459 38.136 65.9433 38.136ZM65.8793 34.992C66.1673 34.992 66.4286 35.0213 66.6633 35.08C66.9033 35.1387 67.1059 35.2293 67.2713 35.352C67.4419 35.4693 67.5726 35.6213 67.6633 35.808C67.7539 35.9893 67.7993 36.2053 67.7993 36.456V38.248C67.7993 38.3867 67.7593 38.5013 67.6793 38.592C67.6046 38.6773 67.5139 38.752 67.4073 38.816C67.0606 39.024 66.5726 39.128 65.9433 39.128C65.6606 39.128 65.4046 39.1013 65.1753 39.048C64.9513 38.9947 64.7566 38.9147 64.5913 38.808C64.4313 38.7013 64.3059 38.5653 64.2153 38.4C64.1299 38.2347 64.0873 38.0427 64.0873 37.824C64.0873 37.456 64.1966 37.1733 64.4153 36.976C64.6339 36.7787 64.9726 36.656 65.4313 36.608L66.4793 36.496V36.44C66.4793 36.2853 66.4099 36.176 66.2713 36.112C66.1379 36.0427 65.9433 36.008 65.6873 36.008C65.4846 36.008 65.2873 36.0293 65.0953 36.072C64.9033 36.1147 64.7299 36.168 64.5753 36.232C64.5059 36.184 64.4473 36.112 64.3993 36.016C64.3513 35.9147 64.3273 35.8107 64.3273 35.704C64.3273 35.5653 64.3593 35.456 64.4233 35.376C64.4926 35.2907 64.5966 35.2187 64.7353 35.16C64.8899 35.1013 65.0713 35.0587 65.2793 35.032C65.4926 35.0053 65.6926 34.992 65.8793 34.992Z" fill="#FFA458"/>
</g>
<defs>
<clipPath id="clip0_112_725">
<rect width="80" height="45" rx="5" fill="white"/>
</clipPath>
<clipPath id="clip1_112_725">
<rect width="67.5021" height="10.5414" fill="white" transform="translate(13 -1)"/>
</clipPath>
<clipPath id="clip2_112_725">
<rect width="67.5021" height="10.5414" fill="white" transform="translate(13 -1)"/>
</clipPath>
<clipPath id="clip3_112_725">
<rect width="67.5021" height="10.5414" fill="white" transform="translate(13 -1)"/>
</clipPath>
<clipPath id="clip4_112_725">
<rect width="57.1915" height="7.62761" fill="white" transform="translate(13 0.456787)"/>
</clipPath>
<clipPath id="clip5_112_725">
<rect width="57.1915" height="7.62761" fill="white" transform="translate(13 0.456787)"/>
</clipPath>
<clipPath id="clip6_112_725">
<rect width="57.1915" height="7.62761" fill="white" transform="translate(13 0.456787)"/>
</clipPath>
<clipPath id="clip7_112_725">
<rect width="57.1915" height="7.62761" fill="white" transform="translate(13 0.456787)"/>
</clipPath>
<clipPath id="clip8_112_725">
<rect width="2.9413" height="1.26733" fill="white" transform="translate(66.6396 5.35522)"/>
</clipPath>
<clipPath id="clip9_112_725">
<rect width="21" height="20" fill="white" transform="translate(30 12)"/>
</clipPath>
</defs>
</svg>
