<svg width="59" height="49" viewBox="0 0 59 49" fill="none" xmlns="http://www.w3.org/2000/svg">
<g clip-path="url(#clip0_21_5886)">
<path d="M17.5 9.5L21.5 6L30 7L38.5 6L42.5 9L47 25L29.5 38.5L25 34.5L20 31L15.5 27.5L12 25L17.5 9.5Z" fill="white"/>
<path d="M23.5102 15.3247L26.3991 18.0156L21.2967 17.2189L20.8594 15.2986L23.5102 15.3247Z" fill="#58646D" fill-opacity="0.29"/>
<path d="M42.3302 9.66446L41.9917 4.27525L40.534 0L32.5384 5.62004L29.4852 5.87007L26.4616 5.62004L18.4661 0L17.0078 4.27525L16.6693 9.66446L11 24.9403L29.4846 41L48 24.9403L42.3302 9.66446ZM12.4808 24.6797L17.2955 10.0466L21.0754 6.33906L29.4846 7.59517L37.9241 6.33906L41.7045 10.0466L46.5187 24.6797L29.4846 37.7994L12.4808 24.6797Z" fill="black"/>
<path d="M35.489 15.3247L32.6006 18.0156L37.7031 17.2189L38.1398 15.2986L35.489 15.3247Z" fill="#58646D" fill-opacity="0.29"/>
<path d="M45.4359 23.121L41.6012 18.1441L43.44 21.5756L41.4266 20.7948L41.738 22.6964L39.4025 22.0121L35.9401 24.8456L34.7148 28.5408L33.6211 30.0365L32.4726 30.4689H30.9467L32.9048 28.2213L33.108 26.5877L32.3036 24.043L31.5054 20.9964L32.6073 18.0225L30.7424 21.0033L31.4547 24.1586L32.6871 26.7065L29.4833 27.6084L26.3102 26.7065L27.5422 24.1586L28.2544 21.0033L26.3906 18.0225L27.492 20.9964L26.6937 24.043L25.8898 26.5877L26.0936 28.2213L28.0511 30.4689H26.5258L25.3768 30.0365L24.2835 28.5408L23.0582 24.8456L19.5963 22.0121L17.2604 22.6964L17.5717 20.7948L15.5584 21.5756L17.3971 18.1441L13.5635 23.121L16.2788 22.0711L15.9726 23.9982L19.2789 23.1151L22.3813 25.3165L23.7352 28.8453L24.9651 30.4693L26.2621 30.9438L26.4669 32.1986L29.4843 33.5091L32.5315 32.1986L32.7368 30.9438L34.0333 30.4693L35.2627 28.8453L36.6176 25.3165L39.7195 23.1151L43.0257 23.9982L42.7201 22.0711L45.4359 23.121ZM31.9263 31.9654L29.4997 32.7494L27.0726 31.9654L27.0475 30.9219L29.4843 30.4698L31.9519 30.9219L31.9263 31.9654Z" fill="black"/>
<path d="M22.4715 17.4056C21.6296 17.2659 22.8485 17.4682 23.3135 17.5454L24.1554 17.6851C24.2006 17.4127 23.8604 17.1293 23.3954 17.0521C22.9304 16.975 22.5168 17.1332 22.4715 17.4056Z" fill="black"/>
<path d="M34.3576 17.747C33.5108 17.8541 34.7367 17.6991 35.2043 17.6399L36.051 17.5329C36.0164 17.2589 35.6092 17.0847 35.1416 17.1439C34.6739 17.203 34.3229 17.473 34.3576 17.747Z" fill="black"/>
<path d="M18.8512 1.75711L21.8738 4.57245L18.6675 5.8837L18.8512 1.75711Z" fill="white"/>
<path d="M40.2039 1.508L40.9267 5.57495L37.5762 4.69508L40.2039 1.508Z" fill="white"/>
</g>
<mask id="path-10-outside-1_21_5886" maskUnits="userSpaceOnUse" x="5" y="42" width="49" height="8" fill="black">
<rect fill="white" x="5" y="42" width="49" height="8"/>
<path d="M8.35656 47C8.43123 47.0213 8.52723 47.0373 8.64456 47.048C8.7619 47.0533 8.8739 47.056 8.98056 47.056C9.1939 47.056 9.3699 47.0133 9.50856 46.928C9.65256 46.8373 9.72456 46.6987 9.72456 46.512C9.72456 46.336 9.6659 46.2107 9.54856 46.136C9.43123 46.0613 9.25256 46.024 9.01256 46.024H8.35656V47ZM8.35656 45.048H8.94056C9.1699 45.048 9.33523 45.0053 9.43656 44.92C9.54323 44.8347 9.59656 44.7093 9.59656 44.544C9.59656 44.4 9.53523 44.2853 9.41256 44.2C9.29523 44.1147 9.11656 44.072 8.87656 44.072C8.79656 44.072 8.70323 44.0747 8.59656 44.08C8.49523 44.0853 8.41523 44.0933 8.35656 44.104V45.048ZM8.87656 48.128C8.7859 48.128 8.67923 48.1253 8.55656 48.12C8.4339 48.1147 8.3059 48.104 8.17256 48.088C8.04456 48.072 7.91656 48.0507 7.78856 48.024C7.66056 48.0027 7.54323 47.9707 7.43656 47.928C7.14323 47.816 6.99656 47.6213 6.99656 47.344V43.608C6.99656 43.496 7.0259 43.4107 7.08456 43.352C7.14856 43.288 7.2339 43.2373 7.34056 43.2C7.5219 43.136 7.74856 43.0907 8.02056 43.064C8.29256 43.032 8.57256 43.016 8.86056 43.016C9.54323 43.016 10.0686 43.1307 10.4366 43.36C10.8046 43.5893 10.9886 43.944 10.9886 44.424C10.9886 44.664 10.9192 44.872 10.7806 45.048C10.6419 45.2187 10.4552 45.344 10.2206 45.424C10.4872 45.4987 10.7086 45.6347 10.8846 45.832C11.0659 46.0293 11.1566 46.2773 11.1566 46.576C11.1566 47.104 10.9592 47.496 10.5646 47.752C10.1752 48.0027 9.61256 48.128 8.87656 48.128ZM12.6937 48.024C12.4644 48.024 12.283 47.9573 12.1497 47.824C12.0164 47.6907 11.9497 47.5093 11.9497 47.28V43.144C12.0084 43.1333 12.1017 43.12 12.2297 43.104C12.3577 43.0827 12.4804 43.072 12.5977 43.072C12.7204 43.072 12.827 43.0827 12.9177 43.104C13.0137 43.12 13.0937 43.152 13.1577 43.2C13.2217 43.248 13.2697 43.3147 13.3017 43.4C13.3337 43.4853 13.3497 43.5973 13.3497 43.736V46.896H15.1817C15.219 46.9547 15.2537 47.0347 15.2857 47.136C15.3177 47.232 15.3337 47.3333 15.3337 47.44C15.3337 47.6533 15.2884 47.8053 15.1977 47.896C15.107 47.9813 14.987 48.024 14.8377 48.024H12.6937ZM17.1614 43.296C17.252 43.2427 17.388 43.192 17.5694 43.144C17.756 43.096 17.9427 43.072 18.1294 43.072C18.396 43.072 18.6307 43.112 18.8334 43.192C19.0414 43.2667 19.1747 43.3867 19.2334 43.552C19.3294 43.8293 19.4334 44.152 19.5454 44.52C19.6574 44.888 19.7694 45.2693 19.8814 45.664C19.9934 46.0533 20.1027 46.44 20.2094 46.824C20.316 47.2027 20.4094 47.5387 20.4894 47.832C20.4254 47.9067 20.3294 47.9653 20.2014 48.008C20.0734 48.056 19.9214 48.08 19.7454 48.08C19.6174 48.08 19.508 48.0693 19.4174 48.048C19.332 48.0267 19.26 47.9947 19.2014 47.952C19.148 47.9093 19.1027 47.8533 19.0654 47.784C19.0334 47.7147 19.004 47.6347 18.9774 47.544L18.8334 46.992H17.3854C17.3427 47.152 17.3 47.3173 17.2574 47.488C17.2147 47.6587 17.172 47.824 17.1294 47.984C17.0547 48.0107 16.9747 48.032 16.8894 48.048C16.8094 48.0693 16.7107 48.08 16.5934 48.08C16.3214 48.08 16.1187 48.0347 15.9854 47.944C15.8574 47.848 15.7934 47.7173 15.7934 47.552C15.7934 47.4773 15.804 47.4027 15.8254 47.328C15.8467 47.2533 15.8707 47.1653 15.8974 47.064C15.9347 46.92 15.9854 46.7413 16.0494 46.528C16.1187 46.3147 16.1934 46.0853 16.2734 45.84C16.3534 45.5893 16.4387 45.3333 16.5294 45.072C16.62 44.8107 16.7054 44.5653 16.7854 44.336C16.8654 44.1013 16.9374 43.8933 17.0014 43.712C17.0707 43.5307 17.124 43.392 17.1614 43.296ZM18.1214 44.328C18.0467 44.552 17.9614 44.8027 17.8654 45.08C17.7747 45.352 17.692 45.6293 17.6174 45.912H18.6094C18.5347 45.624 18.4574 45.344 18.3774 45.072C18.3027 44.7947 18.2334 44.5467 18.1694 44.328H18.1214ZM23.5389 44.128C23.1282 44.128 22.8135 44.2533 22.5949 44.504C22.3762 44.7547 22.2669 45.1093 22.2669 45.568C22.2669 46.032 22.3869 46.3893 22.6269 46.64C22.8722 46.8907 23.2002 47.016 23.6109 47.016C23.8295 47.016 24.0135 46.9867 24.1629 46.928C24.3175 46.8693 24.4642 46.8027 24.6029 46.728C24.6935 46.8027 24.7629 46.8933 24.8109 47C24.8642 47.1013 24.8909 47.2213 24.8909 47.36C24.8909 47.5787 24.7682 47.7653 24.5229 47.92C24.2829 48.0693 23.9149 48.144 23.4189 48.144C23.0615 48.144 22.7255 48.0933 22.4109 47.992C22.0962 47.8907 21.8215 47.736 21.5869 47.528C21.3522 47.3147 21.1655 47.048 21.0269 46.728C20.8935 46.4027 20.8269 46.016 20.8269 45.568C20.8269 45.152 20.8909 44.7867 21.0189 44.472C21.1522 44.152 21.3309 43.8827 21.5549 43.664C21.7842 43.4453 22.0509 43.28 22.3549 43.168C22.6589 43.056 22.9842 43 23.3309 43C23.8215 43 24.2002 43.08 24.4669 43.24C24.7389 43.4 24.8749 43.6053 24.8749 43.856C24.8749 43.9947 24.8402 44.1147 24.7709 44.216C24.7015 44.3173 24.6215 44.3973 24.5309 44.456C24.3922 44.3653 24.2429 44.288 24.0829 44.224C23.9282 44.16 23.7469 44.128 23.5389 44.128ZM27.0452 46.2V47.968C26.9865 47.984 26.8932 48 26.7652 48.016C26.6372 48.032 26.5119 48.04 26.3892 48.04C26.2665 48.04 26.1572 48.0293 26.0612 48.008C25.9705 47.992 25.8932 47.96 25.8292 47.912C25.7652 47.864 25.7172 47.7973 25.6852 47.712C25.6532 47.6267 25.6372 47.5147 25.6372 47.376V43.152C25.6959 43.1413 25.7892 43.128 25.9172 43.112C26.0452 43.0907 26.1679 43.08 26.2852 43.08C26.4079 43.08 26.5145 43.0907 26.6052 43.112C26.7012 43.128 26.7812 43.16 26.8452 43.208C26.9092 43.256 26.9572 43.3227 26.9892 43.408C27.0212 43.4933 27.0372 43.6053 27.0372 43.744V45.016L28.7012 43.104C29.0639 43.104 29.3225 43.1733 29.4772 43.312C29.6372 43.4453 29.7172 43.6053 29.7172 43.792C29.7172 43.9307 29.6825 44.0613 29.6132 44.184C29.5439 44.3067 29.4319 44.4453 29.2772 44.6L28.2772 45.6C28.4105 45.7493 28.5492 45.904 28.6932 46.064C28.8425 46.224 28.9865 46.3813 29.1252 46.536C29.2692 46.6853 29.4052 46.8293 29.5332 46.968C29.6665 47.1067 29.7812 47.2267 29.8772 47.328C29.8772 47.4453 29.8559 47.5493 29.8132 47.64C29.7705 47.7307 29.7119 47.808 29.6372 47.872C29.5679 47.936 29.4879 47.984 29.3972 48.016C29.3065 48.048 29.2105 48.064 29.1092 48.064C28.8905 48.064 28.7119 48.0107 28.5732 47.904C28.4345 47.792 28.3012 47.6613 28.1732 47.512L27.0452 46.2ZM34.4006 44.336C34.4593 44.3093 34.55 44.28 34.6726 44.248C34.8006 44.2107 34.9286 44.192 35.0566 44.192C35.2806 44.192 35.4673 44.2267 35.6166 44.296C35.766 44.36 35.8566 44.456 35.8886 44.584C35.9473 44.8027 36.0006 45.008 36.0486 45.2C36.102 45.3867 36.1526 45.568 36.2006 45.744C36.2486 45.9147 36.294 46.0853 36.3366 46.256C36.3846 46.4267 36.43 46.6053 36.4726 46.792H36.5126C36.5606 46.4667 36.6033 46.1573 36.6406 45.864C36.678 45.5653 36.7126 45.2747 36.7446 44.992C36.7766 44.704 36.8086 44.4213 36.8406 44.144C36.8726 43.8613 36.9046 43.576 36.9366 43.288C37.134 43.176 37.3446 43.12 37.5686 43.12C37.766 43.12 37.9366 43.1627 38.0806 43.248C38.2246 43.3333 38.2966 43.4773 38.2966 43.68C38.2966 43.7973 38.2833 43.9653 38.2566 44.184C38.2353 44.3973 38.2033 44.6373 38.1606 44.904C38.1233 45.1707 38.078 45.4507 38.0246 45.744C37.9713 46.0373 37.9153 46.3173 37.8566 46.584C37.798 46.8507 37.7366 47.0933 37.6726 47.312C37.614 47.5253 37.558 47.6907 37.5046 47.808C37.4246 47.8827 37.294 47.944 37.1126 47.992C36.9313 48.04 36.7446 48.064 36.5526 48.064C36.302 48.064 36.0886 48.032 35.9126 47.968C35.742 47.8987 35.638 47.8027 35.6006 47.68C35.5313 47.4667 35.4566 47.2133 35.3766 46.92C35.2966 46.6267 35.2113 46.304 35.1206 45.952C35.046 46.2987 34.9686 46.6373 34.8886 46.968C34.8086 47.2987 34.7366 47.5787 34.6726 47.808C34.5926 47.8827 34.4726 47.944 34.3126 47.992C34.1526 48.04 33.9766 48.064 33.7846 48.064C33.5446 48.064 33.326 48.032 33.1286 47.968C32.9366 47.8987 32.8113 47.8027 32.7526 47.68C32.7046 47.584 32.6513 47.4427 32.5926 47.256C32.5393 47.064 32.4833 46.848 32.4246 46.608C32.366 46.3627 32.3046 46.0987 32.2406 45.816C32.182 45.5333 32.126 45.2507 32.0726 44.968C32.0246 44.6853 31.9793 44.4107 31.9366 44.144C31.894 43.872 31.862 43.624 31.8406 43.4C31.9153 43.3307 32.0193 43.2667 32.1526 43.208C32.286 43.1493 32.43 43.12 32.5846 43.12C32.7873 43.12 32.9526 43.1653 33.0806 43.256C33.214 43.3413 33.2966 43.488 33.3286 43.696C33.414 44.24 33.4833 44.6933 33.5366 45.056C33.5953 45.4187 33.6406 45.7173 33.6726 45.952C33.71 46.1813 33.7366 46.36 33.7526 46.488C33.7686 46.616 33.7846 46.7173 33.8006 46.792H33.8406C33.8886 46.5787 33.934 46.3813 33.9766 46.2C34.0193 46.0187 34.062 45.8373 34.1046 45.656C34.1526 45.4693 34.2006 45.272 34.2486 45.064C34.2966 44.8507 34.3473 44.608 34.4006 44.336ZM38.8269 45.568C38.8269 45.152 38.8909 44.784 39.0189 44.464C39.1522 44.144 39.3309 43.8773 39.5549 43.664C39.7842 43.4453 40.0509 43.28 40.3549 43.168C40.6642 43.056 40.9975 43 41.3549 43C41.7122 43 42.0429 43.056 42.3469 43.168C42.6562 43.28 42.9255 43.4453 43.1549 43.664C43.3842 43.8773 43.5629 44.144 43.6909 44.464C43.8242 44.784 43.8909 45.152 43.8909 45.568C43.8909 45.984 43.8269 46.3547 43.6989 46.68C43.5709 47 43.3922 47.2693 43.1629 47.488C42.9389 47.7013 42.6722 47.864 42.3629 47.976C42.0535 48.088 41.7175 48.144 41.3549 48.144C40.9922 48.144 40.6562 48.088 40.3469 47.976C40.0375 47.8587 39.7709 47.6907 39.5469 47.472C39.3229 47.2533 39.1469 46.984 39.0189 46.664C38.8909 46.344 38.8269 45.9787 38.8269 45.568ZM40.2669 45.568C40.2669 46.0533 40.3655 46.416 40.5629 46.656C40.7602 46.896 41.0242 47.016 41.3549 47.016C41.6909 47.016 41.9575 46.896 42.1549 46.656C42.3522 46.416 42.4509 46.0533 42.4509 45.568C42.4509 45.088 42.3522 44.728 42.1549 44.488C41.9629 44.248 41.6989 44.128 41.3629 44.128C41.0322 44.128 40.7655 44.248 40.5629 44.488C40.3655 44.7227 40.2669 45.0827 40.2669 45.568ZM45.4359 48.024C45.2065 48.024 45.0252 47.9573 44.8919 47.824C44.7585 47.6907 44.6919 47.5093 44.6919 47.28V43.144C44.7505 43.1333 44.8439 43.12 44.9719 43.104C45.0999 43.0827 45.2225 43.072 45.3399 43.072C45.4625 43.072 45.5692 43.0827 45.6599 43.104C45.7559 43.12 45.8359 43.152 45.8999 43.2C45.9639 43.248 46.0119 43.3147 46.0439 43.4C46.0759 43.4853 46.0919 43.5973 46.0919 43.736V46.896H47.9239C47.9612 46.9547 47.9959 47.0347 48.0279 47.136C48.0599 47.232 48.0759 47.3333 48.0759 47.44C48.0759 47.6533 48.0305 47.8053 47.9399 47.896C47.8492 47.9813 47.7292 48.024 47.5799 48.024H45.4359ZM52.2014 43.152C52.2388 43.2107 52.2708 43.2907 52.2974 43.392C52.3294 43.488 52.3454 43.5893 52.3454 43.696C52.3454 43.904 52.3001 44.0533 52.2094 44.144C52.1241 44.2293 52.0068 44.272 51.8574 44.272H50.1774V45.176H51.9294C51.9721 45.2347 52.0068 45.312 52.0334 45.408C52.0654 45.504 52.0814 45.6053 52.0814 45.712C52.0814 45.9147 52.0361 46.0613 51.9454 46.152C51.8601 46.2373 51.7428 46.28 51.5934 46.28H50.1934V47.968C50.1348 47.984 50.0414 48 49.9134 48.016C49.7908 48.032 49.6681 48.04 49.5454 48.04C49.4228 48.04 49.3134 48.0293 49.2174 48.008C49.1268 47.992 49.0494 47.96 48.9854 47.912C48.9214 47.864 48.8734 47.7973 48.8414 47.712C48.8094 47.6267 48.7934 47.5147 48.7934 47.376V43.896C48.7934 43.6667 48.8601 43.4853 48.9934 43.352C49.1268 43.2187 49.3081 43.152 49.5374 43.152H52.2014Z"/>
</mask>
<path d="M8.35656 47H7.35656V47.7543L8.08184 47.9615L8.35656 47ZM8.64456 47.048L8.55403 48.0439L8.57656 48.0459L8.59916 48.047L8.64456 47.048ZM9.50856 46.928L10.0327 47.7797L10.0414 47.7742L9.50856 46.928ZM9.54856 46.136L9.01169 46.9797L9.54856 46.136ZM8.35656 46.024V45.024H7.35656V46.024H8.35656ZM8.35656 45.048H7.35656V46.048H8.35656V45.048ZM9.43656 44.92L8.81187 44.1391L8.80205 44.147L8.79243 44.1551L9.43656 44.92ZM9.41256 44.2L8.82439 45.0087L8.83288 45.0149L8.8415 45.0209L9.41256 44.2ZM8.59656 44.08L8.54662 43.0812L8.544 43.0814L8.59656 44.08ZM8.35656 44.104L8.17768 43.1201L7.35656 43.2694V44.104H8.35656ZM8.55656 48.12L8.51313 49.1191L8.55656 48.12ZM8.17256 48.088L8.04853 49.0803L8.05342 49.0809L8.17256 48.088ZM7.78856 48.024L7.99252 47.045L7.97281 47.0409L7.95296 47.0376L7.78856 48.024ZM7.43656 47.928L7.80795 46.9995L7.80063 46.9966L7.79326 46.9938L7.43656 47.928ZM7.08456 43.352L7.79167 44.0591L7.79167 44.0591L7.08456 43.352ZM7.34056 43.2L7.67091 44.1439L7.67338 44.143L7.34056 43.2ZM8.02056 43.064L8.11813 44.0592L8.12778 44.0583L8.1374 44.0572L8.02056 43.064ZM10.4366 43.36L10.9655 42.5113L10.9655 42.5113L10.4366 43.36ZM10.7806 45.048L11.5567 45.6786L11.5614 45.6728L11.5661 45.6669L10.7806 45.048ZM10.2206 45.424L9.89789 44.4775L6.84652 45.5177L9.95093 46.387L10.2206 45.424ZM10.8846 45.832L10.1383 46.4976L10.1432 46.5032L10.1482 46.5086L10.8846 45.832ZM10.5646 47.752L11.1059 48.5928L11.1088 48.591L10.5646 47.752ZM8.08184 47.9615C8.23903 48.0064 8.40279 48.0301 8.55403 48.0439L8.7351 46.0521C8.69622 46.0486 8.66802 46.0448 8.64896 46.0416C8.62932 46.0383 8.62463 46.0366 8.63128 46.0385L8.08184 47.9615ZM8.59916 48.047C8.73012 48.0529 8.85733 48.056 8.98056 48.056V46.056C8.89046 46.056 8.79367 46.0537 8.68997 46.049L8.59916 48.047ZM8.98056 48.056C9.32279 48.056 9.69457 47.9877 10.0327 47.7797L8.98447 46.0763C8.99873 46.0676 9.01122 46.0616 9.02076 46.0577C9.03021 46.0539 9.03598 46.0524 9.03696 46.0521C9.03832 46.0518 9.0215 46.056 8.98056 46.056V48.056ZM10.0414 47.7742C10.5083 47.4803 10.7246 47.0025 10.7246 46.512H8.72456C8.72456 46.476 8.73206 46.3934 8.78307 46.2952C8.83616 46.1929 8.9112 46.1224 8.97575 46.0818L10.0414 47.7742ZM10.7246 46.512C10.7246 46.0975 10.5688 45.5999 10.0854 45.2923L9.01169 46.9797C8.91088 46.9155 8.82653 46.8203 8.77487 46.7099C8.72761 46.609 8.72456 46.532 8.72456 46.512H10.7246ZM10.0854 45.2923C9.72913 45.0656 9.32114 45.024 9.01256 45.024V47.024C9.04698 47.024 9.07323 47.0254 9.09224 47.027C9.11138 47.0288 9.12076 47.0306 9.12202 47.0309C9.12339 47.0311 9.11346 47.0292 9.09517 47.0223C9.07678 47.0153 9.04731 47.0023 9.01169 46.9797L10.0854 45.2923ZM9.01256 45.024H8.35656V47.024H9.01256V45.024ZM7.35656 46.024V47H9.35656V46.024H7.35656ZM8.35656 46.048H8.94056V44.048H8.35656V46.048ZM8.94056 46.048C9.24916 46.048 9.7076 45.9991 10.0807 45.6849L8.79243 44.1551C8.88442 44.0776 8.96476 44.0534 8.98668 44.0477C9.00806 44.0422 8.99774 44.048 8.94056 44.048V46.048ZM10.0613 45.7009C10.4554 45.3855 10.5966 44.9423 10.5966 44.544H8.59656C8.59656 44.5202 8.6004 44.4551 8.63641 44.3704C8.67471 44.2804 8.73642 44.1995 8.81187 44.1391L10.0613 45.7009ZM10.5966 44.544C10.5966 44.0582 10.363 43.643 9.98363 43.3791L8.8415 45.0209C8.79254 44.9868 8.72305 44.9231 8.66878 44.8217C8.61377 44.7188 8.59656 44.6186 8.59656 44.544H10.5966ZM10.0007 43.3913C9.63303 43.1238 9.2021 43.072 8.87656 43.072V45.072C8.9073 45.072 8.92932 45.0734 8.94368 45.0748C8.95814 45.0763 8.96238 45.0776 8.95829 45.0767C8.95218 45.0752 8.89666 45.0613 8.82439 45.0087L10.0007 43.3913ZM8.87656 43.072C8.77547 43.072 8.66481 43.0753 8.54662 43.0812L8.6465 45.0788C8.74165 45.074 8.81765 45.072 8.87656 45.072V43.072ZM8.544 43.0814C8.42524 43.0876 8.29703 43.0984 8.17768 43.1201L8.53545 45.0879C8.53125 45.0886 8.53818 45.0872 8.56007 45.085C8.58104 45.0829 8.61028 45.0807 8.64912 45.0786L8.544 43.0814ZM7.35656 44.104V45.048H9.35656V44.104H7.35656ZM8.87656 47.128C8.80441 47.128 8.71288 47.1259 8.6 47.1209L8.51313 49.1191C8.64558 49.1248 8.76738 49.128 8.87656 49.128V47.128ZM8.6 47.1209C8.50486 47.1168 8.4022 47.1084 8.29171 47.0951L8.05342 49.0809C8.20959 49.0996 8.36294 49.1125 8.51313 49.1191L8.6 47.1209ZM8.2966 47.0957C8.19577 47.0831 8.09443 47.0663 7.99252 47.045L7.58461 49.003C7.7387 49.0351 7.89336 49.0609 8.04853 49.0803L8.2966 47.0957ZM7.95296 47.0376C7.88688 47.0266 7.83997 47.0123 7.80795 46.9995L7.06517 48.8565C7.24649 48.929 7.43425 48.9787 7.62416 49.0104L7.95296 47.0376ZM7.79326 46.9938C7.77234 46.9858 7.8371 47.0058 7.90525 47.0963C7.98022 47.1958 7.99656 47.2968 7.99656 47.344H5.99656C5.99656 47.6685 6.08623 48.0056 6.30788 48.2997C6.52269 48.5849 6.80745 48.7582 7.07986 48.8622L7.79326 46.9938ZM7.99656 47.344V43.608H5.99656V47.344H7.99656ZM7.99656 43.608C7.99656 43.6658 7.97869 43.8721 7.79167 44.0591L6.37746 42.6449C6.0731 42.9492 5.99656 43.3262 5.99656 43.608H7.99656ZM7.79167 44.0591C7.72642 44.1244 7.67166 44.1436 7.67091 44.1439L7.01021 42.2561C6.79613 42.3311 6.57071 42.4516 6.37746 42.6449L7.79167 44.0591ZM7.67338 44.143C7.75428 44.1144 7.89569 44.081 8.11813 44.0592L7.92299 42.0688C7.60143 42.1003 7.28951 42.1576 7.00774 42.257L7.67338 44.143ZM8.1374 44.0572C8.36869 44.0299 8.60962 44.016 8.86056 44.016V42.016C8.53551 42.016 8.21643 42.0341 7.90372 42.0708L8.1374 44.0572ZM8.86056 44.016C9.45444 44.016 9.76497 44.1198 9.90767 44.2087L10.9655 42.5113C10.3722 42.1416 9.63202 42.016 8.86056 42.016V44.016ZM9.90767 44.2087C9.95284 44.2368 9.9605 44.2539 9.96291 44.2585C9.96764 44.2676 9.98856 44.3123 9.98856 44.424H11.9886C11.9886 43.6428 11.662 42.9454 10.9655 42.5113L9.90767 44.2087ZM9.98856 44.424C9.98856 44.4358 9.98772 44.4425 9.98733 44.4451C9.98695 44.4475 9.98688 44.4468 9.98788 44.4438C9.98889 44.4407 9.99041 44.4372 9.99227 44.4337C9.99412 44.4303 9.99539 44.4287 9.99507 44.4291L11.5661 45.6669C11.8539 45.3015 11.9886 44.8714 11.9886 44.424H9.98856ZM10.0044 44.4174C9.99887 44.4243 9.97803 44.4502 9.89789 44.4775L10.5432 46.3705C10.9324 46.2378 11.2849 46.0131 11.5567 45.6786L10.0044 44.4174ZM9.95093 46.387C10.0427 46.4127 10.0957 46.4498 10.1383 46.4976L11.6309 45.1664C11.3215 44.8195 10.9317 44.5847 10.4902 44.461L9.95093 46.387ZM10.1482 46.5086C10.1508 46.5114 10.1509 46.512 10.1502 46.5107C10.1493 46.5094 10.1491 46.5086 10.1494 46.5094C10.1496 46.5099 10.1566 46.5286 10.1566 46.576H12.1566C12.1566 46.0577 11.9917 45.5589 11.6209 45.1554L10.1482 46.5086ZM10.1566 46.576C10.1566 46.8141 10.0921 46.8665 10.0204 46.913L11.1088 48.591C11.8264 48.1255 12.1566 47.3939 12.1566 46.576H10.1566ZM10.0232 46.9112C9.86449 47.0134 9.52396 47.128 8.87656 47.128V49.128C9.70117 49.128 10.486 48.9919 11.1059 48.5928L10.0232 46.9112ZM12.1497 47.824L12.8568 47.1169L12.1497 47.824ZM11.9497 43.144L11.7708 42.1601L10.9497 42.3094V43.144H11.9497ZM12.2297 43.104L12.3537 44.0963L12.374 44.0937L12.3941 44.0904L12.2297 43.104ZM12.9177 43.104L12.6886 44.0774L12.7208 44.085L12.7533 44.0904L12.9177 43.104ZM13.1577 43.2L12.5577 44L12.5577 44L13.1577 43.2ZM13.3017 43.4L14.238 43.0489V43.0489L13.3017 43.4ZM13.3497 46.896H12.3497V47.896H13.3497V46.896ZM15.1817 46.896L16.0253 46.3591L15.7306 45.896H15.1817V46.896ZM15.2857 47.136L14.3321 47.4371L14.3345 47.4447L14.337 47.4522L15.2857 47.136ZM15.1977 47.896L15.8831 48.6242L15.8941 48.6138L15.9048 48.6031L15.1977 47.896ZM12.6937 47.024C12.6753 47.024 12.6924 47.0213 12.7308 47.0354C12.7727 47.0508 12.8184 47.0785 12.8568 47.1169L11.4426 48.5311C11.8026 48.8912 12.2603 49.024 12.6937 49.024V47.024ZM12.8568 47.1169C12.8952 47.1553 12.9229 47.201 12.9383 47.2429C12.9524 47.2813 12.9497 47.2984 12.9497 47.28H10.9497C10.9497 47.7134 11.0825 48.171 11.4426 48.5311L12.8568 47.1169ZM12.9497 47.28V43.144H10.9497V47.28H12.9497ZM12.1286 44.1279C12.1581 44.1225 12.2281 44.112 12.3537 44.0963L12.1057 42.1117C11.9753 42.128 11.8586 42.1442 11.7708 42.1601L12.1286 44.1279ZM12.3941 44.0904C12.4734 44.0772 12.5409 44.072 12.5977 44.072V42.072C12.4198 42.072 12.242 42.0882 12.0653 42.1176L12.3941 44.0904ZM12.5977 44.072C12.6304 44.072 12.6542 44.0734 12.6702 44.075C12.6863 44.0766 12.6918 44.0782 12.6886 44.0774L13.1467 42.1306C12.9617 42.087 12.7747 42.072 12.5977 42.072V44.072ZM12.7533 44.0904C12.7251 44.0857 12.6467 44.0668 12.5577 44L13.7577 42.4C13.5406 42.2372 13.3023 42.1543 13.0821 42.1176L12.7533 44.0904ZM12.5577 44C12.4486 43.9182 12.3908 43.8189 12.3654 43.7511L14.238 43.0489C14.1486 42.8104 13.9948 42.5778 13.7577 42.4L12.5577 44ZM12.3654 43.7511C12.3578 43.731 12.3534 43.7153 12.351 43.7054C12.3486 43.6954 12.3478 43.6898 12.3477 43.6894C12.3477 43.689 12.3482 43.6926 12.3487 43.7007C12.3492 43.7088 12.3497 43.7204 12.3497 43.736H14.3497C14.3497 43.5335 14.3281 43.2891 14.238 43.0489L12.3654 43.7511ZM12.3497 43.736V46.896H14.3497V43.736H12.3497ZM13.3497 47.896H15.1817V45.896H13.3497V47.896ZM14.338 47.4329C14.3299 47.4201 14.3246 47.4104 14.3217 47.4048C14.3188 47.3992 14.3177 47.3966 14.3181 47.3976C14.3185 47.3986 14.3201 47.4022 14.3226 47.4091C14.3251 47.4159 14.3283 47.4251 14.3321 47.4371L16.2393 46.8349C16.1933 46.6893 16.1271 46.5191 16.0253 46.3591L14.338 47.4329ZM14.337 47.4522C14.3353 47.4473 14.3344 47.443 14.3339 47.44C14.3335 47.437 14.3337 47.4368 14.3337 47.44H16.3337C16.3337 47.2317 16.3022 47.0231 16.2344 46.8198L14.337 47.4522ZM14.3337 47.44C14.3337 47.4809 14.3287 47.4706 14.3414 47.4282C14.3551 47.3823 14.3938 47.2856 14.4906 47.1889L15.9048 48.6031C16.2748 48.2331 16.3337 47.752 16.3337 47.44H14.3337ZM14.5123 47.1678C14.5701 47.1135 14.6374 47.0737 14.7047 47.0498C14.769 47.0269 14.8175 47.024 14.8377 47.024V49.024C15.1879 49.024 15.5711 48.9178 15.8831 48.6242L14.5123 47.1678ZM14.8377 47.024H12.6937V49.024H14.8377V47.024ZM17.1614 43.296L16.6544 42.4341L16.3552 42.6101L16.2294 42.9336L17.1614 43.296ZM17.5694 43.144L17.3203 42.1755L17.3135 42.1773L17.5694 43.144ZM18.8334 43.192L18.4662 44.1222L18.4808 44.1279L18.4955 44.1332L18.8334 43.192ZM19.2334 43.552L20.1784 43.2249L20.1758 43.2176L19.2334 43.552ZM19.5454 44.52L20.502 44.2288L19.5454 44.52ZM19.8814 45.664L18.9194 45.937L18.9203 45.9405L19.8814 45.664ZM20.2094 46.824L19.2459 47.0916L19.2468 47.0951L20.2094 46.824ZM20.4894 47.832L21.2486 48.4828L21.5936 48.0803L21.4541 47.5689L20.4894 47.832ZM20.2014 48.008L19.8851 47.0593L19.8676 47.0652L19.8503 47.0717L20.2014 48.008ZM19.4174 48.048L19.1748 49.0182L19.1883 49.0214L19.4174 48.048ZM19.2014 47.952L18.5767 48.7329L18.5946 48.7472L18.6132 48.7607L19.2014 47.952ZM19.0654 47.784L18.1574 48.2031L18.1703 48.231L18.1849 48.2581L19.0654 47.784ZM18.9774 47.544L18.0098 47.7964L18.0137 47.8114L18.018 47.8262L18.9774 47.544ZM18.8334 46.992L19.801 46.7396L19.606 45.992H18.8334V46.992ZM17.3854 46.992V45.992H16.6171L16.4191 46.7343L17.3854 46.992ZM17.2574 47.488L16.2872 47.2455L17.2574 47.488ZM17.1294 47.984L17.4657 48.9257L17.9603 48.7491L18.0956 48.2417L17.1294 47.984ZM16.8894 48.048L16.7051 47.0651L16.6681 47.0721L16.6317 47.0818L16.8894 48.048ZM15.9854 47.944L15.3854 48.744L15.4039 48.7579L15.4231 48.7709L15.9854 47.944ZM15.8254 47.328L14.8639 47.0533H14.8639L15.8254 47.328ZM15.8974 47.064L16.8645 47.3185L16.8654 47.315L15.8974 47.064ZM16.0494 46.528L15.0983 46.2189L15.0948 46.2297L15.0915 46.2407L16.0494 46.528ZM16.2734 45.84L17.2241 46.15L17.226 46.144L16.2734 45.84ZM16.5294 45.072L15.5846 44.7442V44.7442L16.5294 45.072ZM16.7854 44.336L17.7296 44.6654L17.7319 44.6587L16.7854 44.336ZM17.0014 43.712L16.0673 43.3549L16.0627 43.367L16.0584 43.3792L17.0014 43.712ZM18.1214 44.328V43.328H17.4006L17.1727 44.0118L18.1214 44.328ZM17.8654 45.08L16.9203 44.7529L16.9167 44.7638L17.8654 45.08ZM17.6174 45.912L16.6505 45.6566L16.3189 46.912H17.6174V45.912ZM18.6094 45.912V46.912H19.9017L19.5774 45.661L18.6094 45.912ZM18.3774 45.072L17.4118 45.332L17.4148 45.3431L17.418 45.3542L18.3774 45.072ZM18.1694 44.328L19.1291 44.0471L18.9186 43.328H18.1694V44.328ZM17.6684 44.1579C17.6485 44.1696 17.6482 44.1671 17.6805 44.1551C17.7106 44.1439 17.7576 44.1286 17.8253 44.1107L17.3135 42.1773C17.1014 42.2334 16.8621 42.3119 16.6544 42.4341L17.6684 44.1579ZM17.8184 44.1125C17.9264 44.0847 18.0294 44.072 18.1294 44.072V42.072C17.856 42.072 17.5857 42.1073 17.3203 42.1755L17.8184 44.1125ZM18.1294 44.072C18.2976 44.072 18.4034 44.0974 18.4662 44.1222L19.2005 42.2618C18.858 42.1266 18.4944 42.072 18.1294 42.072V44.072ZM18.4955 44.1332C18.5048 44.1365 18.4698 44.1257 18.4204 44.0813C18.3662 44.0325 18.3186 43.9643 18.2909 43.8864L20.1758 43.2176C19.9915 42.6983 19.5817 42.3981 19.1712 42.2508L18.4955 44.1332ZM18.2884 43.8791C18.3792 44.1415 18.4793 44.4518 18.5887 44.8112L20.502 44.2288C20.3874 43.8522 20.2795 43.5171 20.1784 43.2249L18.2884 43.8791ZM18.5887 44.8112C18.6987 45.1727 18.809 45.548 18.9194 45.937L20.8434 45.391C20.7298 44.9907 20.616 44.6033 20.502 44.2288L18.5887 44.8112ZM18.9203 45.9405C19.0315 46.3269 19.14 46.7106 19.2459 47.0916L21.1729 46.5564C21.0654 46.1694 20.9552 45.7798 20.8424 45.3875L18.9203 45.9405ZM19.2468 47.0951C19.353 47.4719 19.4455 47.8051 19.5246 48.0951L21.4541 47.5689C21.3732 47.2722 21.2791 46.9335 21.1719 46.5529L19.2468 47.0951ZM19.7301 47.1812C19.8201 47.0763 19.9026 47.0535 19.8851 47.0593L20.5176 48.9567C20.7561 48.8772 21.0307 48.7371 21.2486 48.4828L19.7301 47.1812ZM19.8503 47.0717C19.8616 47.0674 19.8343 47.08 19.7454 47.08V49.08C20.0085 49.08 20.2851 49.0446 20.5525 48.9443L19.8503 47.0717ZM19.7454 47.08C19.7087 47.08 19.6821 47.0784 19.6645 47.0767C19.6466 47.075 19.6414 47.0734 19.6464 47.0746L19.1883 49.0214C19.3761 49.0656 19.5667 49.08 19.7454 49.08V47.08ZM19.6599 47.0779C19.6733 47.0812 19.7249 47.0963 19.7895 47.1433L18.6132 48.7607C18.7952 48.8931 18.9908 48.9721 19.1748 49.0181L19.6599 47.0779ZM19.8261 47.1711C19.8926 47.2243 19.9291 47.2788 19.9458 47.3099L18.1849 48.2581C18.2763 48.4279 18.4035 48.5943 18.5767 48.7329L19.8261 47.1711ZM19.9733 47.3649C19.9659 47.3489 19.9527 47.3162 19.9367 47.2618L18.018 47.8262C18.0554 47.9531 18.1008 48.0805 18.1574 48.2031L19.9733 47.3649ZM19.945 47.2916L19.801 46.7396L17.8658 47.2444L18.0098 47.7964L19.945 47.2916ZM18.8334 45.992H17.3854V47.992H18.8334V45.992ZM16.4191 46.7343C16.3751 46.8997 16.3311 47.0701 16.2872 47.2455L18.2275 47.7305C18.269 47.5646 18.3104 47.4043 18.3516 47.2497L16.4191 46.7343ZM16.2872 47.2455C16.2458 47.4114 16.2044 47.5717 16.1631 47.7263L18.0956 48.2417C18.1397 48.0763 18.1837 47.9059 18.2275 47.7305L16.2872 47.2455ZM16.793 47.0423C16.7723 47.0497 16.7436 47.0579 16.7051 47.0651L17.0737 49.0309C17.2059 49.0061 17.3371 48.9717 17.4657 48.9257L16.793 47.0423ZM16.6317 47.0818C16.6495 47.077 16.6561 47.0769 16.6479 47.0778C16.64 47.0786 16.6224 47.08 16.5934 47.08V49.08C16.7647 49.08 16.9561 49.0651 17.147 49.0142L16.6317 47.0818ZM16.5934 47.08C16.5528 47.08 16.5212 47.0783 16.4974 47.076C16.4736 47.0738 16.4603 47.0711 16.4557 47.0701C16.451 47.0691 16.458 47.0702 16.4736 47.0766C16.4893 47.0829 16.5157 47.0953 16.5477 47.1171L15.4231 48.7709C15.8012 49.028 16.2442 49.08 16.5934 49.08V47.08ZM16.5854 47.144C16.635 47.1812 16.6952 47.2438 16.7394 47.3341C16.7831 47.4233 16.7934 47.5031 16.7934 47.552H14.7934C14.7934 48.0198 14.9959 48.4519 15.3854 48.744L16.5854 47.144ZM16.7934 47.552C16.7934 47.5739 16.7901 47.5916 16.7869 47.6027L14.8639 47.0533C14.818 47.2137 14.7934 47.3808 14.7934 47.552H16.7934ZM16.7869 47.6027C16.8107 47.5195 16.8366 47.4244 16.8645 47.3185L14.9303 46.8095C14.9048 46.9062 14.8827 46.9872 14.8639 47.0533L16.7869 47.6027ZM16.8654 47.315C16.8984 47.1875 16.9452 47.0219 17.0072 46.8153L15.0915 46.2407C15.0255 46.4608 14.971 46.6525 14.9294 46.813L16.8654 47.315ZM17.0004 46.8371C17.0696 46.6241 17.1442 46.3951 17.2241 46.15L15.3226 45.53C15.2426 45.7756 15.1678 46.0052 15.0983 46.2189L17.0004 46.8371ZM17.226 46.144C17.3034 45.9017 17.3861 45.6536 17.4741 45.3998L15.5846 44.7442C15.4914 45.013 15.4034 45.277 15.3207 45.536L17.226 46.144ZM17.4741 45.3998C17.5646 45.1389 17.6498 44.8941 17.7296 44.6654L15.8412 44.0066C15.761 44.2366 15.6754 44.4824 15.5846 44.7442L17.4741 45.3998ZM17.7319 44.6587C17.811 44.4265 17.8818 44.222 17.9444 44.0448L16.0584 43.3792C15.9929 43.5647 15.9197 43.7762 15.8389 44.0133L17.7319 44.6587ZM17.9354 44.0691C18.0046 43.8883 18.0571 43.7518 18.0934 43.6584L16.2294 42.9336C16.191 43.0322 16.1369 43.173 16.0673 43.3549L17.9354 44.0691ZM17.1727 44.0118C17.0995 44.2314 17.0154 44.4783 16.9204 44.7529L18.8104 45.4071C18.9073 45.127 18.9939 44.8726 19.0701 44.6442L17.1727 44.0118ZM16.9167 44.7638C16.8192 45.0562 16.7305 45.3539 16.6505 45.6566L18.5842 46.1674C18.6536 45.9048 18.7302 45.6478 18.8141 45.3962L16.9167 44.7638ZM17.6174 46.912H18.6094V44.912H17.6174V46.912ZM19.5774 45.661C19.5001 45.3631 19.4199 45.0727 19.3367 44.7898L17.418 45.3542C17.4948 45.6153 17.5693 45.8849 17.6414 46.163L19.5774 45.661ZM19.343 44.812C19.2669 44.5294 19.1956 44.2742 19.1291 44.0471L17.2096 44.6089C17.2712 44.8191 17.3385 45.0599 17.4118 45.332L19.343 44.812ZM18.1694 43.328H18.1214V45.328H18.1694V43.328ZM22.5949 44.504L23.3484 45.1614L22.5949 44.504ZM22.6269 46.64L21.9045 47.3316L21.9122 47.3395L22.6269 46.64ZM24.1629 46.928L23.8082 45.9929L23.7972 45.9972L24.1629 46.928ZM24.6029 46.728L25.2386 45.9561L24.7201 45.5291L24.1288 45.8475L24.6029 46.728ZM24.8109 47L23.899 47.4104L23.9116 47.4385L23.926 47.4657L24.8109 47ZM24.5229 47.92L25.0512 48.7691L25.0562 48.7659L24.5229 47.92ZM22.4109 47.992L22.1043 48.9439L22.4109 47.992ZM21.5869 47.528L20.9141 48.268L20.9236 48.2763L21.5869 47.528ZM21.0269 46.728L20.1016 47.1072L20.1054 47.1165L20.1093 47.1256L21.0269 46.728ZM21.0189 44.472L20.0958 44.0874L20.0926 44.0952L21.0189 44.472ZM21.5549 43.664L20.8648 42.9402L20.8563 42.9484L21.5549 43.664ZM22.3549 43.168L22.0092 42.2297L22.0092 42.2297L22.3549 43.168ZM24.4669 43.24L23.9524 44.0975L23.9599 44.1019L24.4669 43.24ZM24.7709 44.216L23.9456 43.6513L23.9456 43.6513L24.7709 44.216ZM24.5309 44.456L23.9836 45.293L24.528 45.6489L25.0741 45.2956L24.5309 44.456ZM24.0829 44.224L23.7005 45.1481L23.7115 45.1525L24.0829 44.224ZM23.5389 43.128C22.9128 43.128 22.2934 43.3284 21.8413 43.8466L23.3484 45.1614C23.3514 45.158 23.3524 45.156 23.3649 45.151C23.3824 45.1441 23.4341 45.128 23.5389 45.128V43.128ZM21.8413 43.8466C21.4124 44.3383 21.2669 44.9592 21.2669 45.568H23.2669C23.2669 45.2594 23.34 45.171 23.3484 45.1614L21.8413 43.8466ZM21.2669 45.568C21.2669 46.2006 21.433 46.8391 21.9046 47.3316L23.3492 45.9484C23.3407 45.9396 23.2669 45.8634 23.2669 45.568H21.2669ZM21.9122 47.3395C22.3778 47.8152 22.981 48.016 23.6109 48.016V46.016C23.4194 46.016 23.3666 45.9662 23.3415 45.9405L21.9122 47.3395ZM23.6109 48.016C23.9122 48.016 24.2288 47.9765 24.5285 47.8588L23.7972 45.9972C23.7983 45.9968 23.7469 46.016 23.6109 46.016V48.016ZM24.5175 47.863C24.7111 47.7896 24.8979 47.7049 25.077 47.6085L24.1288 45.8475C24.0306 45.9004 23.924 45.9491 23.8082 45.993L24.5175 47.863ZM23.9672 47.4999C23.9552 47.4901 23.9416 47.4766 23.9285 47.4595C23.9154 47.4423 23.9057 47.4253 23.899 47.4104L25.7228 46.5896C25.6115 46.3422 25.4474 46.128 25.2386 45.9561L23.9672 47.4999ZM23.926 47.4657C23.8893 47.3962 23.8909 47.3497 23.8909 47.36H25.8909C25.8909 47.093 25.8391 46.8065 25.6958 46.5343L23.926 47.4657ZM23.8909 47.36C23.8909 47.3198 23.8967 47.2746 23.9107 47.2283C23.9247 47.1822 23.944 47.144 23.9632 47.1148C24 47.0588 24.026 47.0511 23.9896 47.0741L25.0562 48.7659C25.4857 48.4952 25.8909 48.0313 25.8909 47.36H23.8909ZM23.9946 47.0709C24.0029 47.0658 23.9714 47.087 23.868 47.108C23.7665 47.1286 23.62 47.144 23.4189 47.144V49.144C23.9786 49.144 24.5733 49.0664 25.0512 48.7691L23.9946 47.0709ZM23.4189 47.144C23.1572 47.144 22.9253 47.1071 22.7174 47.0401L22.1043 48.9439C22.5258 49.0796 22.9659 49.144 23.4189 49.144V47.144ZM22.7174 47.0401C22.5272 46.9789 22.3757 46.8909 22.2502 46.7797L20.9236 48.2763C21.2674 48.5811 21.6652 48.8025 22.1043 48.9439L22.7174 47.0401ZM22.2595 46.7881C22.1399 46.6793 22.0324 46.5333 21.9444 46.3304L20.1093 47.1256C20.2987 47.5627 20.5645 47.95 20.9142 48.2679L22.2595 46.7881ZM21.9522 46.3488C21.8797 46.1718 21.8269 45.9201 21.8269 45.568H19.8269C19.8269 46.1119 19.9074 46.6335 20.1016 47.1072L21.9522 46.3488ZM21.8269 45.568C21.8269 45.253 21.8754 45.0202 21.9452 44.8488L20.0926 44.0952C19.9063 44.5531 19.8269 45.051 19.8269 45.568H21.8269ZM21.942 44.8566C22.0291 44.6475 22.1357 44.4945 22.2534 44.3796L20.8563 42.9484C20.5261 43.2708 20.2753 43.6565 20.0958 44.0874L21.942 44.8566ZM22.2449 44.3877C22.3731 44.2655 22.5219 44.1722 22.7006 44.1063L22.0092 42.2297C21.5799 42.3878 21.1953 42.6251 20.8648 42.9403L22.2449 44.3877ZM22.7006 44.1063C22.8863 44.0379 23.0939 44 23.3309 44V42C22.8745 42 22.4314 42.0741 22.0092 42.2297L22.7006 44.1063ZM23.3309 44C23.7356 44 23.9064 44.0699 23.9524 44.0975L24.9814 42.3825C24.494 42.0901 23.9075 42 23.3309 42V44ZM23.9599 44.1019C24.0005 44.1258 23.9753 44.1207 23.9392 44.0662C23.9207 44.0383 23.9032 44.003 23.8911 43.9623C23.879 43.9217 23.8749 43.8849 23.8749 43.856H25.8749C25.8749 43.1562 25.4598 42.6639 24.9739 42.3781L23.9599 44.1019ZM23.8749 43.856C23.8749 43.8416 23.8767 43.812 23.8882 43.7725C23.8999 43.7319 23.9191 43.6901 23.9456 43.6513L25.5962 44.7807C25.7937 44.492 25.8749 44.1692 25.8749 43.856H23.8749ZM23.9456 43.6513C23.9429 43.6552 23.9445 43.6521 23.9518 43.6449C23.9592 43.6375 23.9711 43.6271 23.9876 43.6164L25.0741 45.2956C25.2903 45.1557 25.4622 44.9765 25.5962 44.7807L23.9456 43.6513ZM25.0781 43.619C24.8818 43.4907 24.6733 43.3831 24.4543 43.2955L23.7115 45.1525C23.8124 45.1929 23.9026 45.24 23.9836 45.293L25.0781 43.619ZM24.4652 43.3C24.1638 43.1752 23.8473 43.128 23.5389 43.128V45.128C23.6465 45.128 23.6926 45.1448 23.7005 45.148L24.4652 43.3ZM27.0452 46.2L27.8035 45.5481L26.0452 43.503V46.2H27.0452ZM27.0452 47.968L27.3083 48.9328L28.0452 48.7318V47.968H27.0452ZM26.7652 48.016L26.8892 49.0083L26.7652 48.016ZM26.0612 48.008L26.2781 47.0318L26.2566 47.027L26.235 47.0232L26.0612 48.008ZM25.8292 47.912L25.2292 48.712L25.8292 47.912ZM25.6852 47.712L24.7489 48.0631L25.6852 47.712ZM25.6372 43.152L25.4583 42.1681L24.6372 42.3174V43.152H25.6372ZM25.9172 43.112L26.0412 44.1043L26.0615 44.1017L26.0816 44.0984L25.9172 43.112ZM26.6052 43.112L26.3761 44.0854L26.4083 44.093L26.4408 44.0984L26.6052 43.112ZM26.8452 43.208L26.2452 44.008V44.008L26.8452 43.208ZM26.9892 43.408L26.0529 43.7591V43.7591L26.9892 43.408ZM27.0372 45.016H26.0372V47.6883L27.7915 45.6725L27.0372 45.016ZM28.7012 43.104V42.104H28.2458L27.9469 42.4475L28.7012 43.104ZM29.4772 43.312L28.8096 44.0566L28.8231 44.0686L28.837 44.0802L29.4772 43.312ZM29.6132 44.184L28.7426 43.6919L28.7426 43.6919L29.6132 44.184ZM29.2772 44.6L29.9843 45.3071V45.3071L29.2772 44.6ZM28.2772 45.6L27.5701 44.8929L26.9019 45.5611L27.5312 46.266L28.2772 45.6ZM28.6932 46.064L27.9499 46.733L27.956 46.7397L27.9621 46.7463L28.6932 46.064ZM29.1252 46.536L28.3806 47.2035L28.3927 47.2171L28.4053 47.2301L29.1252 46.536ZM29.5332 46.968L28.7984 47.6463L28.8053 47.6538L28.8124 47.6611L29.5332 46.968ZM29.8772 47.328H30.8772V46.9295L30.6031 46.6403L29.8772 47.328ZM29.8132 47.64L28.9084 47.2142L28.9084 47.2142L29.8132 47.64ZM29.6372 47.872L28.9864 47.1127L28.9724 47.1247L28.9589 47.1372L29.6372 47.872ZM28.5732 47.904L27.9449 48.6819L27.9541 48.6894L27.9635 48.6966L28.5732 47.904ZM28.1732 47.512L28.9324 46.8612L28.9315 46.8601L28.1732 47.512ZM26.0452 46.2V47.968H28.0452V46.2H26.0452ZM26.7821 47.0032C26.7958 46.9995 26.7925 47.0012 26.7622 47.0064C26.7347 47.0111 26.6951 47.017 26.6412 47.0237L26.8892 49.0083C27.0242 48.9914 27.177 48.9686 27.3083 48.9328L26.7821 47.0032ZM26.6412 47.0237C26.5522 47.0348 26.4683 47.04 26.3892 47.04V49.04C26.5554 49.04 26.7222 49.0292 26.8892 49.0083L26.6412 47.0237ZM26.3892 47.04C26.3224 47.04 26.2879 47.034 26.2781 47.0318L25.8443 48.9842C26.0264 49.0247 26.2107 49.04 26.3892 49.04V47.04ZM26.235 47.0232C26.2755 47.0304 26.3499 47.0525 26.4292 47.112L25.2292 48.712C25.4365 48.8675 25.6655 48.9536 25.8874 48.9928L26.235 47.0232ZM26.4292 47.112C26.5383 47.1938 26.5961 47.2931 26.6215 47.3609L24.7489 48.0631C24.8383 48.3016 24.9921 48.5342 25.2292 48.712L26.4292 47.112ZM26.6215 47.3609C26.6291 47.381 26.6334 47.3967 26.6359 47.4066C26.6383 47.4166 26.6391 47.4222 26.6391 47.4226C26.6392 47.423 26.6387 47.4194 26.6382 47.4113C26.6376 47.4032 26.6372 47.3916 26.6372 47.376H24.6372C24.6372 47.5785 24.6588 47.8229 24.7489 48.0631L26.6215 47.3609ZM26.6372 47.376V43.152H24.6372V47.376H26.6372ZM25.8161 44.1359C25.8456 44.1305 25.9156 44.12 26.0412 44.1043L25.7932 42.1197C25.6628 42.136 25.5461 42.1522 25.4583 42.1681L25.8161 44.1359ZM26.0816 44.0984C26.1609 44.0852 26.2284 44.08 26.2852 44.08V42.08C26.1073 42.08 25.9295 42.0962 25.7528 42.1256L26.0816 44.0984ZM26.2852 44.08C26.3179 44.08 26.3417 44.0814 26.3577 44.083C26.3738 44.0846 26.3793 44.0862 26.3761 44.0854L26.8342 42.1386C26.6492 42.095 26.4622 42.08 26.2852 42.08V44.08ZM26.4408 44.0984C26.4126 44.0937 26.3342 44.0748 26.2452 44.008L27.4452 42.408C27.2281 42.2452 26.9898 42.1623 26.7696 42.1256L26.4408 44.0984ZM26.2452 44.008C26.1361 43.9262 26.0783 43.8269 26.0529 43.7591L27.9255 43.0569C27.8361 42.8184 27.6823 42.5858 27.4452 42.408L26.2452 44.008ZM26.0529 43.7591C26.0453 43.739 26.0409 43.7233 26.0385 43.7134C26.0361 43.7034 26.0353 43.6978 26.0352 43.6974C26.0352 43.697 26.0357 43.7006 26.0362 43.7087C26.0367 43.7168 26.0372 43.7284 26.0372 43.744H28.0372C28.0372 43.5415 28.0156 43.2971 27.9255 43.0569L26.0529 43.7591ZM26.0372 43.744V45.016H28.0372V43.744H26.0372ZM27.7915 45.6725L29.4555 43.7605L27.9469 42.4475L26.2829 44.3595L27.7915 45.6725ZM28.7012 44.104C28.7605 44.104 28.8072 44.1069 28.8428 44.1108C28.8785 44.1148 28.8994 44.1195 28.9083 44.1219C28.9284 44.1273 28.8781 44.1179 28.8096 44.0566L30.1447 42.5674C29.7116 42.1791 29.1427 42.104 28.7012 42.104V44.104ZM28.837 44.0802C28.8283 44.0729 28.7938 44.0412 28.7628 43.9792C28.7303 43.9143 28.7172 43.847 28.7172 43.792H30.7172C30.7172 43.2719 30.4756 42.8423 30.1174 42.5438L28.837 44.0802ZM28.7172 43.792C28.7172 43.777 28.7192 43.758 28.7246 43.7376C28.73 43.7172 28.7372 43.7016 28.7426 43.6919L30.4837 44.6761C30.6365 44.4058 30.7172 44.106 30.7172 43.792H28.7172ZM28.7426 43.6919C28.7352 43.7051 28.6919 43.7711 28.5701 43.8929L29.9843 45.3071C30.1718 45.1196 30.3525 44.9083 30.4838 44.6761L28.7426 43.6919ZM28.5701 43.8929L27.5701 44.8929L28.9843 46.3071L29.9843 45.3071L28.5701 43.8929ZM27.5312 46.266C27.6655 46.4164 27.8051 46.5721 27.9499 46.733L29.4365 45.395C29.2933 45.2359 29.1555 45.0823 29.0231 44.934L27.5312 46.266ZM27.9621 46.7463C28.1072 46.9017 28.2466 47.0541 28.3806 47.2035L29.8698 45.8685C29.7264 45.7086 29.5779 45.5463 29.4242 45.3817L27.9621 46.7463ZM28.4053 47.2301C28.5448 47.3747 28.6758 47.5134 28.7984 47.6463L30.268 46.2897C30.1346 46.1452 29.9936 45.9959 29.845 45.8419L28.4053 47.2301ZM28.8124 47.6611C28.9446 47.7986 29.0574 47.9167 29.1512 48.0157L30.6031 46.6403C30.5049 46.5366 30.3885 46.4147 30.254 46.2749L28.8124 47.6611ZM28.8772 47.328C28.8772 47.3231 28.8785 47.2776 28.9084 47.2142L30.718 48.0658C30.8332 47.821 30.8772 47.5676 30.8772 47.328H28.8772ZM28.9084 47.2142C28.9247 47.1795 28.9517 47.1425 28.9864 47.1127L30.288 48.6313C30.472 48.4735 30.6163 48.2818 30.718 48.0658L28.9084 47.2142ZM28.9589 47.1372C28.9913 47.1073 29.0294 47.0853 29.0644 47.073L29.73 48.959C29.9463 48.8827 30.1444 48.7647 30.3155 48.6068L28.9589 47.1372ZM29.0644 47.073C29.0745 47.0694 29.0842 47.067 29.0928 47.0656C29.1013 47.0642 29.107 47.064 29.1092 47.064V49.064C29.3177 49.064 29.5268 49.0307 29.73 48.959L29.0644 47.073ZM29.1092 47.064C29.0805 47.064 29.0793 47.0604 29.0972 47.0658C29.1172 47.0718 29.1491 47.0854 29.1829 47.1114L27.9635 48.6966C28.3168 48.9684 28.7261 49.064 29.1092 49.064V47.064ZM29.2015 47.1261C29.1149 47.0561 29.0248 46.9689 28.9324 46.8612L27.4139 48.1628C27.5776 48.3537 27.7542 48.5279 27.9449 48.6819L29.2015 47.1261ZM28.9315 46.8601L27.8035 45.5481L26.2869 46.8519L27.4149 48.1639L28.9315 46.8601ZM34.4006 44.336L33.9868 43.4256L33.5183 43.6386L33.4193 44.1436L34.4006 44.336ZM34.6726 44.248L34.925 45.2156L34.9389 45.212L34.9526 45.208L34.6726 44.248ZM35.6166 44.296L35.1955 45.203L35.209 45.2093L35.2227 45.2151L35.6166 44.296ZM35.8886 44.584L34.9185 44.8265L34.9206 44.8349L34.9228 44.8431L35.8886 44.584ZM36.0486 45.2L35.0785 45.4425L35.0825 45.4587L35.0871 45.4747L36.0486 45.2ZM36.2006 45.744L35.2358 46.0071L35.238 46.0147L36.2006 45.744ZM36.3366 46.256L35.3665 46.4985L35.37 46.5127L35.374 46.5267L36.3366 46.256ZM36.4726 46.792L35.4978 47.0148L35.6754 47.792H36.4726V46.792ZM36.5126 46.792V47.792H37.3759L37.5019 46.938L36.5126 46.792ZM36.6406 45.864L37.6326 45.9903L37.6329 45.988L36.6406 45.864ZM36.7446 44.992L37.7383 45.1045L37.7385 45.1024L36.7446 44.992ZM36.8406 44.144L37.834 44.2586L37.8343 44.2565L36.8406 44.144ZM36.9366 43.288L36.443 42.4183L35.9991 42.6703L35.9427 43.1776L36.9366 43.288ZM38.0806 43.248L38.5904 42.3877L38.5904 42.3877L38.0806 43.248ZM38.2566 44.184L37.264 44.0629L37.2627 44.0737L37.2616 44.0845L38.2566 44.184ZM38.1606 44.904L37.1732 44.746L37.1716 44.7557L37.1703 44.7654L38.1606 44.904ZM38.0246 45.744L39.0085 45.9229L38.0246 45.744ZM37.8566 46.584L36.88 46.3691V46.3691L37.8566 46.584ZM37.6726 47.312L36.7129 47.0311L36.7106 47.039L36.7084 47.0468L37.6726 47.312ZM37.5046 47.808L38.1869 48.5391L38.3326 48.4031L38.415 48.2218L37.5046 47.808ZM37.1126 47.992L36.8567 47.0253L37.1126 47.992ZM35.9126 47.968L35.5362 48.8945L35.5534 48.9015L35.5709 48.9078L35.9126 47.968ZM35.6006 47.68L36.5573 47.3888L36.5546 47.3798L36.5517 47.3709L35.6006 47.68ZM35.3766 46.92L34.4119 47.1831V47.1831L35.3766 46.92ZM35.1206 45.952L36.089 45.7026L34.143 45.7414L35.1206 45.952ZM34.8886 46.968L33.9167 46.7328L34.8886 46.968ZM34.6726 47.808L35.3549 48.5391L35.5603 48.3474L35.6358 48.0768L34.6726 47.808ZM34.3126 47.992L34.6 48.9498L34.3126 47.992ZM33.1286 47.968L32.789 48.9086L32.8045 48.9141L32.8201 48.9192L33.1286 47.968ZM32.7526 47.68L33.6548 47.2485L33.651 47.2406L33.6471 47.2328L32.7526 47.68ZM32.5926 47.256L31.6291 47.5236L31.6336 47.5398L31.6386 47.5558L32.5926 47.256ZM32.4246 46.608L31.452 46.8406L31.4532 46.8455L32.4246 46.608ZM32.2406 45.816L31.2615 46.0192L31.2633 46.028L31.2653 46.0368L32.2406 45.816ZM32.0726 44.968L31.0867 45.1354L31.0883 45.1444L31.09 45.1534L32.0726 44.968ZM31.9366 44.144L30.9487 44.299L30.9492 44.302L31.9366 44.144ZM31.8406 43.4L31.1602 42.6672L30.7983 43.0032L30.8451 43.4948L31.8406 43.4ZM32.1526 43.208L31.7499 42.2927L31.7499 42.2927L32.1526 43.208ZM33.0806 43.256L32.5026 44.072L32.5218 44.0856L32.5416 44.0983L33.0806 43.256ZM33.3286 43.696L32.3402 43.8481L32.3407 43.851L33.3286 43.696ZM33.5366 45.056L32.5473 45.2015L32.5483 45.2086L32.5495 45.2157L33.5366 45.056ZM33.6726 45.952L32.6818 46.0871L32.6835 46.0999L32.6856 46.1127L33.6726 45.952ZM33.7526 46.488L32.7603 46.612V46.612L33.7526 46.488ZM33.8006 46.792L32.8228 47.0015L32.9922 47.792H33.8006V46.792ZM33.8406 46.792V47.792H34.6406L34.8162 47.0115L33.8406 46.792ZM33.9766 46.2L34.95 46.429V46.429L33.9766 46.2ZM34.1046 45.656L33.1361 45.407L33.1336 45.4169L33.1312 45.427L34.1046 45.656ZM34.2486 45.064L35.223 45.2889L35.2242 45.2835L34.2486 45.064ZM34.8144 45.2464C34.7972 45.2542 34.7959 45.2534 34.8204 45.2454C34.8426 45.2383 34.8767 45.2282 34.925 45.2156L34.4202 43.2804C34.2844 43.3158 34.1261 43.3623 33.9868 43.4256L34.8144 45.2464ZM34.9526 45.208C34.9935 45.1961 35.0273 45.192 35.0566 45.192V43.192C34.83 43.192 34.6078 43.2252 34.3926 43.288L34.9526 45.208ZM35.0566 45.192C35.118 45.192 35.1585 45.1968 35.182 45.2012C35.2053 45.2055 35.2074 45.2085 35.1955 45.203L36.0377 43.389C35.7179 43.2405 35.3765 43.192 35.0566 43.192V45.192ZM35.2227 45.2151C35.1998 45.2053 35.1372 45.1742 35.0696 45.1026C34.9973 45.026 34.9441 44.9291 34.9185 44.8265L36.8588 44.3415C36.7334 43.8399 36.3732 43.5323 36.0105 43.3769L35.2227 45.2151ZM34.9228 44.8431C34.9802 45.057 35.032 45.2568 35.0785 45.4425L37.0188 44.9575C36.9692 44.7592 36.9144 44.5483 36.8545 44.3249L34.9228 44.8431ZM35.0871 45.4747C35.1394 45.6578 35.189 45.8352 35.2359 46.0071L37.1654 45.4809C37.1163 45.3008 37.0645 45.1156 37.0101 44.9253L35.0871 45.4747ZM35.238 46.0147C35.2834 46.1761 35.3262 46.3374 35.3665 46.4985L37.3068 46.0135C37.2617 45.8333 37.2139 45.6532 37.1633 45.4733L35.238 46.0147ZM35.374 46.5267C35.4172 46.6803 35.4585 46.843 35.4978 47.0148L37.4475 46.5692C37.4014 46.3677 37.3521 46.173 37.2993 45.9853L35.374 46.5267ZM36.4726 47.792H36.5126V45.792H36.4726V47.792ZM37.5019 46.938C37.5508 46.6068 37.5944 46.2908 37.6326 45.9903L35.6486 45.7377C35.6122 46.0238 35.5705 46.3266 35.5233 46.646L37.5019 46.938ZM37.6329 45.988C37.6707 45.6857 37.7058 45.3912 37.7383 45.1045L35.751 44.8795C35.7194 45.1581 35.6852 45.4449 35.6483 45.74L37.6329 45.988ZM37.7385 45.1024C37.7704 44.8158 37.8022 44.5345 37.834 44.2586L35.8472 44.0294C35.815 44.3082 35.7829 44.5922 35.7507 44.8816L37.7385 45.1024ZM37.8343 44.2565C37.8664 43.9731 37.8984 43.6871 37.9305 43.3984L35.9427 43.1776C35.9108 43.4649 35.8789 43.7495 35.847 44.0315L37.8343 44.2565ZM37.4302 44.1577C37.4791 44.1299 37.52 44.12 37.5686 44.12V42.12C37.1693 42.12 36.7888 42.2221 36.443 42.4183L37.4302 44.1577ZM37.5686 44.12C37.5953 44.12 37.605 44.1229 37.6021 44.1221C37.6007 44.1218 37.5967 44.1207 37.5908 44.1183C37.5849 44.1159 37.5781 44.1126 37.5708 44.1083L38.5904 42.3877C38.2664 42.1957 37.913 42.12 37.5686 42.12V44.12ZM37.5708 44.1083C37.4845 44.0571 37.4016 43.974 37.3482 43.8672C37.2992 43.7691 37.2966 43.6947 37.2966 43.68H39.2966C39.2966 43.2113 39.1065 42.6935 38.5904 42.3877L37.5708 44.1083ZM37.2966 43.68C37.2966 43.7359 37.2892 43.8561 37.264 44.0629L39.2493 44.3051C39.2774 44.0745 39.2966 43.8588 39.2966 43.68H37.2966ZM37.2616 44.0845C37.2426 44.274 37.2135 44.494 37.1732 44.746L39.1481 45.062C39.1931 44.7806 39.2279 44.5206 39.2517 44.2835L37.2616 44.0845ZM37.1703 44.7654C37.135 45.0172 37.0919 45.2838 37.0408 45.5651L39.0085 45.9229C39.064 45.6176 39.1116 45.3241 39.151 45.0426L37.1703 44.7654ZM37.0408 45.5651C36.9894 45.8475 36.9358 46.1154 36.88 46.3691L38.8333 46.7989C38.8948 46.5192 38.9532 46.2272 39.0085 45.9229L37.0408 45.5651ZM36.88 46.3691C36.8253 46.6178 36.7694 46.838 36.7129 47.0311L38.6324 47.5929C38.7038 47.3487 38.7706 47.0835 38.8333 46.7989L36.88 46.3691ZM36.7084 47.0468C36.6554 47.2398 36.6157 47.347 36.5943 47.3942L38.415 48.2218C38.5002 48.0343 38.5726 47.8109 38.6368 47.5772L36.7084 47.0468ZM36.8223 47.0769C36.8513 47.0498 36.8763 47.032 36.8928 47.0214C36.9092 47.0107 36.9197 47.0057 36.9217 47.0048C36.9238 47.0038 36.9199 47.0058 36.9084 47.0098C36.8971 47.0137 36.8801 47.0191 36.8567 47.0253L37.3685 48.9587C37.6101 48.8948 37.9288 48.78 38.1869 48.5391L36.8223 47.0769ZM36.8567 47.0253C36.7609 47.0507 36.6603 47.064 36.5526 47.064V49.064C36.829 49.064 37.1017 49.0293 37.3685 48.9587L36.8567 47.0253ZM36.5526 47.064C36.3815 47.064 36.2907 47.0414 36.2544 47.0282L35.5709 48.9078C35.8865 49.0226 36.2224 49.064 36.5526 49.064V47.064ZM36.289 47.0415C36.2832 47.0392 36.3265 47.0552 36.3849 47.1092C36.4495 47.1689 36.519 47.2629 36.5573 47.3888L34.644 47.9712C34.8024 48.4917 35.2131 48.7632 35.5362 48.8945L36.289 47.0415ZM36.5517 47.3709C36.4887 47.177 36.4185 46.9398 36.3414 46.6569L34.4119 47.1831C34.4947 47.4869 34.5739 47.7563 34.6496 47.9891L36.5517 47.3709ZM36.3414 46.6569C36.2628 46.3689 36.1787 46.0508 36.089 45.7026L34.1522 46.2014C34.2439 46.5572 34.3304 46.8845 34.4119 47.1831L36.3414 46.6569ZM34.143 45.7414C34.0701 46.0802 33.9946 46.4107 33.9167 46.7328L35.8606 47.2032C35.9426 46.864 36.0218 46.5171 36.0982 46.1626L34.143 45.7414ZM33.9167 46.7328C33.8383 47.0566 33.7693 47.3246 33.7094 47.5392L35.6358 48.0768C35.7039 47.8327 35.7789 47.5408 35.8606 47.2032L33.9167 46.7328ZM33.9903 47.0769C34.0318 47.0382 34.0631 47.0218 34.0675 47.0196C34.0722 47.0172 34.0606 47.0236 34.0253 47.0342L34.6 48.9498C34.8368 48.8788 35.1188 48.7594 35.3549 48.5391L33.9903 47.0769ZM34.0253 47.0342C33.9712 47.0504 33.8935 47.064 33.7846 47.064V49.064C34.0597 49.064 34.334 49.0296 34.6 48.9498L34.0253 47.0342ZM33.7846 47.064C33.6333 47.064 33.5206 47.0438 33.4371 47.0168L32.8201 48.9192C33.1313 49.0202 33.456 49.064 33.7846 49.064V47.064ZM33.4683 47.0274C33.442 47.018 33.4601 47.0206 33.4987 47.0501C33.5411 47.0826 33.6058 47.1463 33.6548 47.2485L31.8505 48.1115C32.0683 48.5669 32.472 48.7941 32.789 48.9086L33.4683 47.0274ZM33.6471 47.2328C33.6347 47.208 33.6001 47.1262 33.5466 46.9562L31.6386 47.5558C31.7025 47.7591 31.7746 47.96 31.8582 48.1272L33.6471 47.2328ZM33.5561 46.9884C33.5062 46.8084 33.4528 46.6027 33.396 46.3705L31.4532 46.8455C31.5138 47.0933 31.5724 47.3196 31.6291 47.5236L33.5561 46.9884ZM33.3972 46.3754C33.3396 46.1345 33.2792 45.8745 33.2159 45.5952L31.2653 46.0368C31.3301 46.3229 31.3923 46.5908 31.452 46.8406L33.3972 46.3754ZM33.2198 45.6128C33.1623 45.336 33.1075 45.0593 33.0553 44.7826L31.09 45.1534C31.1444 45.442 31.2016 45.7306 31.2615 46.0192L33.2198 45.6128ZM33.0585 44.8006C33.011 44.5209 32.9662 44.2493 32.9241 43.986L30.9492 44.302C30.9924 44.572 31.0382 44.8498 31.0867 45.1354L33.0585 44.8006ZM32.9245 43.989C32.8843 43.7328 32.8552 43.5052 32.8361 43.3052L30.8451 43.4948C30.8687 43.7428 30.9036 44.0112 30.9487 44.299L32.9245 43.989ZM32.5211 44.1328C32.502 44.1505 32.492 44.1558 32.4987 44.1517C32.5052 44.1477 32.5228 44.1376 32.5554 44.1233L31.7499 42.2927C31.5546 42.3786 31.3435 42.497 31.1602 42.6672L32.5211 44.1328ZM32.5554 44.1233C32.5562 44.1229 32.5574 44.1224 32.5602 44.1219C32.5632 44.1213 32.5708 44.12 32.5846 44.12V42.12C32.3 42.12 32.0179 42.1748 31.7499 42.2927L32.5554 44.1233ZM32.5846 44.12C32.6124 44.12 32.6137 44.1232 32.5962 44.1184C32.5769 44.1131 32.5421 44.1 32.5026 44.072L33.6586 42.44C33.3183 42.1989 32.9341 42.12 32.5846 42.12V44.12ZM32.5416 44.0983C32.4617 44.0472 32.4052 43.9808 32.3715 43.921C32.3409 43.8668 32.3382 43.8346 32.3403 43.8481L34.317 43.5439C34.2565 43.1507 34.068 42.7007 33.6197 42.4137L32.5416 44.0983ZM32.3407 43.851C32.4258 44.3932 32.4946 44.8431 32.5473 45.2015L34.526 44.9105C34.472 44.5435 34.4022 44.0868 34.3165 43.541L32.3407 43.851ZM32.5495 45.2157C32.6074 45.5741 32.6513 45.8638 32.6818 46.0871L34.6635 45.8169C34.6299 45.5708 34.5831 45.2632 34.5238 44.8963L32.5495 45.2157ZM32.6856 46.1127C32.7223 46.3378 32.7466 46.5023 32.7603 46.612L34.7449 46.364C34.7266 46.2177 34.6977 46.0249 34.6596 45.7913L32.6856 46.1127ZM32.7603 46.612C32.7779 46.7521 32.7981 46.8859 32.8228 47.0015L34.7784 46.5825C34.7712 46.5487 34.7594 46.4799 34.7449 46.364L32.7603 46.612ZM33.8006 47.792H33.8406V45.792H33.8006V47.792ZM34.8162 47.0115C34.8636 46.8008 34.9082 46.6067 34.95 46.429L33.0032 45.971C32.9597 46.156 32.9136 46.3565 32.865 46.5725L34.8162 47.0115ZM34.95 46.429C34.9927 46.2477 35.0354 46.0664 35.078 45.885L33.1312 45.427C33.0885 45.6083 33.0459 45.7896 33.0032 45.971L34.95 46.429ZM35.0731 45.905C35.1234 45.7095 35.1733 45.5041 35.223 45.2889L33.2742 44.8391C33.2279 45.0399 33.1819 45.2291 33.1361 45.407L35.0731 45.905ZM35.2242 45.2835C35.2747 45.0592 35.3273 44.8072 35.3819 44.5284L33.4193 44.1436C33.3673 44.4088 33.3185 44.6422 33.273 44.8445L35.2242 45.2835ZM39.0189 44.464L38.0958 44.0794L38.0931 44.086L38.0904 44.0926L39.0189 44.464ZM39.5549 43.664L40.2445 44.3881L40.2449 44.3877L39.5549 43.664ZM40.3549 43.168L40.0144 42.2277L40.0092 42.2297L40.3549 43.168ZM42.3469 43.168L42.0012 44.1064L42.0064 44.1083L42.3469 43.168ZM43.1549 43.664L42.4647 44.3878L42.4738 44.3962L43.1549 43.664ZM43.6909 44.464L42.7624 44.8354L42.7651 44.842L42.7678 44.8486L43.6909 44.464ZM43.6989 46.68L44.6274 47.0514L44.6294 47.0461L43.6989 46.68ZM43.1629 47.488L43.8525 48.2121L43.853 48.2117L43.1629 47.488ZM42.3629 47.976L42.0224 47.0357L42.3629 47.976ZM40.3469 47.976L39.9922 48.911L39.9993 48.9137L40.0064 48.9163L40.3469 47.976ZM39.5469 47.472L38.8483 48.1876L39.5469 47.472ZM39.0189 46.664L39.9474 46.2926L39.0189 46.664ZM40.5629 46.656L41.3353 46.0209L40.5629 46.656ZM42.1549 46.656L41.3825 46.0209L42.1549 46.656ZM42.1549 44.488L41.3739 45.1128L41.3825 45.1231L42.1549 44.488ZM40.5629 44.488L39.7988 43.8428L39.7975 43.8444L40.5629 44.488ZM39.8269 45.568C39.8269 45.2535 39.8753 45.0156 39.9474 44.8354L38.0904 44.0926C37.9065 44.5524 37.8269 45.0505 37.8269 45.568H39.8269ZM39.942 44.8486C40.0283 44.6413 40.1325 44.4948 40.2445 44.3881L38.8652 42.9399C38.5292 43.2599 38.2761 43.6467 38.0958 44.0794L39.942 44.8486ZM40.2449 44.3877C40.3731 44.2655 40.5219 44.1722 40.7006 44.1063L40.0092 42.2297C39.5799 42.3878 39.1953 42.6251 38.8648 42.9403L40.2449 44.3877ZM40.6953 44.1083C40.8865 44.0391 41.1036 44 41.3549 44V42C40.8915 42 40.442 42.0729 40.0144 42.2277L40.6953 44.1083ZM41.3549 44C41.6064 44 41.8187 44.0391 42.0012 44.1063L42.6926 42.2297C42.2671 42.0729 41.8181 42 41.3549 42V44ZM42.0064 44.1083C42.1906 44.1749 42.3396 44.2684 42.4648 44.3877L43.845 42.9403C43.5115 42.6223 43.1218 42.3851 42.6873 42.2277L42.0064 44.1083ZM42.4738 44.3962C42.5846 44.4993 42.6837 44.6385 42.7624 44.8354L44.6194 44.0926C44.4421 43.6495 44.1838 43.2554 43.836 42.9318L42.4738 44.3962ZM42.7678 44.8486C42.8413 45.025 42.8909 45.2582 42.8909 45.568H44.8909C44.8909 45.0458 44.8071 44.543 44.614 44.0794L42.7678 44.8486ZM42.8909 45.568C42.8909 45.882 42.8426 46.125 42.7683 46.3139L44.6294 47.0461C44.8111 46.5843 44.8909 46.086 44.8909 45.568H42.8909ZM42.7704 46.3086C42.6909 46.5072 42.5895 46.653 42.4728 46.7643L43.853 48.2117C44.1949 47.8857 44.4508 47.4928 44.6274 47.0514L42.7704 46.3086ZM42.4732 46.7639C42.3557 46.8758 42.2101 46.9678 42.0224 47.0357L42.7033 48.9163C43.1344 48.7602 43.5221 48.5269 43.8525 48.2121L42.4732 46.7639ZM42.0224 47.0357C41.8329 47.1044 41.6133 47.144 41.3549 47.144V49.144C41.8218 49.144 42.2742 49.0716 42.7033 48.9163L42.0224 47.0357ZM41.3549 47.144C41.0964 47.144 40.8769 47.1044 40.6873 47.0357L40.0064 48.9163C40.4355 49.0716 40.888 49.144 41.3549 49.144V47.144ZM40.7015 47.041C40.5132 46.9696 40.3655 46.8737 40.2454 46.7564L38.8483 48.1876C39.1762 48.5076 39.5618 48.7477 39.9922 48.911L40.7015 47.041ZM40.2454 46.7564C40.1309 46.6446 40.0288 46.4963 39.9474 46.2926L38.0904 47.0354C38.2649 47.4717 38.5148 47.862 38.8483 48.1876L40.2454 46.7564ZM39.9474 46.2926C39.8747 46.111 39.8269 45.8753 39.8269 45.568H37.8269C37.8269 46.082 37.907 46.577 38.0904 47.0354L39.9474 46.2926ZM39.2669 45.568C39.2669 46.1619 39.3832 46.7958 39.7905 47.2911L41.3353 46.0209C41.3479 46.0362 41.2669 45.9448 41.2669 45.568H39.2669ZM39.7905 47.2911C40.1913 47.7786 40.7471 48.016 41.3549 48.016V46.016C41.3327 46.016 41.3209 46.014 41.3172 46.0133C41.3139 46.0126 41.3165 46.0128 41.3227 46.0156C41.3256 46.0169 41.3286 46.0185 41.3316 46.0203C41.3345 46.0221 41.3369 46.0238 41.3386 46.0251C41.3422 46.028 41.3409 46.0277 41.3353 46.0209L39.7905 47.2911ZM41.3549 48.016C41.9622 48.016 42.5231 47.7828 42.9273 47.2911L41.3825 46.0209C41.3776 46.0268 41.3768 46.0265 41.3809 46.0234C41.3851 46.0201 41.3908 46.0167 41.3965 46.0141C41.4021 46.0116 41.4036 46.0118 41.3986 46.0128C41.3932 46.0138 41.3793 46.016 41.3549 46.016V48.016ZM42.9273 47.2911C43.3345 46.7958 43.4509 46.1619 43.4509 45.568H41.4509C41.4509 45.9448 41.3699 46.0362 41.3825 46.0209L42.9273 47.2911ZM43.4509 45.568C43.4509 44.9762 43.3332 44.3466 42.9273 43.8529L41.3825 45.1231C41.3712 45.1094 41.4509 45.1998 41.4509 45.568H43.4509ZM42.9357 43.8633C42.5346 43.3619 41.9703 43.128 41.3629 43.128V45.128C41.3874 45.128 41.4008 45.1302 41.4053 45.1311C41.4094 45.1319 41.4064 45.1317 41.3991 45.1284C41.3956 45.1268 41.3918 45.1248 41.3879 45.1224C41.384 45.12 41.3806 45.1176 41.3777 45.1154C41.3717 45.1106 41.3707 45.1086 41.374 45.1127L42.9357 43.8633ZM41.3629 43.128C40.7554 43.128 40.2027 43.3646 39.7988 43.8428L41.3269 45.1332C41.3341 45.1247 41.3372 45.1226 41.3355 45.124C41.3336 45.1254 41.3298 45.1279 41.3252 45.1299C41.3208 45.1319 41.3196 45.1318 41.3238 45.1309C41.3284 45.13 41.3408 45.128 41.3629 45.128V43.128ZM39.7975 43.8444C39.3822 44.3383 39.2669 44.9767 39.2669 45.568H41.2669C41.2669 45.3895 41.2854 45.2709 41.3053 45.1983C41.3246 45.128 41.3405 45.117 41.3282 45.1316L39.7975 43.8444ZM44.8919 47.824L45.599 47.1169L44.8919 47.824ZM44.6919 43.144L44.513 42.1601L43.6919 42.3094V43.144H44.6919ZM44.9719 43.104L45.0959 44.0963L45.1162 44.0937L45.1363 44.0904L44.9719 43.104ZM45.6599 43.104L45.4308 44.0774L45.4629 44.085L45.4955 44.0904L45.6599 43.104ZM45.8999 43.2L45.2999 44V44L45.8999 43.2ZM46.0439 43.4L46.9802 43.0489V43.0489L46.0439 43.4ZM46.0919 46.896H45.0919V47.896H46.0919V46.896ZM47.9239 46.896L48.7675 46.3591L48.4728 45.896H47.9239V46.896ZM48.0279 47.136L47.0743 47.4371L47.0767 47.4447L47.0792 47.4522L48.0279 47.136ZM47.9399 47.896L48.6252 48.6242L48.6363 48.6138L48.647 48.6031L47.9399 47.896ZM45.4359 47.024C45.4175 47.024 45.4346 47.0213 45.4729 47.0354C45.5149 47.0508 45.5606 47.0785 45.599 47.1169L44.1848 48.5311C44.5448 48.8912 45.0024 49.024 45.4359 49.024V47.024ZM45.599 47.1169C45.6374 47.1553 45.665 47.201 45.6805 47.2429C45.6946 47.2813 45.6919 47.2984 45.6919 47.28H43.6919C43.6919 47.7134 43.8247 48.171 44.1848 48.5311L45.599 47.1169ZM45.6919 47.28V43.144H43.6919V47.28H45.6919ZM44.8708 44.1279C44.9003 44.1225 44.9703 44.112 45.0959 44.0963L44.8478 42.1117C44.7175 42.128 44.6008 42.1442 44.513 42.1601L44.8708 44.1279ZM45.1363 44.0904C45.2156 44.0772 45.2831 44.072 45.3399 44.072V42.072C45.162 42.072 44.9842 42.0882 44.8075 42.1176L45.1363 44.0904ZM45.3399 44.072C45.3726 44.072 45.3964 44.0734 45.4124 44.075C45.4285 44.0766 45.434 44.0782 45.4308 44.0774L45.8889 42.1306C45.7039 42.087 45.5169 42.072 45.3399 42.072V44.072ZM45.4955 44.0904C45.4673 44.0857 45.3889 44.0668 45.2999 44L46.4999 42.4C46.2828 42.2372 46.0445 42.1543 45.8243 42.1176L45.4955 44.0904ZM45.2999 44C45.1908 43.9182 45.133 43.8189 45.1075 43.7511L46.9802 43.0489C46.8908 42.8104 46.7369 42.5778 46.4999 42.4L45.2999 44ZM45.1075 43.7511C45.1 43.731 45.0956 43.7153 45.0932 43.7054C45.0908 43.6954 45.09 43.6898 45.0899 43.6894C45.0899 43.689 45.0904 43.6926 45.0909 43.7007C45.0914 43.7088 45.0919 43.7204 45.0919 43.736H47.0919C47.0919 43.5335 47.0703 43.2891 46.9802 43.0489L45.1075 43.7511ZM45.0919 43.736V46.896H47.0919V43.736H45.0919ZM46.0919 47.896H47.9239V45.896H46.0919V47.896ZM47.0802 47.4329C47.0721 47.4201 47.0668 47.4104 47.0639 47.4048C47.061 47.3992 47.0599 47.3966 47.0603 47.3976C47.0607 47.3986 47.0623 47.4022 47.0648 47.4091C47.0673 47.4159 47.0705 47.4251 47.0743 47.4371L48.9815 46.8349C48.9355 46.6893 48.8693 46.5191 48.7675 46.3591L47.0802 47.4329ZM47.0792 47.4522C47.0775 47.4473 47.0766 47.443 47.0761 47.44C47.0756 47.437 47.0759 47.4368 47.0759 47.44H49.0759C49.0759 47.2317 49.0443 47.0231 48.9766 46.8198L47.0792 47.4522ZM47.0759 47.44C47.0759 47.4809 47.0709 47.4706 47.0836 47.4282C47.0973 47.3823 47.136 47.2856 47.2328 47.1889L48.647 48.6031C49.0169 48.2331 49.0759 47.752 49.0759 47.44H47.0759ZM47.2545 47.1678C47.3122 47.1135 47.3796 47.0737 47.4469 47.0498C47.5112 47.0269 47.5597 47.024 47.5799 47.024V49.024C47.9301 49.024 48.3132 48.9178 48.6252 48.6242L47.2545 47.1678ZM47.5799 47.024H45.4359V49.024H47.5799V47.024ZM52.2014 43.152L53.0451 42.6151L52.7504 42.152H52.2014V43.152ZM52.2974 43.392L51.3304 43.6465L51.3386 43.6777L51.3488 43.7082L52.2974 43.392ZM52.2094 44.144L52.9165 44.8511L52.2094 44.144ZM50.1774 44.272V43.272H49.1774V44.272H50.1774ZM50.1774 45.176H49.1774V46.176H50.1774V45.176ZM51.9294 45.176L52.7382 44.5878L52.4387 44.176H51.9294V45.176ZM52.0334 45.408L51.0699 45.6756L51.0767 45.7001L51.0848 45.7242L52.0334 45.408ZM51.9454 46.152L52.6525 46.8591L51.9454 46.152ZM50.1934 46.28V45.28H49.1934V46.28H50.1934ZM50.1934 47.968L50.4566 48.9328L51.1934 48.7318V47.968H50.1934ZM49.9134 48.016L49.7894 47.0237L49.7841 47.0244L49.9134 48.016ZM49.2174 48.008L49.4344 47.0318L49.4129 47.027L49.3912 47.0232L49.2174 48.008ZM48.9854 47.912L48.3854 48.712L48.9854 47.912ZM48.8414 47.712L47.9051 48.0631L48.8414 47.712ZM51.3578 43.6889C51.3363 43.6551 51.3268 43.632 51.325 43.6274C51.3229 43.6222 51.3253 43.6274 51.3304 43.6465L53.2645 43.1375C53.2235 42.9815 53.1584 42.7932 53.0451 42.6151L51.3578 43.6889ZM51.3488 43.7082C51.3471 43.7033 51.3461 43.699 51.3457 43.696C51.3452 43.693 51.3454 43.6928 51.3454 43.696H53.3454C53.3454 43.4877 53.3139 43.2791 53.2461 43.0758L51.3488 43.7082ZM51.3454 43.696C51.3454 43.7322 51.3409 43.7184 51.3546 43.6735C51.3694 43.6247 51.4088 43.5305 51.5023 43.4369L52.9165 44.8511C53.2827 44.4849 53.3454 44.0113 53.3454 43.696H51.3454ZM51.5023 43.4369C51.5666 43.3726 51.6419 43.327 51.7157 43.3002C51.7857 43.2748 51.8378 43.272 51.8574 43.272V45.272C52.2052 45.272 52.6012 45.1664 52.9165 44.8511L51.5023 43.4369ZM51.8574 43.272H50.1774V45.272H51.8574V43.272ZM49.1774 44.272V45.176H51.1774V44.272H49.1774ZM50.1774 46.176H51.9294V44.176H50.1774V46.176ZM51.1207 45.7642C51.0952 45.7291 51.0813 45.7013 51.0749 45.6871C51.0685 45.6728 51.0678 45.6678 51.0699 45.6756L52.997 45.1404C52.9494 44.9692 52.8721 44.7719 52.7382 44.5878L51.1207 45.7642ZM51.0848 45.7242C51.0831 45.7193 51.0821 45.715 51.0817 45.712C51.0812 45.709 51.0814 45.7088 51.0814 45.712H53.0814C53.0814 45.5037 53.0499 45.2951 52.9821 45.0918L51.0848 45.7242ZM51.0814 45.712C51.0814 45.7433 51.0774 45.726 51.092 45.6787C51.108 45.6271 51.148 45.5352 51.2383 45.4449L52.6525 46.8591C53.0148 46.4968 53.0814 46.0309 53.0814 45.712H51.0814ZM51.2383 45.4449C51.3026 45.3806 51.3779 45.335 51.4517 45.3082C51.5217 45.2828 51.5738 45.28 51.5934 45.28V47.28C51.9412 47.28 52.3372 47.1744 52.6525 46.8591L51.2383 45.4449ZM51.5934 45.28H50.1934V47.28H51.5934V45.28ZM49.1934 46.28V47.968H51.1934V46.28H49.1934ZM49.9303 47.0032C49.9441 46.9995 49.9408 47.0012 49.9105 47.0064C49.883 47.0111 49.8433 47.017 49.7894 47.0237L50.0375 49.0083C50.1725 48.9914 50.3252 48.9686 50.4566 48.9328L49.9303 47.0032ZM49.7841 47.0244C49.704 47.0349 49.6245 47.04 49.5454 47.04V49.04C49.7117 49.04 49.8776 49.0291 50.0428 49.0076L49.7841 47.0244ZM49.5454 47.04C49.4786 47.04 49.4442 47.034 49.4344 47.0318L49.0005 48.9842C49.1827 49.0247 49.3669 49.04 49.5454 49.04V47.04ZM49.3912 47.0232C49.4318 47.0304 49.5061 47.0525 49.5854 47.112L48.3854 48.712C48.5928 48.8675 48.8218 48.9536 49.0437 48.9928L49.3912 47.0232ZM49.5854 47.112C49.6945 47.1938 49.7523 47.2931 49.7778 47.3609L47.9051 48.0631C47.9945 48.3016 48.1484 48.5342 48.3854 48.712L49.5854 47.112ZM49.7778 47.3609C49.7853 47.381 49.7897 47.3967 49.7921 47.4066C49.7945 47.4166 49.7953 47.4222 49.7954 47.4226C49.7954 47.423 49.7949 47.4194 49.7944 47.4113C49.7939 47.4032 49.7934 47.3916 49.7934 47.376H47.7934C47.7934 47.5785 47.815 47.8229 47.9051 48.0631L49.7778 47.3609ZM49.7934 47.376V43.896H47.7934V47.376H49.7934ZM49.7934 43.896C49.7934 43.8776 49.7961 43.8947 49.782 43.9331C49.7666 43.975 49.7389 44.0207 49.7005 44.0591L48.2863 42.6449C47.9263 43.005 47.7934 43.4626 47.7934 43.896H49.7934ZM49.7005 44.0591C49.6622 44.0975 49.6164 44.1252 49.5745 44.1406C49.5361 44.1547 49.519 44.152 49.5374 44.152V42.152C49.104 42.152 48.6464 42.2848 48.2863 42.6449L49.7005 44.0591ZM49.5374 44.152H52.2014V42.152H49.5374V44.152Z" fill="black" mask="url(#path-10-outside-1_21_5886)"/>
<defs>
<clipPath id="clip0_21_5886">
<rect width="37" height="41" fill="white" transform="translate(11)"/>
</clipPath>
</defs>
</svg>
