<?xml version="1.0" standalone="no"?>
<!DOCTYPE svg PUBLIC "-//W3C//DTD SVG 20010904//EN"
 "http://www.w3.org/TR/2001/REC-SVG-20010904/DTD/svg10.dtd">
<svg version="1.0" xmlns="http://www.w3.org/2000/svg"
 width="155.000000pt" height="155.000000pt" viewBox="0 0 155.000000 155.000000"
 preserveAspectRatio="xMidYMid meet">
<metadata>
Created by potrace 1.14, written by Peter Selinger 2001-2017
</metadata>
<g transform="translate(0.000000,155.000000) scale(0.100000,-0.100000)"
fill="#000000" stroke="none">
<path d="M793 1543 c-21 -8 -15 -41 8 -48 30 -10 57 18 39 39 -13 16 -25 18
-47 9z m27 -23 c0 -5 -5 -10 -11 -10 -5 0 -7 5 -4 10 3 6 8 10 11 10 2 0 4 -4
4 -10z"/>
<path d="M985 1434 c-23 -24 -18 -53 11 -64 31 -12 59 1 67 29 9 36 -50 62
-78 35z m55 -29 c0 -20 -27 -26 -41 -9 -10 13 -10 17 1 24 17 10 40 2 40 -15z"/>
<path d="M705 1382 c-142 -14 -266 -95 -325 -211 -17 -35 -37 -61 -49 -64 -20
-5 -21 -1 -21 83 0 64 4 91 14 97 37 22 21 73 -23 73 -39 0 -57 -23 -43 -55 7
-14 15 -25 20 -25 13 0 8 -181 -6 -222 -18 -49 3 -91 53 -110 27 -9 41 -23 54
-54 57 -127 216 -218 376 -213 157 5 306 95 361 218 14 32 25 44 46 48 30 6
68 50 68 78 0 9 -5 26 -12 38 -6 12 -12 65 -13 117 -1 81 1 97 17 108 37 27
15 72 -34 72 -39 0 -54 -36 -27 -66 16 -17 19 -36 19 -106 0 -80 -1 -86 -19
-81 -11 3 -31 28 -46 59 -69 142 -242 233 -410 216z"/>
<path d="M1262 662 c2 -20 7 -37 13 -37 15 0 13 64 -3 70 -10 4 -12 -4 -10
-33z"/>
<path d="M442 630 c-39 -39 -43 -40 -109 -40 -50 0 -77 -5 -100 -20 -55 -33
-61 -57 -61 -240 0 -179 5 -202 55 -236 26 -18 54 -19 509 -20 529 -1 527 -1
564 58 19 31 20 46 18 210 l-3 178 -33 32 -32 33 -342 3 -342 3 -38 40 c-20
21 -39 39 -41 39 -2 0 -22 -18 -45 -40z"/>
<path d="M1351 616 c-31 -32 -11 -41 22 -10 30 28 33 34 14 34 -8 0 -24 -11
-36 -24z"/>
<path d="M1384 538 c-6 -10 -7 -10 39 -12 20 0 37 4 37 9 0 12 -69 15 -76 3z"/>
<path d="M90 320 c0 -5 4 -10 9 -10 6 0 13 5 16 10 3 6 -1 10 -9 10 -9 0 -16
-4 -16 -10z"/>
<path d="M90 271 c0 -6 5 -13 10 -16 6 -3 10 1 10 9 0 9 -4 16 -10 16 -5 0
-10 -4 -10 -9z"/>
<path d="M90 210 c0 -5 4 -10 9 -10 6 0 13 5 16 10 3 6 -1 10 -9 10 -9 0 -16
-4 -16 -10z"/>
<path d="M96 163 c-11 -11 -7 -20 9 -20 8 0 15 4 15 8 0 11 -16 20 -24 12z"/>
<path d="M110 100 c0 -5 7 -10 16 -10 8 0 12 5 9 10 -3 6 -10 10 -16 10 -5 0
-9 -4 -9 -10z"/>
<path d="M150 60 c0 -5 7 -10 16 -10 8 0 12 5 9 10 -3 6 -10 10 -16 10 -5 0
-9 -4 -9 -10z"/>
<path d="M205 31 c-3 -5 -1 -12 5 -16 5 -3 10 1 10 9 0 18 -6 21 -15 7z"/>
<path d="M265 19 c-10 -15 3 -25 16 -12 7 7 7 13 1 17 -6 3 -14 1 -17 -5z"/>
<path d="M325 10 c3 -5 10 -10 16 -10 5 0 9 5 9 10 0 6 -7 10 -16 10 -8 0 -12
-4 -9 -10z"/>
</g>
</svg>
